<?xml version="1.0" encoding="utf-8"?>
<svg id="Layer_1" style="enable-background:new 0 0 496.158 496.158;" x="0px" y="0px" width="500px" height="500px" viewBox="0 0 496.158 496.158" xmlns="http://www.w3.org/2000/svg">
  <path style="fill:#56B48C;" d="M248.082,0.003C111.07,0.003,0,111.061,0,248.085c0,137,111.07,248.07,248.082,248.07&#10;&#9;c137.006,0,248.076-111.07,248.076-248.07C496.158,111.061,385.088,0.003,248.082,0.003z"/>
  <path style="fill:#FFFFFF;" d="M 189.631 145.419 C 186.504 141.416 182.355 139.413 177.18 139.413 C 172.588 139.413 169.464 140.292 167.805 142.05 C 166.143 143.808 162.579 148.495 157.112 156.113 C 151.641 163.73 145.368 170.615 138.289 176.767 C 131.208 182.919 121.759 188.779 109.944 194.345 C 102.034 198.057 96.515 201.083 93.391 203.427 C 90.264 205.771 88.703 209.433 88.703 214.413 C 88.703 218.711 90.289 222.495 93.464 225.766 C 96.637 229.039 100.276 230.673 104.377 230.673 C 112.969 230.673 129.668 221.152 154.475 202.109 L 154.475 335.41 C 154.475 343.224 156.281 349.132 159.895 353.135 C 163.506 357.138 168.292 359.141 174.25 359.141 C 187.628 359.141 194.318 349.327 194.318 329.698 L 194.318 161.972 C 194.318 154.941 192.755 149.425 189.631 145.419 Z"/>
  <g/>
  <g/>
  <g/>
  <g/>
  <g/>
  <g/>
  <g/>
  <g/>
  <g/>
  <g/>
  <g/>
  <g/>
  <g/>
  <g/>
  <g/>
  <path style="fill:#FFFFFF;" d="M 387.344 261.429 C 384.121 252.739 379.555 245.195 373.648 238.797 C 367.738 232.402 360.854 227.47 352.994 224.002 C 345.132 220.537 336.562 218.802 327.286 218.802 C 317.618 218.802 308.877 220.706 301.065 224.515 C 293.251 228.324 286.025 234.183 279.385 242.093 C 280.653 215.531 284.853 197.074 291.983 186.722 C 295.499 181.645 299.82 177.617 304.947 174.637 C 310.074 171.659 315.224 170.169 320.401 170.169 C 326.846 170.169 332.509 171.952 337.393 175.516 C 342.275 179.082 345.839 183.792 348.086 189.652 C 349.745 194.243 352.334 197.832 355.85 200.419 C 359.366 203.008 363.174 204.301 367.276 204.301 C 371.964 204.301 375.82 202.667 378.848 199.394 C 381.874 196.123 383.389 192.486 383.389 188.481 C 383.389 181.841 380.972 174.908 376.138 167.68 C 371.304 160.454 364.126 154.4 354.605 149.516 C 345.084 144.634 334.072 142.192 321.573 142.192 C 308.584 142.192 297.011 144.634 286.856 149.516 C 276.698 154.4 268.056 161.626 260.928 171.196 C 253.798 180.768 248.33 192.828 244.522 207.378 C 240.713 221.93 238.809 238.433 238.809 256.89 C 238.809 279.547 241.958 298.711 248.257 314.385 C 254.556 330.059 263.661 341.901 275.576 349.907 C 287.489 357.916 301.65 361.919 318.056 361.919 C 332.313 361.919 345.082 358.77 356.362 352.471 C 367.642 346.172 376.43 337.408 382.729 326.177 C 389.028 314.948 392.177 302.447 392.177 288.677 C 392.178 279.204 390.567 270.122 387.344 261.429 Z M 343.399 320.975 C 336.954 329.032 328.798 333.06 318.936 333.06 C 308.583 333.06 299.989 328.665 293.155 319.876 C 286.318 311.087 282.901 300.101 282.901 286.917 C 282.901 278.714 284.586 271.562 287.955 265.457 C 291.324 259.355 295.767 254.69 301.285 251.468 C 306.801 248.245 312.587 246.634 318.643 246.634 C 324.99 246.634 330.801 248.319 336.075 251.688 C 341.349 255.057 345.498 259.941 348.526 266.336 C 351.552 272.733 353.067 280.376 353.067 289.261 C 353.067 302.348 349.844 312.918 343.399 320.975 Z"/>
</svg>