<?xml version="1.0" encoding="utf-8"?>
<svg id="Layer_1" style="enable-background:new 0 0 496.158 496.158;" x="0px" y="0px" width="500px" height="500px" viewBox="0 0 496.158 496.158" xmlns="http://www.w3.org/2000/svg">
  <path style="fill:#56B48C;" d="M248.082,0.003C111.07,0.003,0,111.061,0,248.085c0,137,111.07,248.07,248.082,248.07&#10;&#9;c137.006,0,248.076-111.07,248.076-248.07C496.158,111.061,385.088,0.003,248.082,0.003z"/>
  <path style="fill:#FFFFFF;" d="M 189.631 145.419 C 186.504 141.416 182.355 139.413 177.18 139.413 C 172.588 139.413 169.464 140.292 167.805 142.05 C 166.143 143.808 162.579 148.495 157.112 156.113 C 151.641 163.73 145.368 170.615 138.289 176.767 C 131.208 182.919 121.759 188.779 109.944 194.345 C 102.034 198.057 96.515 201.083 93.391 203.427 C 90.264 205.771 88.703 209.433 88.703 214.413 C 88.703 218.711 90.289 222.495 93.464 225.766 C 96.637 229.039 100.276 230.673 104.377 230.673 C 112.969 230.673 129.668 221.152 154.475 202.109 L 154.475 335.41 C 154.475 343.224 156.281 349.132 159.895 353.135 C 163.506 357.138 168.292 359.141 174.25 359.141 C 187.628 359.141 194.318 349.327 194.318 329.698 L 194.318 161.972 C 194.318 154.941 192.755 149.425 189.631 145.419 Z"/>
  <g/>
  <g/>
  <g/>
  <g/>
  <g/>
  <g/>
  <g/>
  <g/>
  <g/>
  <g/>
  <g/>
  <g/>
  <g/>
  <g/>
  <g/>
  <path style="fill:#FFFFFF;" d="M 383.535 149.626 C 379.335 146.696 372.549 145.231 363.174 145.231 L 265.615 145.231 C 257.899 145.231 251.893 146.209 247.597 148.161 C 243.299 150.116 241.152 154.46 241.152 161.198 C 241.152 167.547 243.177 172.21 247.231 175.187 C 251.282 178.167 257.412 179.655 265.615 179.655 L 343.984 179.655 C 331.679 195.281 321.059 210.98 312.124 226.75 C 303.188 242.522 295.741 257.903 289.785 272.893 C 283.827 287.885 279.531 300.75 276.894 311.492 C 274.257 322.236 272.939 330.732 272.939 336.98 C 272.939 345.087 274.745 351.214 278.359 355.364 C 281.971 359.513 286.756 361.59 292.714 361.59 C 298.963 361.59 303.968 359.66 307.729 355.804 C 311.487 351.948 314.394 345.037 316.445 335.076 C 317.324 330.78 318.349 324.579 319.521 316.472 C 320.693 308.368 321.766 301.776 322.744 296.697 C 323.719 291.62 325.381 285.223 327.724 277.508 C 333.29 260.029 339.417 245.234 346.108 233.123 C 352.796 221.015 359.292 210.883 365.59 202.727 C 371.889 194.574 377.503 187.126 382.436 180.388 C 387.366 173.65 389.833 168.23 389.833 164.128 C 389.834 157.39 387.733 152.556 383.535 149.626 Z"/>
</svg>