<?xml version="1.0" encoding="utf-8"?>
<svg id="Layer_1" style="enable-background:new 0 0 496.158 496.158;" x="0px" y="0px" width="500px" height="500px" viewBox="0 0 496.158 496.158" xmlns="http://www.w3.org/2000/svg">
  <path style="fill:#56B48C;" d="M248.082,0.003C111.07,0.003,0,111.061,0,248.085c0,137,111.07,248.07,248.082,248.07&#10;&#9;c137.006,0,248.076-111.07,248.076-248.07C496.158,111.061,385.088,0.003,248.082,0.003z"/>
  <path style="fill:#FFFFFF;" d="M 230.646 325.595 C 226.64 322.471 220.832 320.907 213.214 320.907 L 136.749 320.907 C 139.188 317.197 141.583 314.022 143.927 311.386 C 149.395 304.746 159.478 295.419 174.176 283.407 C 188.872 271.395 199.346 262.583 205.597 256.967 C 211.845 251.353 217.975 243.589 223.981 233.676 C 229.987 223.765 232.99 212.754 232.99 200.644 C 232.99 192.931 231.549 185.483 228.669 178.305 C 225.787 171.127 221.759 164.805 216.584 159.335 C 211.406 153.867 205.4 149.571 198.566 146.444 C 188.019 141.756 175.275 139.413 160.334 139.413 C 147.931 139.413 137.116 141.244 127.888 144.906 C 118.66 148.568 111.042 153.379 105.036 159.335 C 99.03 165.293 94.512 171.933 91.486 179.257 C 88.458 186.581 86.945 193.612 86.945 200.351 C 86.945 205.917 88.556 210.312 91.779 213.535 C 95.002 216.758 99.052 218.369 103.937 218.369 C 109.503 218.369 113.726 216.611 116.608 213.096 C 119.488 209.58 122.076 204.552 124.372 198.008 C 126.666 191.466 128.302 187.461 129.279 185.996 C 136.603 174.767 146.66 169.15 159.455 169.15 C 165.509 169.15 171.101 170.519 176.227 173.252 C 181.354 175.987 185.406 179.821 188.385 184.751 C 191.363 189.684 192.853 195.275 192.853 201.523 C 192.853 207.286 191.461 213.169 188.678 219.174 C 185.895 225.179 181.841 231.039 176.52 236.752 C 171.197 242.465 164.531 248.155 156.525 253.817 C 152.032 256.845 144.561 263.169 134.113 272.787 C 123.662 282.407 111.943 293.954 98.957 307.431 C 95.83 310.752 92.951 315.318 90.314 321.127 C 87.677 326.939 86.359 331.601 86.359 335.116 C 86.359 340.586 88.41 345.347 92.511 349.398 C 96.613 353.452 102.325 355.477 109.65 355.477 L 217.463 355.477 C 223.908 355.477 228.717 353.818 231.892 350.497 C 235.065 347.178 236.653 343.125 236.653 338.339 C 236.652 332.97 234.649 328.722 230.646 325.595 Z"/>
  <g/>
  <g/>
  <g/>
  <g/>
  <g/>
  <g/>
  <g/>
  <g/>
  <g/>
  <g/>
  <g/>
  <g/>
  <g/>
  <g/>
  <g/>
  <path style="fill:#FFFFFF;" d="M 418.294 326.86 C 414.288 323.736 408.48 322.172 400.862 322.172 L 324.397 322.172 C 326.836 318.462 329.231 315.287 331.575 312.651 C 337.043 306.011 347.126 296.684 361.824 284.672 C 376.52 272.66 386.994 263.848 393.245 258.232 C 399.493 252.618 405.623 244.854 411.629 234.941 C 417.635 225.03 420.638 214.019 420.638 201.909 C 420.638 194.196 419.197 186.748 416.317 179.57 C 413.435 172.392 409.407 166.07 404.232 160.6 C 399.054 155.132 393.048 150.836 386.214 147.709 C 375.667 143.021 362.923 140.678 347.982 140.678 C 335.579 140.678 324.764 142.509 315.536 146.171 C 306.308 149.833 298.69 154.644 292.684 160.6 C 286.678 166.558 282.16 173.198 279.134 180.522 C 276.106 187.846 274.593 194.877 274.593 201.616 C 274.593 207.182 276.204 211.577 279.427 214.8 C 282.65 218.023 286.7 219.634 291.585 219.634 C 297.151 219.634 301.374 217.876 304.256 214.361 C 307.136 210.845 309.724 205.817 312.02 199.273 C 314.314 192.731 315.95 188.726 316.927 187.261 C 324.251 176.032 334.308 170.415 347.103 170.415 C 353.157 170.415 358.749 171.784 363.875 174.517 C 369.002 177.252 373.054 181.086 376.033 186.016 C 379.011 190.949 380.501 196.54 380.501 202.788 C 380.501 208.551 379.109 214.434 376.326 220.439 C 373.543 226.444 369.489 232.304 364.168 238.017 C 358.845 243.73 352.179 249.42 344.173 255.082 C 339.68 258.11 332.209 264.434 321.761 274.052 C 311.31 283.672 299.591 295.219 286.605 308.696 C 283.478 312.017 280.599 316.583 277.962 322.392 C 275.325 328.204 274.007 332.866 274.007 336.381 C 274.007 341.851 276.058 346.612 280.159 350.663 C 284.261 354.717 289.973 356.742 297.298 356.742 L 405.111 356.742 C 411.556 356.742 416.365 355.083 419.54 351.762 C 422.713 348.443 424.301 344.39 424.301 339.604 C 424.3 334.235 422.297 329.987 418.294 326.86 Z"/>
</svg>