<?xml version="1.0" encoding="utf-8"?>
<svg id="Layer_1" style="enable-background:new 0 0 496.158 496.158;" x="0px" y="0px" width="500px" height="500px" viewBox="0 0 496.158 496.158" xmlns="http://www.w3.org/2000/svg">
  <path style="fill:#56B48C;" d="M248.082,0.003C111.07,0.003,0,111.061,0,248.085c0,137,111.07,248.07,248.082,248.07&#10;&#9;c137.006,0,248.076-111.07,248.076-248.07C496.158,111.061,385.088,0.003,248.082,0.003z"/>
  <path style="fill:#FFFFFF;" d="M 230.646 325.595 C 226.64 322.471 220.832 320.907 213.214 320.907 L 136.749 320.907 C 139.188 317.197 141.583 314.022 143.927 311.386 C 149.395 304.746 159.478 295.419 174.176 283.407 C 188.872 271.395 199.346 262.583 205.597 256.967 C 211.845 251.353 217.975 243.589 223.981 233.676 C 229.987 223.765 232.99 212.754 232.99 200.644 C 232.99 192.931 231.549 185.483 228.669 178.305 C 225.787 171.127 221.759 164.805 216.584 159.335 C 211.406 153.867 205.4 149.571 198.566 146.444 C 188.019 141.756 175.275 139.413 160.334 139.413 C 147.931 139.413 137.116 141.244 127.888 144.906 C 118.66 148.568 111.042 153.379 105.036 159.335 C 99.03 165.293 94.512 171.933 91.486 179.257 C 88.458 186.581 86.945 193.612 86.945 200.351 C 86.945 205.917 88.556 210.312 91.779 213.535 C 95.002 216.758 99.052 218.369 103.937 218.369 C 109.503 218.369 113.726 216.611 116.608 213.096 C 119.488 209.58 122.076 204.552 124.372 198.008 C 126.666 191.466 128.302 187.461 129.279 185.996 C 136.603 174.767 146.66 169.15 159.455 169.15 C 165.509 169.15 171.101 170.519 176.227 173.252 C 181.354 175.987 185.406 179.821 188.385 184.751 C 191.363 189.684 192.853 195.275 192.853 201.523 C 192.853 207.286 191.461 213.169 188.678 219.174 C 185.895 225.179 181.841 231.039 176.52 236.752 C 171.197 242.465 164.531 248.155 156.525 253.817 C 152.032 256.845 144.561 263.169 134.113 272.787 C 123.662 282.407 111.943 293.954 98.957 307.431 C 95.83 310.752 92.951 315.318 90.314 321.127 C 87.677 326.939 86.359 331.601 86.359 335.116 C 86.359 340.586 88.41 345.347 92.511 349.398 C 96.613 353.452 102.325 355.477 109.65 355.477 L 217.463 355.477 C 223.908 355.477 228.717 353.818 231.892 350.497 C 235.065 347.178 236.653 343.125 236.653 338.339 C 236.652 332.97 234.649 328.722 230.646 325.595 Z"/>
  <g/>
  <g/>
  <g/>
  <g/>
  <g/>
  <g/>
  <g/>
  <g/>
  <g/>
  <g/>
  <g/>
  <g/>
  <g/>
  <g/>
  <g/>
  <path style="fill:#FFFFFF;" d="M 410.092 269.001 C 407.455 262.606 403.524 256.77 398.3 251.496 C 393.074 246.223 386.654 241.535 379.037 237.433 C 386.947 230.793 393.026 223.982 397.274 216.998 C 401.522 210.017 403.646 201.643 403.646 191.876 C 403.646 184.456 402.181 177.521 399.251 171.075 C 396.321 164.629 391.975 158.967 386.214 154.083 C 380.45 149.201 373.664 145.466 365.853 142.877 C 358.039 140.291 349.396 138.995 339.925 138.995 C 329.085 138.995 319.271 140.533 310.482 143.609 C 301.693 146.685 294.343 150.764 288.436 155.84 C 282.527 160.919 278.036 166.266 274.959 171.88 C 271.883 177.497 270.345 182.843 270.345 187.92 C 270.345 193.193 271.98 197.419 275.252 200.591 C 278.523 203.766 282.111 205.352 286.019 205.352 C 289.337 205.352 292.267 204.766 294.808 203.594 C 297.346 202.422 299.104 200.811 300.081 198.76 C 301.74 194.951 303.571 190.9 305.574 186.602 C 307.575 182.306 309.698 178.79 311.946 176.055 C 314.191 173.322 317.243 171.125 321.101 169.463 C 324.957 167.804 329.865 166.973 335.823 166.973 C 344.612 166.973 351.593 169.683 356.77 175.103 C 361.945 180.523 364.534 186.994 364.534 194.512 C 364.534 204.377 361.286 211.944 354.793 217.217 C 348.298 222.49 340.559 225.127 331.575 225.127 L 325.569 225.127 C 318.633 225.127 313.411 226.569 309.895 229.448 C 306.379 232.33 304.622 236.113 304.622 240.801 C 304.622 245.587 306.087 249.322 309.017 252.007 C 311.947 254.694 316.096 256.035 321.468 256.035 C 322.64 256.035 325.277 255.841 329.378 255.449 C 333.48 255.06 336.505 254.863 338.46 254.863 C 349.593 254.863 358.283 258.111 364.534 264.604 C 370.782 271.1 373.909 280.058 373.909 291.484 C 373.909 299.2 372.078 305.986 368.416 311.845 C 364.754 317.704 360.114 322.124 354.5 325.102 C 348.884 328.082 343.049 329.57 336.995 329.57 C 326.448 329.57 318.268 326.274 312.459 319.682 C 306.647 313.09 301.202 303.008 296.126 289.433 C 295.343 287.188 293.684 285.258 291.146 283.647 C 288.605 282.036 285.968 281.23 283.236 281.23 C 277.765 281.23 273.202 282.965 269.54 286.43 C 265.878 289.898 264.047 294.464 264.047 300.126 C 264.047 304.521 265.585 310.087 268.661 316.825 C 271.737 323.563 276.278 330.082 282.284 336.381 C 288.29 342.68 295.93 347.93 305.209 352.128 C 314.485 356.326 324.984 358.427 336.703 358.427 C 348.224 358.427 358.749 356.596 368.27 352.934 C 377.791 349.272 386.017 344.195 392.953 337.7 C 399.886 331.207 405.135 323.809 408.7 315.508 C 412.263 307.209 414.047 298.614 414.047 289.727 C 414.047 282.308 412.729 275.399 410.092 269.001 Z"/>
</svg>