<?xml version="1.0" encoding="utf-8"?>
<svg id="Layer_1" style="enable-background:new 0 0 496.158 496.158;" x="0px" y="0px" width="500px" height="500px" viewBox="0 0 496.158 496.158" xmlns="http://www.w3.org/2000/svg">
  <path style="fill:#56B48C;" d="M248.082,0.003C111.07,0.003,0,111.061,0,248.085c0,137,111.07,248.07,248.082,248.07&#10;&#9;c137.006,0,248.076-111.07,248.076-248.07C496.158,111.061,385.088,0.003,248.082,0.003z"/>
  <path style="fill:#FFFFFF;" d="M 230.646 325.595 C 226.64 322.471 220.832 320.907 213.214 320.907 L 136.749 320.907 C 139.188 317.197 141.583 314.022 143.927 311.386 C 149.395 304.746 159.478 295.419 174.176 283.407 C 188.872 271.395 199.346 262.583 205.597 256.967 C 211.845 251.353 217.975 243.589 223.981 233.676 C 229.987 223.765 232.99 212.754 232.99 200.644 C 232.99 192.931 231.549 185.483 228.669 178.305 C 225.787 171.127 221.759 164.805 216.584 159.335 C 211.406 153.867 205.4 149.571 198.566 146.444 C 188.019 141.756 175.275 139.413 160.334 139.413 C 147.931 139.413 137.116 141.244 127.888 144.906 C 118.66 148.568 111.042 153.379 105.036 159.335 C 99.03 165.293 94.512 171.933 91.486 179.257 C 88.458 186.581 86.945 193.612 86.945 200.351 C 86.945 205.917 88.556 210.312 91.779 213.535 C 95.002 216.758 99.052 218.369 103.937 218.369 C 109.503 218.369 113.726 216.611 116.608 213.096 C 119.488 209.58 122.076 204.552 124.372 198.008 C 126.666 191.466 128.302 187.461 129.279 185.996 C 136.603 174.767 146.66 169.15 159.455 169.15 C 165.509 169.15 171.101 170.519 176.227 173.252 C 181.354 175.987 185.406 179.821 188.385 184.751 C 191.363 189.684 192.853 195.275 192.853 201.523 C 192.853 207.286 191.461 213.169 188.678 219.174 C 185.895 225.179 181.841 231.039 176.52 236.752 C 171.197 242.465 164.531 248.155 156.525 253.817 C 152.032 256.845 144.561 263.169 134.113 272.787 C 123.662 282.407 111.943 293.954 98.957 307.431 C 95.83 310.752 92.951 315.318 90.314 321.127 C 87.677 326.939 86.359 331.601 86.359 335.116 C 86.359 340.586 88.41 345.347 92.511 349.398 C 96.613 353.452 102.325 355.477 109.65 355.477 L 217.463 355.477 C 223.908 355.477 228.717 353.818 231.892 350.497 C 235.065 347.178 236.653 343.125 236.653 338.339 C 236.652 332.97 234.649 328.722 230.646 325.595 Z"/>
  <g/>
  <g/>
  <g/>
  <g/>
  <g/>
  <g/>
  <g/>
  <g/>
  <g/>
  <g/>
  <g/>
  <g/>
  <g/>
  <g/>
  <g/>
  <path style="fill:#FFFFFF;" d="M 411.777 273.741 C 407.236 271.69 401.205 270.665 393.686 270.665 L 387.387 270.665 L 387.387 157.286 C 387.387 140.294 379.964 131.798 365.121 131.798 C 360.53 131.798 356.6 133.336 353.329 136.412 C 350.056 139.488 345.881 144.446 340.805 151.28 L 263.168 255.137 C 261.019 257.97 259.213 260.363 257.748 262.315 C 256.283 264.27 254.866 266.295 253.5 268.394 C 252.131 270.495 251.106 272.496 250.424 274.4 C 249.739 276.304 249.399 278.186 249.399 280.04 C 249.399 287.268 251.717 292.981 256.357 297.179 C 260.994 301.379 267.952 303.478 277.231 303.478 L 350.766 303.478 L 350.766 330.724 C 350.766 338.048 352.451 343.592 355.82 347.35 C 359.189 351.108 363.607 352.99 369.077 352.99 C 374.643 352.99 379.086 351.159 382.407 347.497 C 385.726 343.835 387.387 338.246 387.387 330.725 L 387.387 303.479 L 396.323 303.479 C 403.743 303.479 409.31 302.186 413.022 299.597 C 416.732 297.011 418.588 292.884 418.588 287.219 C 418.588 280.285 416.318 275.792 411.777 273.741 Z M 350.766 270.665 L 287.778 270.665 L 350.766 185.558 L 350.766 270.665 Z"/>
</svg>