<?xml version="1.0" encoding="utf-8"?>
<svg id="Layer_1" style="enable-background:new 0 0 496.158 496.158;" x="0px" y="0px" width="500px" height="500px" viewBox="0 0 496.158 496.158" xmlns="http://www.w3.org/2000/svg">
  <path style="fill:#56B48C;" d="M248.082,0.003C111.07,0.003,0,111.061,0,248.085c0,137,111.07,248.07,248.082,248.07&#10;&#9;c137.006,0,248.076-111.07,248.076-248.07C496.158,111.061,385.088,0.003,248.082,0.003z"/>
  <path style="fill:#FFFFFF;" d="M 230.646 325.595 C 226.64 322.471 220.832 320.907 213.214 320.907 L 136.749 320.907 C 139.188 317.197 141.583 314.022 143.927 311.386 C 149.395 304.746 159.478 295.419 174.176 283.407 C 188.872 271.395 199.346 262.583 205.597 256.967 C 211.845 251.353 217.975 243.589 223.981 233.676 C 229.987 223.765 232.99 212.754 232.99 200.644 C 232.99 192.931 231.549 185.483 228.669 178.305 C 225.787 171.127 221.759 164.805 216.584 159.335 C 211.406 153.867 205.4 149.571 198.566 146.444 C 188.019 141.756 175.275 139.413 160.334 139.413 C 147.931 139.413 137.116 141.244 127.888 144.906 C 118.66 148.568 111.042 153.379 105.036 159.335 C 99.03 165.293 94.512 171.933 91.486 179.257 C 88.458 186.581 86.945 193.612 86.945 200.351 C 86.945 205.917 88.556 210.312 91.779 213.535 C 95.002 216.758 99.052 218.369 103.937 218.369 C 109.503 218.369 113.726 216.611 116.608 213.096 C 119.488 209.58 122.076 204.552 124.372 198.008 C 126.666 191.466 128.302 187.461 129.279 185.996 C 136.603 174.767 146.66 169.15 159.455 169.15 C 165.509 169.15 171.101 170.519 176.227 173.252 C 181.354 175.987 185.406 179.821 188.385 184.751 C 191.363 189.684 192.853 195.275 192.853 201.523 C 192.853 207.286 191.461 213.169 188.678 219.174 C 185.895 225.179 181.841 231.039 176.52 236.752 C 171.197 242.465 164.531 248.155 156.525 253.817 C 152.032 256.845 144.561 263.169 134.113 272.787 C 123.662 282.407 111.943 293.954 98.957 307.431 C 95.83 310.752 92.951 315.318 90.314 321.127 C 87.677 326.939 86.359 331.601 86.359 335.116 C 86.359 340.586 88.41 345.347 92.511 349.398 C 96.613 353.452 102.325 355.477 109.65 355.477 L 217.463 355.477 C 223.908 355.477 228.717 353.818 231.892 350.497 C 235.065 347.178 236.653 343.125 236.653 338.339 C 236.652 332.97 234.649 328.722 230.646 325.595 Z"/>
  <g/>
  <g/>
  <g/>
  <g/>
  <g/>
  <g/>
  <g/>
  <g/>
  <g/>
  <g/>
  <g/>
  <g/>
  <g/>
  <g/>
  <g/>
  <path style="fill:#FFFFFF;" d="M 401.631 258.087 C 398.115 249.591 393.281 242.244 387.129 236.041 C 380.977 229.841 373.822 224.981 365.669 221.466 C 357.514 217.95 348.75 216.193 339.375 216.193 C 327.656 216.193 314.862 219.905 300.996 227.326 L 309.346 179.865 L 378.926 179.865 C 386.152 179.865 391.62 178.304 395.332 175.177 C 399.042 172.053 400.898 167.951 400.898 162.872 C 400.898 151.252 393.281 145.44 378.046 145.44 L 300.702 145.44 C 292.302 145.44 286.248 147.344 282.538 151.153 C 278.826 154.962 276.287 161.066 274.921 169.464 L 262.617 239.63 C 261.541 245.782 261.006 249.104 261.006 249.591 C 261.006 253.986 262.86 257.918 266.572 261.383 C 270.282 264.851 274.53 266.583 279.316 266.583 C 283.711 266.583 289.3 264.02 296.088 258.893 C 302.874 253.766 308.074 250.177 311.689 248.126 C 315.301 246.075 321.307 245.05 329.707 245.05 C 336.541 245.05 342.744 246.687 348.311 249.957 C 353.877 253.23 358.32 258.186 361.641 264.825 C 364.96 271.467 366.621 279.473 366.621 288.848 C 366.621 297.541 365.083 305.305 362.007 312.139 C 358.931 318.976 354.559 324.347 348.897 328.252 C 343.232 332.159 336.64 334.111 329.122 334.111 C 320.919 334.111 313.496 331.694 306.856 326.86 C 300.214 322.026 294.94 315.265 291.036 306.572 C 287.031 297.101 280.929 292.363 272.725 292.363 C 267.939 292.363 263.959 294.073 260.787 297.49 C 257.612 300.909 256.026 304.521 256.026 308.33 C 256.026 314.581 258.297 321.88 262.838 330.229 C 267.379 338.578 275.092 345.976 285.983 352.421 C 296.871 358.866 311.055 362.089 328.537 362.089 C 344.161 362.089 357.955 358.67 369.919 351.835 C 381.88 345.001 391.036 335.772 397.385 324.149 C 403.732 312.529 406.906 299.638 406.906 285.477 C 406.904 275.716 405.146 266.583 401.631 258.087 Z"/>
</svg>