<?xml version="1.0" encoding="utf-8"?>
<svg id="Layer_1" style="enable-background:new 0 0 496.158 496.158;" x="0px" y="0px" width="500px" height="500px" viewBox="0 0 496.158 496.158" xmlns="http://www.w3.org/2000/svg">
  <path style="fill:#56B48C;" d="M248.082,0.003C111.07,0.003,0,111.061,0,248.085c0,137,111.07,248.07,248.082,248.07&#10;&#9;c137.006,0,248.076-111.07,248.076-248.07C496.158,111.061,385.088,0.003,248.082,0.003z"/>
  <path style="fill:#FFFFFF;" d="M 230.646 325.595 C 226.64 322.471 220.832 320.907 213.214 320.907 L 136.749 320.907 C 139.188 317.197 141.583 314.022 143.927 311.386 C 149.395 304.746 159.478 295.419 174.176 283.407 C 188.872 271.395 199.346 262.583 205.597 256.967 C 211.845 251.353 217.975 243.589 223.981 233.676 C 229.987 223.765 232.99 212.754 232.99 200.644 C 232.99 192.931 231.549 185.483 228.669 178.305 C 225.787 171.127 221.759 164.805 216.584 159.335 C 211.406 153.867 205.4 149.571 198.566 146.444 C 188.019 141.756 175.275 139.413 160.334 139.413 C 147.931 139.413 137.116 141.244 127.888 144.906 C 118.66 148.568 111.042 153.379 105.036 159.335 C 99.03 165.293 94.512 171.933 91.486 179.257 C 88.458 186.581 86.945 193.612 86.945 200.351 C 86.945 205.917 88.556 210.312 91.779 213.535 C 95.002 216.758 99.052 218.369 103.937 218.369 C 109.503 218.369 113.726 216.611 116.608 213.096 C 119.488 209.58 122.076 204.552 124.372 198.008 C 126.666 191.466 128.302 187.461 129.279 185.996 C 136.603 174.767 146.66 169.15 159.455 169.15 C 165.509 169.15 171.101 170.519 176.227 173.252 C 181.354 175.987 185.406 179.821 188.385 184.751 C 191.363 189.684 192.853 195.275 192.853 201.523 C 192.853 207.286 191.461 213.169 188.678 219.174 C 185.895 225.179 181.841 231.039 176.52 236.752 C 171.197 242.465 164.531 248.155 156.525 253.817 C 152.032 256.845 144.561 263.169 134.113 272.787 C 123.662 282.407 111.943 293.954 98.957 307.431 C 95.83 310.752 92.951 315.318 90.314 321.127 C 87.677 326.939 86.359 331.601 86.359 335.116 C 86.359 340.586 88.41 345.347 92.511 349.398 C 96.613 353.452 102.325 355.477 109.65 355.477 L 217.463 355.477 C 223.908 355.477 228.717 353.818 231.892 350.497 C 235.065 347.178 236.653 343.125 236.653 338.339 C 236.652 332.97 234.649 328.722 230.646 325.595 Z"/>
  <g/>
  <g/>
  <g/>
  <g/>
  <g/>
  <g/>
  <g/>
  <g/>
  <g/>
  <g/>
  <g/>
  <g/>
  <g/>
  <g/>
  <g/>
  <path style="fill:#FFFFFF;" d="M 410.898 256.821 C 407.675 248.131 403.109 240.587 397.202 234.189 C 391.292 227.794 384.408 222.862 376.547 219.394 C 368.685 215.929 360.116 214.194 350.84 214.194 C 341.172 214.194 332.431 216.098 324.619 219.907 C 316.805 223.716 309.578 229.575 302.939 237.485 C 304.207 210.923 308.406 192.466 315.536 182.114 C 319.052 177.037 323.374 173.009 328.5 170.029 C 333.628 167.051 338.778 165.561 343.955 165.561 C 350.4 165.561 356.063 167.344 360.947 170.908 C 365.828 174.474 369.393 179.184 371.64 185.044 C 373.299 189.635 375.888 193.224 379.404 195.811 C 382.919 198.4 386.728 199.693 390.83 199.693 C 395.518 199.693 399.374 198.059 402.401 194.786 C 405.427 191.515 406.943 187.878 406.943 183.873 C 406.943 177.233 404.526 170.3 399.692 163.072 C 394.858 155.846 387.68 149.792 378.159 144.908 C 368.638 140.026 357.625 137.584 345.127 137.584 C 332.138 137.584 320.565 140.026 310.409 144.908 C 300.252 149.792 291.609 157.018 284.482 166.588 C 277.352 176.16 271.884 188.22 268.076 202.77 C 264.267 217.322 262.363 233.825 262.363 252.282 C 262.363 274.939 265.512 294.103 271.811 309.777 C 278.109 325.451 287.215 337.293 299.13 345.299 C 311.043 353.308 325.203 357.311 341.609 357.311 C 355.867 357.311 368.635 354.162 379.916 347.863 C 391.195 341.564 399.984 332.8 406.283 321.569 C 412.582 310.34 415.731 297.839 415.731 284.069 C 415.732 274.596 414.121 265.514 410.898 256.821 Z M 366.953 316.367 C 360.508 324.424 352.352 328.452 342.49 328.452 C 332.137 328.452 323.543 324.057 316.708 315.268 C 309.872 306.479 306.454 295.493 306.454 282.309 C 306.454 274.106 308.14 266.954 311.509 260.849 C 314.878 254.747 319.32 250.082 324.839 246.86 C 330.354 243.637 336.141 242.026 342.197 242.026 C 348.544 242.026 354.354 243.711 359.629 247.08 C 364.903 250.449 369.052 255.333 372.08 261.728 C 375.106 268.125 376.621 275.768 376.621 284.653 C 376.621 297.74 373.398 308.31 366.953 316.367 Z"/>
</svg>