<?xml version="1.0" encoding="utf-8"?>
<svg id="Layer_1" style="enable-background:new 0 0 496.158 496.158;" x="0px" y="0px" width="500px" height="500px" viewBox="0 0 496.158 496.158" xmlns="http://www.w3.org/2000/svg">
  <path style="fill:#56B48C;" d="M248.082,0.003C111.07,0.003,0,111.061,0,248.085c0,137,111.07,248.07,248.082,248.07&#10;&#9;c137.006,0,248.076-111.07,248.076-248.07C496.158,111.061,385.088,0.003,248.082,0.003z"/>
  <path style="fill:#FFFFFF;" d="M 230.646 325.595 C 226.64 322.471 220.832 320.907 213.214 320.907 L 136.749 320.907 C 139.188 317.197 141.583 314.022 143.927 311.386 C 149.395 304.746 159.478 295.419 174.176 283.407 C 188.872 271.395 199.346 262.583 205.597 256.967 C 211.845 251.353 217.975 243.589 223.981 233.676 C 229.987 223.765 232.99 212.754 232.99 200.644 C 232.99 192.931 231.549 185.483 228.669 178.305 C 225.787 171.127 221.759 164.805 216.584 159.335 C 211.406 153.867 205.4 149.571 198.566 146.444 C 188.019 141.756 175.275 139.413 160.334 139.413 C 147.931 139.413 137.116 141.244 127.888 144.906 C 118.66 148.568 111.042 153.379 105.036 159.335 C 99.03 165.293 94.512 171.933 91.486 179.257 C 88.458 186.581 86.945 193.612 86.945 200.351 C 86.945 205.917 88.556 210.312 91.779 213.535 C 95.002 216.758 99.052 218.369 103.937 218.369 C 109.503 218.369 113.726 216.611 116.608 213.096 C 119.488 209.58 122.076 204.552 124.372 198.008 C 126.666 191.466 128.302 187.461 129.279 185.996 C 136.603 174.767 146.66 169.15 159.455 169.15 C 165.509 169.15 171.101 170.519 176.227 173.252 C 181.354 175.987 185.406 179.821 188.385 184.751 C 191.363 189.684 192.853 195.275 192.853 201.523 C 192.853 207.286 191.461 213.169 188.678 219.174 C 185.895 225.179 181.841 231.039 176.52 236.752 C 171.197 242.465 164.531 248.155 156.525 253.817 C 152.032 256.845 144.561 263.169 134.113 272.787 C 123.662 282.407 111.943 293.954 98.957 307.431 C 95.83 310.752 92.951 315.318 90.314 321.127 C 87.677 326.939 86.359 331.601 86.359 335.116 C 86.359 340.586 88.41 345.347 92.511 349.398 C 96.613 353.452 102.325 355.477 109.65 355.477 L 217.463 355.477 C 223.908 355.477 228.717 353.818 231.892 350.497 C 235.065 347.178 236.653 343.125 236.653 338.339 C 236.652 332.97 234.649 328.722 230.646 325.595 Z"/>
  <g/>
  <g/>
  <g/>
  <g/>
  <g/>
  <g/>
  <g/>
  <g/>
  <g/>
  <g/>
  <g/>
  <g/>
  <g/>
  <g/>
  <g/>
  <path style="fill:#FFFFFF;" d="M 409.616 144.926 C 405.416 141.996 398.63 140.531 389.255 140.531 L 291.696 140.531 C 283.98 140.531 277.974 141.509 273.678 143.461 C 269.38 145.416 267.233 149.76 267.233 156.498 C 267.233 162.847 269.258 167.51 273.312 170.487 C 277.363 173.467 283.493 174.955 291.696 174.955 L 370.065 174.955 C 357.76 190.581 347.14 206.28 338.205 222.05 C 329.269 237.822 321.822 253.203 315.866 268.193 C 309.908 283.185 305.612 296.05 302.975 306.792 C 300.338 317.536 299.02 326.032 299.02 332.28 C 299.02 340.387 300.826 346.514 304.44 350.664 C 308.052 354.813 312.837 356.89 318.795 356.89 C 325.044 356.89 330.049 354.96 333.81 351.104 C 337.568 347.248 340.475 340.337 342.526 330.376 C 343.405 326.08 344.43 319.879 345.602 311.772 C 346.774 303.668 347.847 297.076 348.825 291.997 C 349.8 286.92 351.462 280.523 353.805 272.808 C 359.371 255.329 365.498 240.534 372.189 228.423 C 378.877 216.315 385.373 206.183 391.671 198.027 C 397.97 189.874 403.584 182.426 408.517 175.688 C 413.447 168.95 415.914 163.53 415.914 159.428 C 415.915 152.69 413.814 147.856 409.616 144.926 Z"/>
</svg>