<?xml version="1.0" encoding="utf-8"?>
<svg id="Layer_1" style="enable-background:new 0 0 496.158 496.158;" x="0px" y="0px" width="500px" height="500px" viewBox="0 0 496.158 496.158" xmlns="http://www.w3.org/2000/svg">
  <path style="fill:#56B48C;" d="M248.082,0.003C111.07,0.003,0,111.061,0,248.085c0,137,111.07,248.07,248.082,248.07&#10;&#9;c137.006,0,248.076-111.07,248.076-248.07C496.158,111.061,385.088,0.003,248.082,0.003z"/>
  <path style="fill:#FFFFFF;" d="M 230.646 325.595 C 226.64 322.471 220.832 320.907 213.214 320.907 L 136.749 320.907 C 139.188 317.197 141.583 314.022 143.927 311.386 C 149.395 304.746 159.478 295.419 174.176 283.407 C 188.872 271.395 199.346 262.583 205.597 256.967 C 211.845 251.353 217.975 243.589 223.981 233.676 C 229.987 223.765 232.99 212.754 232.99 200.644 C 232.99 192.931 231.549 185.483 228.669 178.305 C 225.787 171.127 221.759 164.805 216.584 159.335 C 211.406 153.867 205.4 149.571 198.566 146.444 C 188.019 141.756 175.275 139.413 160.334 139.413 C 147.931 139.413 137.116 141.244 127.888 144.906 C 118.66 148.568 111.042 153.379 105.036 159.335 C 99.03 165.293 94.512 171.933 91.486 179.257 C 88.458 186.581 86.945 193.612 86.945 200.351 C 86.945 205.917 88.556 210.312 91.779 213.535 C 95.002 216.758 99.052 218.369 103.937 218.369 C 109.503 218.369 113.726 216.611 116.608 213.096 C 119.488 209.58 122.076 204.552 124.372 198.008 C 126.666 191.466 128.302 187.461 129.279 185.996 C 136.603 174.767 146.66 169.15 159.455 169.15 C 165.509 169.15 171.101 170.519 176.227 173.252 C 181.354 175.987 185.406 179.821 188.385 184.751 C 191.363 189.684 192.853 195.275 192.853 201.523 C 192.853 207.286 191.461 213.169 188.678 219.174 C 185.895 225.179 181.841 231.039 176.52 236.752 C 171.197 242.465 164.531 248.155 156.525 253.817 C 152.032 256.845 144.561 263.169 134.113 272.787 C 123.662 282.407 111.943 293.954 98.957 307.431 C 95.83 310.752 92.951 315.318 90.314 321.127 C 87.677 326.939 86.359 331.601 86.359 335.116 C 86.359 340.586 88.41 345.347 92.511 349.398 C 96.613 353.452 102.325 355.477 109.65 355.477 L 217.463 355.477 C 223.908 355.477 228.717 353.818 231.892 350.497 C 235.065 347.178 236.653 343.125 236.653 338.339 C 236.652 332.97 234.649 328.722 230.646 325.595 Z"/>
  <g/>
  <g/>
  <g/>
  <g/>
  <g/>
  <g/>
  <g/>
  <g/>
  <g/>
  <g/>
  <g/>
  <g/>
  <g/>
  <g/>
  <g/>
  <path style="fill:#FFFFFF;" d="M 411.043 273.96 C 408.26 267.075 404.133 261.022 398.665 255.796 C 393.195 250.573 386.31 246.348 378.011 243.125 C 387.775 238.341 395.124 232.189 400.057 224.668 C 404.987 217.149 407.454 208.605 407.454 199.033 C 407.454 191.514 406.037 184.41 403.206 177.72 C 400.373 171.032 396.028 165.026 390.169 159.702 C 384.31 154.381 376.985 150.206 368.196 147.178 C 359.407 144.152 349.201 142.637 337.581 142.637 C 323.811 142.637 311.774 145.226 301.473 150.401 C 291.169 155.578 283.357 162.486 278.035 171.129 C 272.711 179.772 270.052 188.977 270.052 198.741 C 270.052 218.956 280.061 233.751 300.081 243.126 C 275.275 252.893 262.874 270.91 262.874 297.179 C 262.874 309.484 265.804 320.594 271.663 330.504 C 277.522 340.417 286.213 348.206 297.737 353.868 C 309.259 359.531 323.127 362.364 339.339 362.364 C 354.963 362.364 368.537 359.531 380.062 353.868 C 391.584 348.205 400.325 340.368 406.283 330.357 C 412.239 320.348 415.219 309.19 415.219 296.885 C 415.218 288.487 413.826 280.845 411.043 273.96 Z M 316.268 179.184 C 321.882 173.471 329.28 170.615 338.46 170.615 C 344.514 170.615 349.886 171.933 354.573 174.57 C 359.26 177.207 362.897 180.821 365.486 185.41 C 368.072 190.001 369.368 195.177 369.368 200.937 C 369.368 205.235 368.636 209.166 367.171 212.729 C 365.706 216.295 363.63 219.371 360.945 221.958 C 358.258 224.547 355.035 226.572 351.277 228.037 C 347.516 229.502 343.341 230.234 338.753 230.234 C 329.671 230.234 322.248 227.476 316.487 221.958 C 310.724 216.442 307.844 209.532 307.844 201.23 C 307.845 192.247 310.651 184.897 316.268 179.184 Z M 370.394 315.928 C 367.268 321.787 362.971 326.328 357.503 329.551 C 352.033 332.774 345.88 334.385 339.046 334.385 C 332.308 334.385 326.203 332.799 320.735 329.624 C 315.265 326.452 310.943 321.959 307.771 316.147 C 304.596 310.338 303.01 303.623 303.01 296.005 C 303.01 284.092 306.379 274.815 313.117 268.173 C 319.855 261.533 328.205 258.212 338.166 258.212 C 345.197 258.212 351.544 259.727 357.209 262.753 C 362.872 265.781 367.266 270.128 370.393 275.79 C 373.517 281.455 375.081 288.095 375.081 295.712 C 375.081 303.329 373.518 310.068 370.394 315.928 Z"/>
</svg>