<?xml version="1.0" encoding="utf-8"?>
<svg id="Layer_1" style="enable-background:new 0 0 496.158 496.158;" x="0px" y="0px" width="500px" height="500px" viewBox="0 0 496.158 496.158" xmlns="http://www.w3.org/2000/svg">
  <path style="fill:#56B48C;" d="M248.082,0.003C111.07,0.003,0,111.061,0,248.085c0,137,111.07,248.07,248.082,248.07&#10;&#9;c137.006,0,248.076-111.07,248.076-248.07C496.158,111.061,385.088,0.003,248.082,0.003z"/>
  <path style="fill:#FFFFFF;" d="M 230.646 325.595 C 226.64 322.471 220.832 320.907 213.214 320.907 L 136.749 320.907 C 139.188 317.197 141.583 314.022 143.927 311.386 C 149.395 304.746 159.478 295.419 174.176 283.407 C 188.872 271.395 199.346 262.583 205.597 256.967 C 211.845 251.353 217.975 243.589 223.981 233.676 C 229.987 223.765 232.99 212.754 232.99 200.644 C 232.99 192.931 231.549 185.483 228.669 178.305 C 225.787 171.127 221.759 164.805 216.584 159.335 C 211.406 153.867 205.4 149.571 198.566 146.444 C 188.019 141.756 175.275 139.413 160.334 139.413 C 147.931 139.413 137.116 141.244 127.888 144.906 C 118.66 148.568 111.042 153.379 105.036 159.335 C 99.03 165.293 94.512 171.933 91.486 179.257 C 88.458 186.581 86.945 193.612 86.945 200.351 C 86.945 205.917 88.556 210.312 91.779 213.535 C 95.002 216.758 99.052 218.369 103.937 218.369 C 109.503 218.369 113.726 216.611 116.608 213.096 C 119.488 209.58 122.076 204.552 124.372 198.008 C 126.666 191.466 128.302 187.461 129.279 185.996 C 136.603 174.767 146.66 169.15 159.455 169.15 C 165.509 169.15 171.101 170.519 176.227 173.252 C 181.354 175.987 185.406 179.821 188.385 184.751 C 191.363 189.684 192.853 195.275 192.853 201.523 C 192.853 207.286 191.461 213.169 188.678 219.174 C 185.895 225.179 181.841 231.039 176.52 236.752 C 171.197 242.465 164.531 248.155 156.525 253.817 C 152.032 256.845 144.561 263.169 134.113 272.787 C 123.662 282.407 111.943 293.954 98.957 307.431 C 95.83 310.752 92.951 315.318 90.314 321.127 C 87.677 326.939 86.359 331.601 86.359 335.116 C 86.359 340.586 88.41 345.347 92.511 349.398 C 96.613 353.452 102.325 355.477 109.65 355.477 L 217.463 355.477 C 223.908 355.477 228.717 353.818 231.892 350.497 C 235.065 347.178 236.653 343.125 236.653 338.339 C 236.652 332.97 234.649 328.722 230.646 325.595 Z"/>
  <g/>
  <g/>
  <g/>
  <g/>
  <g/>
  <g/>
  <g/>
  <g/>
  <g/>
  <g/>
  <g/>
  <g/>
  <g/>
  <g/>
  <g/>
  <path style="fill:#FFFFFF;" d="M 418.273 195.455 C 414.659 182.175 409.483 171.164 402.746 162.423 C 396.008 153.684 387.706 147.019 377.843 142.428 C 367.98 137.839 356.749 135.543 344.153 135.543 C 333.215 135.543 323.228 137.399 314.197 141.109 C 305.163 144.821 297.375 149.997 290.833 156.636 C 284.289 163.278 279.261 171.115 275.745 180.147 C 272.229 189.181 270.472 198.728 270.472 208.785 C 270.472 218.16 272.034 227.121 275.16 235.665 C 278.284 244.211 282.752 251.682 288.563 258.077 C 294.372 264.474 301.256 269.455 309.217 273.018 C 317.175 276.584 325.744 278.365 334.925 278.365 C 344.593 278.365 353.404 276.438 361.364 272.579 C 369.322 268.723 376.525 262.984 382.971 255.367 C 381.603 281.833 377.405 300.29 370.373 310.738 C 366.857 315.915 362.608 319.919 357.629 322.75 C 352.649 325.583 347.374 326.998 341.809 326.998 C 335.558 326.998 329.944 325.217 324.963 321.651 C 319.983 318.088 316.417 313.375 314.27 307.515 C 312.512 302.731 309.923 299.142 306.506 296.748 C 303.087 294.356 299.23 293.159 294.934 293.159 C 290.246 293.159 286.388 294.77 283.362 297.993 C 280.334 301.216 278.821 304.878 278.821 308.979 C 278.821 315.621 281.261 322.529 286.145 329.707 C 291.027 336.885 298.157 342.891 307.532 347.725 C 316.907 352.559 327.941 354.976 340.637 354.976 C 353.528 354.976 365.05 352.607 375.207 347.872 C 385.362 343.137 394.077 335.911 401.353 326.192 C 408.627 316.476 414.171 304.464 417.98 290.157 C 421.789 275.852 423.692 259.322 423.692 240.572 C 423.692 223.776 421.885 208.737 418.273 195.455 Z M 374.4 231.929 C 370.933 237.985 366.44 242.599 360.924 245.772 C 355.405 248.947 349.619 250.533 343.566 250.533 C 333.702 250.533 325.548 246.677 319.103 238.961 C 312.658 231.248 309.435 220.896 309.435 207.906 C 309.435 194.821 312.658 184.299 319.103 176.339 C 325.548 168.381 333.409 164.401 342.687 164.401 C 348.056 164.401 353.014 165.573 357.555 167.917 C 362.096 170.261 365.999 173.483 369.274 177.585 C 372.545 181.687 375.082 186.546 376.89 192.16 C 378.697 197.777 379.601 203.904 379.601 210.544 C 379.601 218.746 377.866 225.875 374.4 231.929 Z"/>
</svg>