<?xml version="1.0" encoding="utf-8"?>
<svg id="Layer_1" style="enable-background:new 0 0 496.158 496.158;" x="0px" y="0px" width="500px" height="500px" viewBox="0 0 496.158 496.158" xmlns="http://www.w3.org/2000/svg">
  <path style="fill:#56B48C;" d="M248.082,0.003C111.07,0.003,0,111.061,0,248.085c0,137,111.07,248.07,248.082,248.07&#10;&#9;c137.006,0,248.076-111.07,248.076-248.07C496.158,111.061,385.088,0.003,248.082,0.003z"/>
  <path style="fill:#FFFFFF;" d="M 230.5 269.711 C 227.863 263.316 223.932 257.48 218.708 252.206 C 213.482 246.933 207.062 242.245 199.445 238.143 C 207.355 231.503 213.434 224.692 217.682 217.708 C 221.93 210.727 224.054 202.353 224.054 192.586 C 224.054 185.166 222.589 178.231 219.659 171.785 C 216.729 165.339 212.383 159.677 206.622 154.793 C 200.858 149.911 194.072 146.176 186.261 143.587 C 178.447 141.001 169.804 139.705 160.333 139.705 C 149.493 139.705 139.679 141.243 130.89 144.319 C 122.101 147.395 114.751 151.474 108.844 156.55 C 102.935 161.629 98.444 166.976 95.367 172.59 C 92.291 178.207 90.753 183.553 90.753 188.63 C 90.753 193.903 92.388 198.129 95.66 201.301 C 98.931 204.476 102.519 206.062 106.427 206.062 C 109.745 206.062 112.675 205.476 115.216 204.304 C 117.754 203.132 119.512 201.521 120.489 199.47 C 122.148 195.661 123.979 191.61 125.982 187.312 C 127.983 183.016 130.106 179.5 132.354 176.765 C 134.599 174.032 137.651 171.835 141.509 170.173 C 145.365 168.514 150.273 167.683 156.231 167.683 C 165.02 167.683 172.001 170.393 177.178 175.813 C 182.353 181.233 184.942 187.704 184.942 195.222 C 184.942 205.087 181.694 212.654 175.201 217.927 C 168.706 223.2 160.967 225.837 151.983 225.837 L 145.977 225.837 C 139.041 225.837 133.819 227.279 130.303 230.158 C 126.787 233.04 125.03 236.823 125.03 241.511 C 125.03 246.297 126.495 250.032 129.425 252.717 C 132.355 255.404 136.504 256.745 141.876 256.745 C 143.048 256.745 145.685 256.551 149.786 256.159 C 153.888 255.77 156.913 255.573 158.868 255.573 C 170.001 255.573 178.691 258.821 184.942 265.314 C 191.19 271.81 194.317 280.768 194.317 292.194 C 194.317 299.91 192.486 306.696 188.824 312.555 C 185.162 318.414 180.522 322.834 174.908 325.812 C 169.292 328.792 163.457 330.28 157.403 330.28 C 146.856 330.28 138.676 326.984 132.867 320.392 C 127.055 313.8 121.61 303.718 116.534 290.143 C 115.751 287.898 114.092 285.968 111.554 284.357 C 109.013 282.746 106.376 281.94 103.644 281.94 C 98.173 281.94 93.61 283.675 89.948 287.14 C 86.286 290.608 84.455 295.174 84.455 300.836 C 84.455 305.231 85.993 310.797 89.069 317.535 C 92.145 324.273 96.686 330.792 102.692 337.091 C 108.698 343.39 116.338 348.64 125.617 352.838 C 134.893 357.036 145.392 359.137 157.111 359.137 C 168.632 359.137 179.157 357.306 188.678 353.644 C 198.199 349.982 206.425 344.905 213.361 338.41 C 220.294 331.917 225.543 324.519 229.108 316.218 C 232.671 307.919 234.455 299.324 234.455 290.437 C 234.455 283.018 233.137 276.109 230.5 269.711 Z"/>
  <path style="fill:#FFFFFF;" d="M 408.753 326.224 C 404.747 323.1 398.939 321.536 391.321 321.536 L 314.856 321.536 C 317.295 317.826 319.69 314.651 322.034 312.015 C 327.502 305.375 337.585 296.048 352.283 284.036 C 366.979 272.024 377.453 263.212 383.704 257.596 C 389.952 251.982 396.082 244.218 402.088 234.305 C 408.094 224.394 411.097 213.383 411.097 201.273 C 411.097 193.56 409.656 186.112 406.776 178.934 C 403.894 171.756 399.866 165.434 394.691 159.964 C 389.513 154.496 383.507 150.2 376.673 147.073 C 366.126 142.385 353.382 140.042 338.441 140.042 C 326.038 140.042 315.223 141.873 305.995 145.535 C 296.767 149.197 289.149 154.008 283.143 159.964 C 277.137 165.922 272.619 172.562 269.593 179.886 C 266.565 187.21 265.052 194.241 265.052 200.98 C 265.052 206.546 266.663 210.941 269.886 214.164 C 273.109 217.387 277.159 218.998 282.044 218.998 C 287.61 218.998 291.833 217.24 294.715 213.725 C 297.595 210.209 300.183 205.181 302.479 198.637 C 304.773 192.095 306.409 188.09 307.386 186.625 C 314.71 175.396 324.767 169.779 337.562 169.779 C 343.616 169.779 349.208 171.148 354.334 173.881 C 359.461 176.616 363.513 180.45 366.492 185.38 C 369.47 190.313 370.96 195.904 370.96 202.152 C 370.96 207.915 369.568 213.798 366.785 219.803 C 364.002 225.808 359.948 231.668 354.627 237.381 C 349.304 243.094 342.638 248.784 334.632 254.446 C 330.139 257.474 322.668 263.798 312.22 273.416 C 301.769 283.036 290.05 294.583 277.064 308.06 C 273.937 311.381 271.058 315.947 268.421 321.756 C 265.784 327.568 264.466 332.23 264.466 335.745 C 264.466 341.215 266.517 345.976 270.618 350.027 C 274.72 354.081 280.432 356.106 287.757 356.106 L 395.57 356.106 C 402.015 356.106 406.824 354.447 409.999 351.126 C 413.172 347.807 414.76 343.754 414.76 338.968 C 414.759 333.599 412.756 329.351 408.753 326.224 Z"/>
</svg>