<?xml version="1.0" encoding="utf-8"?>
<svg id="Layer_1" style="enable-background:new 0 0 496.158 496.158;" x="0px" y="0px" width="500px" height="500px" viewBox="0 0 496.158 496.158" xmlns="http://www.w3.org/2000/svg">
  <path style="fill:#56B48C;" d="M248.082,0.003C111.07,0.003,0,111.061,0,248.085c0,137,111.07,248.07,248.082,248.07&#10;&#9;c137.006,0,248.076-111.07,248.076-248.07C496.158,111.061,385.088,0.003,248.082,0.003z"/>
  <path style="fill:#FFFFFF;" d="M 230.5 269.711 C 227.863 263.316 223.932 257.48 218.708 252.206 C 213.482 246.933 207.062 242.245 199.445 238.143 C 207.355 231.503 213.434 224.692 217.682 217.708 C 221.93 210.727 224.054 202.353 224.054 192.586 C 224.054 185.166 222.589 178.231 219.659 171.785 C 216.729 165.339 212.383 159.677 206.622 154.793 C 200.858 149.911 194.072 146.176 186.261 143.587 C 178.447 141.001 169.804 139.705 160.333 139.705 C 149.493 139.705 139.679 141.243 130.89 144.319 C 122.101 147.395 114.751 151.474 108.844 156.55 C 102.935 161.629 98.444 166.976 95.367 172.59 C 92.291 178.207 90.753 183.553 90.753 188.63 C 90.753 193.903 92.388 198.129 95.66 201.301 C 98.931 204.476 102.519 206.062 106.427 206.062 C 109.745 206.062 112.675 205.476 115.216 204.304 C 117.754 203.132 119.512 201.521 120.489 199.47 C 122.148 195.661 123.979 191.61 125.982 187.312 C 127.983 183.016 130.106 179.5 132.354 176.765 C 134.599 174.032 137.651 171.835 141.509 170.173 C 145.365 168.514 150.273 167.683 156.231 167.683 C 165.02 167.683 172.001 170.393 177.178 175.813 C 182.353 181.233 184.942 187.704 184.942 195.222 C 184.942 205.087 181.694 212.654 175.201 217.927 C 168.706 223.2 160.967 225.837 151.983 225.837 L 145.977 225.837 C 139.041 225.837 133.819 227.279 130.303 230.158 C 126.787 233.04 125.03 236.823 125.03 241.511 C 125.03 246.297 126.495 250.032 129.425 252.717 C 132.355 255.404 136.504 256.745 141.876 256.745 C 143.048 256.745 145.685 256.551 149.786 256.159 C 153.888 255.77 156.913 255.573 158.868 255.573 C 170.001 255.573 178.691 258.821 184.942 265.314 C 191.19 271.81 194.317 280.768 194.317 292.194 C 194.317 299.91 192.486 306.696 188.824 312.555 C 185.162 318.414 180.522 322.834 174.908 325.812 C 169.292 328.792 163.457 330.28 157.403 330.28 C 146.856 330.28 138.676 326.984 132.867 320.392 C 127.055 313.8 121.61 303.718 116.534 290.143 C 115.751 287.898 114.092 285.968 111.554 284.357 C 109.013 282.746 106.376 281.94 103.644 281.94 C 98.173 281.94 93.61 283.675 89.948 287.14 C 86.286 290.608 84.455 295.174 84.455 300.836 C 84.455 305.231 85.993 310.797 89.069 317.535 C 92.145 324.273 96.686 330.792 102.692 337.091 C 108.698 343.39 116.338 348.64 125.617 352.838 C 134.893 357.036 145.392 359.137 157.111 359.137 C 168.632 359.137 179.157 357.306 188.678 353.644 C 198.199 349.982 206.425 344.905 213.361 338.41 C 220.294 331.917 225.543 324.519 229.108 316.218 C 232.671 307.919 234.455 299.324 234.455 290.437 C 234.455 283.018 233.137 276.109 230.5 269.711 Z"/>
  <path style="fill:#FFFFFF;" d="M 404.935 269.794 C 402.298 263.399 398.367 257.563 393.143 252.289 C 387.917 247.016 381.497 242.328 373.88 238.226 C 381.79 231.586 387.869 224.775 392.117 217.791 C 396.365 210.81 398.489 202.436 398.489 192.669 C 398.489 185.249 397.024 178.314 394.094 171.868 C 391.164 165.422 386.818 159.76 381.057 154.876 C 375.293 149.994 368.507 146.259 360.696 143.67 C 352.882 141.084 344.239 139.788 334.768 139.788 C 323.928 139.788 314.114 141.326 305.325 144.402 C 296.536 147.478 289.186 151.557 283.279 156.633 C 277.37 161.712 272.879 167.059 269.802 172.673 C 266.726 178.29 265.188 183.636 265.188 188.713 C 265.188 193.986 266.823 198.212 270.095 201.384 C 273.366 204.559 276.954 206.145 280.862 206.145 C 284.18 206.145 287.11 205.559 289.651 204.387 C 292.189 203.215 293.947 201.604 294.924 199.553 C 296.583 195.744 298.414 191.693 300.417 187.395 C 302.418 183.099 304.541 179.583 306.789 176.848 C 309.034 174.115 312.086 171.918 315.944 170.256 C 319.8 168.597 324.708 167.766 330.666 167.766 C 339.455 167.766 346.436 170.476 351.613 175.896 C 356.788 181.316 359.377 187.787 359.377 195.305 C 359.377 205.17 356.129 212.737 349.636 218.01 C 343.141 223.283 335.402 225.92 326.418 225.92 L 320.412 225.92 C 313.476 225.92 308.254 227.362 304.738 230.241 C 301.222 233.123 299.465 236.906 299.465 241.594 C 299.465 246.38 300.93 250.115 303.86 252.8 C 306.79 255.487 310.939 256.828 316.311 256.828 C 317.483 256.828 320.12 256.634 324.221 256.242 C 328.323 255.853 331.348 255.656 333.303 255.656 C 344.436 255.656 353.126 258.904 359.377 265.397 C 365.625 271.893 368.752 280.851 368.752 292.277 C 368.752 299.993 366.921 306.779 363.259 312.638 C 359.597 318.497 354.957 322.917 349.343 325.895 C 343.727 328.875 337.892 330.363 331.838 330.363 C 321.291 330.363 313.111 327.067 307.302 320.475 C 301.49 313.883 296.045 303.801 290.969 290.226 C 290.186 287.981 288.527 286.051 285.989 284.44 C 283.448 282.829 280.811 282.023 278.079 282.023 C 272.608 282.023 268.045 283.758 264.383 287.223 C 260.721 290.691 258.89 295.257 258.89 300.919 C 258.89 305.314 260.428 310.88 263.504 317.618 C 266.58 324.356 271.121 330.875 277.127 337.174 C 283.133 343.473 290.773 348.723 300.052 352.921 C 309.328 357.119 319.827 359.22 331.546 359.22 C 343.067 359.22 353.592 357.389 363.113 353.727 C 372.634 350.065 380.86 344.988 387.796 338.493 C 394.729 332 399.978 324.602 403.543 316.301 C 407.106 308.002 408.89 299.407 408.89 290.52 C 408.89 283.101 407.572 276.192 404.935 269.794 Z"/>
</svg>