<?xml version="1.0" encoding="utf-8"?>
<svg id="Layer_1" style="enable-background:new 0 0 496.158 496.158;" x="0px" y="0px" width="500px" height="500px" viewBox="0 0 496.158 496.158" xmlns="http://www.w3.org/2000/svg">
  <path style="fill:#56B48C;" d="M248.082,0.003C111.07,0.003,0,111.061,0,248.085c0,137,111.07,248.07,248.082,248.07&#10;&#9;c137.006,0,248.076-111.07,248.076-248.07C496.158,111.061,385.088,0.003,248.082,0.003z"/>
  <path style="fill:#FFFFFF;" d="M 230.5 269.711 C 227.863 263.316 223.932 257.48 218.708 252.206 C 213.482 246.933 207.062 242.245 199.445 238.143 C 207.355 231.503 213.434 224.692 217.682 217.708 C 221.93 210.727 224.054 202.353 224.054 192.586 C 224.054 185.166 222.589 178.231 219.659 171.785 C 216.729 165.339 212.383 159.677 206.622 154.793 C 200.858 149.911 194.072 146.176 186.261 143.587 C 178.447 141.001 169.804 139.705 160.333 139.705 C 149.493 139.705 139.679 141.243 130.89 144.319 C 122.101 147.395 114.751 151.474 108.844 156.55 C 102.935 161.629 98.444 166.976 95.367 172.59 C 92.291 178.207 90.753 183.553 90.753 188.63 C 90.753 193.903 92.388 198.129 95.66 201.301 C 98.931 204.476 102.519 206.062 106.427 206.062 C 109.745 206.062 112.675 205.476 115.216 204.304 C 117.754 203.132 119.512 201.521 120.489 199.47 C 122.148 195.661 123.979 191.61 125.982 187.312 C 127.983 183.016 130.106 179.5 132.354 176.765 C 134.599 174.032 137.651 171.835 141.509 170.173 C 145.365 168.514 150.273 167.683 156.231 167.683 C 165.02 167.683 172.001 170.393 177.178 175.813 C 182.353 181.233 184.942 187.704 184.942 195.222 C 184.942 205.087 181.694 212.654 175.201 217.927 C 168.706 223.2 160.967 225.837 151.983 225.837 L 145.977 225.837 C 139.041 225.837 133.819 227.279 130.303 230.158 C 126.787 233.04 125.03 236.823 125.03 241.511 C 125.03 246.297 126.495 250.032 129.425 252.717 C 132.355 255.404 136.504 256.745 141.876 256.745 C 143.048 256.745 145.685 256.551 149.786 256.159 C 153.888 255.77 156.913 255.573 158.868 255.573 C 170.001 255.573 178.691 258.821 184.942 265.314 C 191.19 271.81 194.317 280.768 194.317 292.194 C 194.317 299.91 192.486 306.696 188.824 312.555 C 185.162 318.414 180.522 322.834 174.908 325.812 C 169.292 328.792 163.457 330.28 157.403 330.28 C 146.856 330.28 138.676 326.984 132.867 320.392 C 127.055 313.8 121.61 303.718 116.534 290.143 C 115.751 287.898 114.092 285.968 111.554 284.357 C 109.013 282.746 106.376 281.94 103.644 281.94 C 98.173 281.94 93.61 283.675 89.948 287.14 C 86.286 290.608 84.455 295.174 84.455 300.836 C 84.455 305.231 85.993 310.797 89.069 317.535 C 92.145 324.273 96.686 330.792 102.692 337.091 C 108.698 343.39 116.338 348.64 125.617 352.838 C 134.893 357.036 145.392 359.137 157.111 359.137 C 168.632 359.137 179.157 357.306 188.678 353.644 C 198.199 349.982 206.425 344.905 213.361 338.41 C 220.294 331.917 225.543 324.519 229.108 316.218 C 232.671 307.919 234.455 299.324 234.455 290.437 C 234.455 283.018 233.137 276.109 230.5 269.711 Z"/>
  <path style="fill:#FFFFFF;" d="M 402.624 253.827 C 399.108 245.331 394.274 237.984 388.122 231.781 C 381.97 225.581 374.815 220.721 366.662 217.206 C 358.507 213.69 349.743 211.933 340.368 211.933 C 328.649 211.933 315.855 215.645 301.989 223.066 L 310.339 175.605 L 379.919 175.605 C 387.145 175.605 392.613 174.044 396.325 170.917 C 400.035 167.793 401.891 163.691 401.891 158.612 C 401.891 146.992 394.274 141.18 379.039 141.18 L 301.695 141.18 C 293.295 141.18 287.241 143.084 283.531 146.893 C 279.819 150.702 277.28 156.806 275.914 165.204 L 263.61 235.37 C 262.534 241.522 261.999 244.844 261.999 245.331 C 261.999 249.726 263.853 253.658 267.565 257.123 C 271.275 260.591 275.523 262.323 280.309 262.323 C 284.704 262.323 290.293 259.76 297.081 254.633 C 303.867 249.506 309.067 245.917 312.682 243.866 C 316.294 241.815 322.3 240.79 330.7 240.79 C 337.534 240.79 343.737 242.427 349.304 245.697 C 354.87 248.97 359.313 253.926 362.634 260.565 C 365.953 267.207 367.614 275.213 367.614 284.588 C 367.614 293.281 366.076 301.045 363 307.879 C 359.924 314.716 355.552 320.087 349.89 323.992 C 344.225 327.899 337.633 329.851 330.115 329.851 C 321.912 329.851 314.489 327.434 307.849 322.6 C 301.207 317.766 295.933 311.005 292.029 302.312 C 288.024 292.841 281.922 288.103 273.718 288.103 C 268.932 288.103 264.952 289.813 261.78 293.23 C 258.605 296.649 257.019 300.261 257.019 304.07 C 257.019 310.321 259.29 317.62 263.831 325.969 C 268.372 334.318 276.085 341.716 286.976 348.161 C 297.864 354.606 312.048 357.829 329.53 357.829 C 345.154 357.829 358.948 354.41 370.912 347.575 C 382.873 340.741 392.029 331.512 398.378 319.889 C 404.725 308.269 407.899 295.378 407.899 281.217 C 407.897 271.456 406.139 262.323 402.624 253.827 Z"/>
</svg>