<?xml version="1.0" encoding="utf-8"?>
<svg id="Layer_1" style="enable-background:new 0 0 496.158 496.158;" x="0px" y="0px" width="500px" height="500px" viewBox="0 0 496.158 496.158" xmlns="http://www.w3.org/2000/svg">
  <path style="fill:#56B48C;" d="M248.082,0.003C111.07,0.003,0,111.061,0,248.085c0,137,111.07,248.07,248.082,248.07&#10;&#9;c137.006,0,248.076-111.07,248.076-248.07C496.158,111.061,385.088,0.003,248.082,0.003z"/>
  <path style="fill:#FFFFFF;" d="M 230.5 269.711 C 227.863 263.316 223.932 257.48 218.708 252.206 C 213.482 246.933 207.062 242.245 199.445 238.143 C 207.355 231.503 213.434 224.692 217.682 217.708 C 221.93 210.727 224.054 202.353 224.054 192.586 C 224.054 185.166 222.589 178.231 219.659 171.785 C 216.729 165.339 212.383 159.677 206.622 154.793 C 200.858 149.911 194.072 146.176 186.261 143.587 C 178.447 141.001 169.804 139.705 160.333 139.705 C 149.493 139.705 139.679 141.243 130.89 144.319 C 122.101 147.395 114.751 151.474 108.844 156.55 C 102.935 161.629 98.444 166.976 95.367 172.59 C 92.291 178.207 90.753 183.553 90.753 188.63 C 90.753 193.903 92.388 198.129 95.66 201.301 C 98.931 204.476 102.519 206.062 106.427 206.062 C 109.745 206.062 112.675 205.476 115.216 204.304 C 117.754 203.132 119.512 201.521 120.489 199.47 C 122.148 195.661 123.979 191.61 125.982 187.312 C 127.983 183.016 130.106 179.5 132.354 176.765 C 134.599 174.032 137.651 171.835 141.509 170.173 C 145.365 168.514 150.273 167.683 156.231 167.683 C 165.02 167.683 172.001 170.393 177.178 175.813 C 182.353 181.233 184.942 187.704 184.942 195.222 C 184.942 205.087 181.694 212.654 175.201 217.927 C 168.706 223.2 160.967 225.837 151.983 225.837 L 145.977 225.837 C 139.041 225.837 133.819 227.279 130.303 230.158 C 126.787 233.04 125.03 236.823 125.03 241.511 C 125.03 246.297 126.495 250.032 129.425 252.717 C 132.355 255.404 136.504 256.745 141.876 256.745 C 143.048 256.745 145.685 256.551 149.786 256.159 C 153.888 255.77 156.913 255.573 158.868 255.573 C 170.001 255.573 178.691 258.821 184.942 265.314 C 191.19 271.81 194.317 280.768 194.317 292.194 C 194.317 299.91 192.486 306.696 188.824 312.555 C 185.162 318.414 180.522 322.834 174.908 325.812 C 169.292 328.792 163.457 330.28 157.403 330.28 C 146.856 330.28 138.676 326.984 132.867 320.392 C 127.055 313.8 121.61 303.718 116.534 290.143 C 115.751 287.898 114.092 285.968 111.554 284.357 C 109.013 282.746 106.376 281.94 103.644 281.94 C 98.173 281.94 93.61 283.675 89.948 287.14 C 86.286 290.608 84.455 295.174 84.455 300.836 C 84.455 305.231 85.993 310.797 89.069 317.535 C 92.145 324.273 96.686 330.792 102.692 337.091 C 108.698 343.39 116.338 348.64 125.617 352.838 C 134.893 357.036 145.392 359.137 157.111 359.137 C 168.632 359.137 179.157 357.306 188.678 353.644 C 198.199 349.982 206.425 344.905 213.361 338.41 C 220.294 331.917 225.543 324.519 229.108 316.218 C 232.671 307.919 234.455 299.324 234.455 290.437 C 234.455 283.018 233.137 276.109 230.5 269.711 Z"/>
  <path style="fill:#FFFFFF;" d="M 407.924 258.688 C 404.701 249.998 400.135 242.454 394.228 236.056 C 388.318 229.661 381.434 224.729 373.574 221.261 C 365.712 217.796 357.142 216.061 347.866 216.061 C 338.198 216.061 329.457 217.965 321.645 221.774 C 313.831 225.583 306.605 231.442 299.965 239.352 C 301.233 212.79 305.433 194.333 312.563 183.981 C 316.079 178.904 320.4 174.876 325.527 171.896 C 330.654 168.918 335.804 167.428 340.981 167.428 C 347.426 167.428 353.089 169.211 357.973 172.775 C 362.855 176.341 366.419 181.051 368.666 186.911 C 370.325 191.502 372.914 195.091 376.43 197.678 C 379.946 200.267 383.754 201.56 387.856 201.56 C 392.544 201.56 396.4 199.926 399.428 196.653 C 402.454 193.382 403.969 189.745 403.969 185.74 C 403.969 179.1 401.552 172.167 396.718 164.939 C 391.884 157.713 384.706 151.659 375.185 146.775 C 365.664 141.893 354.652 139.451 342.153 139.451 C 329.164 139.451 317.591 141.893 307.436 146.775 C 297.278 151.659 288.636 158.885 281.508 168.455 C 274.378 178.027 268.91 190.087 265.102 204.637 C 261.293 219.189 259.389 235.692 259.389 254.149 C 259.389 276.806 262.538 295.97 268.837 311.644 C 275.136 327.318 284.241 339.16 296.156 347.166 C 308.069 355.175 322.23 359.178 338.636 359.178 C 352.893 359.178 365.662 356.029 376.942 349.73 C 388.222 343.431 397.01 334.667 403.309 323.436 C 409.608 312.207 412.757 299.706 412.757 285.936 C 412.758 276.463 411.147 267.381 407.924 258.688 Z M 363.979 318.234 C 357.534 326.291 349.378 330.319 339.516 330.319 C 329.163 330.319 320.569 325.924 313.735 317.135 C 306.898 308.346 303.481 297.36 303.481 284.176 C 303.481 275.973 305.166 268.821 308.535 262.716 C 311.904 256.614 316.347 251.949 321.865 248.727 C 327.381 245.504 333.167 243.893 339.223 243.893 C 345.57 243.893 351.381 245.578 356.655 248.947 C 361.929 252.316 366.078 257.2 369.106 263.595 C 372.132 269.992 373.647 277.635 373.647 286.52 C 373.647 299.607 370.424 310.177 363.979 318.234 Z"/>
</svg>