<?xml version="1.0" encoding="utf-8"?>
<svg id="Layer_1" style="enable-background:new 0 0 496.158 496.158;" x="0px" y="0px" width="500px" height="500px" viewBox="0 0 496.158 496.158" xmlns="http://www.w3.org/2000/svg">
  <path style="fill:#56B48C;" d="M248.082,0.003C111.07,0.003,0,111.061,0,248.085c0,137,111.07,248.07,248.082,248.07&#10;&#9;c137.006,0,248.076-111.07,248.076-248.07C496.158,111.061,385.088,0.003,248.082,0.003z"/>
  <path style="fill:#FFFFFF;" d="M 230.5 269.711 C 227.863 263.316 223.932 257.48 218.708 252.206 C 213.482 246.933 207.062 242.245 199.445 238.143 C 207.355 231.503 213.434 224.692 217.682 217.708 C 221.93 210.727 224.054 202.353 224.054 192.586 C 224.054 185.166 222.589 178.231 219.659 171.785 C 216.729 165.339 212.383 159.677 206.622 154.793 C 200.858 149.911 194.072 146.176 186.261 143.587 C 178.447 141.001 169.804 139.705 160.333 139.705 C 149.493 139.705 139.679 141.243 130.89 144.319 C 122.101 147.395 114.751 151.474 108.844 156.55 C 102.935 161.629 98.444 166.976 95.367 172.59 C 92.291 178.207 90.753 183.553 90.753 188.63 C 90.753 193.903 92.388 198.129 95.66 201.301 C 98.931 204.476 102.519 206.062 106.427 206.062 C 109.745 206.062 112.675 205.476 115.216 204.304 C 117.754 203.132 119.512 201.521 120.489 199.47 C 122.148 195.661 123.979 191.61 125.982 187.312 C 127.983 183.016 130.106 179.5 132.354 176.765 C 134.599 174.032 137.651 171.835 141.509 170.173 C 145.365 168.514 150.273 167.683 156.231 167.683 C 165.02 167.683 172.001 170.393 177.178 175.813 C 182.353 181.233 184.942 187.704 184.942 195.222 C 184.942 205.087 181.694 212.654 175.201 217.927 C 168.706 223.2 160.967 225.837 151.983 225.837 L 145.977 225.837 C 139.041 225.837 133.819 227.279 130.303 230.158 C 126.787 233.04 125.03 236.823 125.03 241.511 C 125.03 246.297 126.495 250.032 129.425 252.717 C 132.355 255.404 136.504 256.745 141.876 256.745 C 143.048 256.745 145.685 256.551 149.786 256.159 C 153.888 255.77 156.913 255.573 158.868 255.573 C 170.001 255.573 178.691 258.821 184.942 265.314 C 191.19 271.81 194.317 280.768 194.317 292.194 C 194.317 299.91 192.486 306.696 188.824 312.555 C 185.162 318.414 180.522 322.834 174.908 325.812 C 169.292 328.792 163.457 330.28 157.403 330.28 C 146.856 330.28 138.676 326.984 132.867 320.392 C 127.055 313.8 121.61 303.718 116.534 290.143 C 115.751 287.898 114.092 285.968 111.554 284.357 C 109.013 282.746 106.376 281.94 103.644 281.94 C 98.173 281.94 93.61 283.675 89.948 287.14 C 86.286 290.608 84.455 295.174 84.455 300.836 C 84.455 305.231 85.993 310.797 89.069 317.535 C 92.145 324.273 96.686 330.792 102.692 337.091 C 108.698 343.39 116.338 348.64 125.617 352.838 C 134.893 357.036 145.392 359.137 157.111 359.137 C 168.632 359.137 179.157 357.306 188.678 353.644 C 198.199 349.982 206.425 344.905 213.361 338.41 C 220.294 331.917 225.543 324.519 229.108 316.218 C 232.671 307.919 234.455 299.324 234.455 290.437 C 234.455 283.018 233.137 276.109 230.5 269.711 Z"/>
  <path style="fill:#FFFFFF;" d="M 413.881 271.934 C 411.098 265.049 406.971 258.996 401.503 253.77 C 396.033 248.547 389.148 244.322 380.849 241.099 C 390.613 236.315 397.962 230.163 402.895 222.642 C 407.825 215.123 410.292 206.579 410.292 197.007 C 410.292 189.488 408.875 182.384 406.044 175.694 C 403.211 169.006 398.866 163 393.007 157.676 C 387.148 152.355 379.823 148.18 371.034 145.152 C 362.245 142.126 352.039 140.611 340.419 140.611 C 326.649 140.611 314.612 143.2 304.311 148.375 C 294.007 153.552 286.195 160.46 280.873 169.103 C 275.549 177.746 272.89 186.951 272.89 196.715 C 272.89 216.93 282.899 231.725 302.919 241.1 C 278.113 250.867 265.712 268.884 265.712 295.153 C 265.712 307.458 268.642 318.568 274.501 328.478 C 280.36 338.391 289.051 346.18 300.575 351.842 C 312.097 357.505 325.965 360.338 342.177 360.338 C 357.801 360.338 371.375 357.505 382.9 351.842 C 394.422 346.179 403.163 338.342 409.121 328.331 C 415.077 318.322 418.057 307.164 418.057 294.859 C 418.056 286.461 416.664 278.819 413.881 271.934 Z M 319.106 177.158 C 324.72 171.445 332.118 168.589 341.298 168.589 C 347.352 168.589 352.724 169.907 357.411 172.544 C 362.098 175.181 365.735 178.795 368.324 183.384 C 370.91 187.975 372.206 193.151 372.206 198.911 C 372.206 203.209 371.474 207.14 370.009 210.703 C 368.544 214.269 366.468 217.345 363.783 219.932 C 361.096 222.521 357.873 224.546 354.115 226.011 C 350.354 227.476 346.179 228.208 341.591 228.208 C 332.509 228.208 325.086 225.45 319.325 219.932 C 313.562 214.416 310.682 207.506 310.682 199.204 C 310.683 190.221 313.489 182.871 319.106 177.158 Z M 373.232 313.902 C 370.106 319.761 365.809 324.302 360.341 327.525 C 354.871 330.748 348.718 332.359 341.884 332.359 C 335.146 332.359 329.041 330.773 323.573 327.598 C 318.103 324.426 313.781 319.933 310.609 314.121 C 307.434 308.312 305.848 301.597 305.848 293.979 C 305.848 282.066 309.217 272.789 315.955 266.147 C 322.693 259.507 331.043 256.186 341.004 256.186 C 348.035 256.186 354.382 257.701 360.047 260.727 C 365.71 263.755 370.104 268.102 373.231 273.764 C 376.355 279.429 377.919 286.069 377.919 293.686 C 377.919 301.303 376.356 308.042 373.232 313.902 Z"/>
</svg>