<?xml version="1.0" encoding="utf-8"?>
<svg id="Layer_1" style="enable-background:new 0 0 496.158 496.158;" x="0px" y="0px" width="500px" height="500px" viewBox="0 0 496.158 496.158" xmlns="http://www.w3.org/2000/svg">
  <path style="fill:#56B48C;" d="M248.082,0.003C111.07,0.003,0,111.061,0,248.085c0,137,111.07,248.07,248.082,248.07&#10;&#9;c137.006,0,248.076-111.07,248.076-248.07C496.158,111.061,385.088,0.003,248.082,0.003z"/>
  <path style="fill:#FFFFFF;" d="M 230.5 269.711 C 227.863 263.316 223.932 257.48 218.708 252.206 C 213.482 246.933 207.062 242.245 199.445 238.143 C 207.355 231.503 213.434 224.692 217.682 217.708 C 221.93 210.727 224.054 202.353 224.054 192.586 C 224.054 185.166 222.589 178.231 219.659 171.785 C 216.729 165.339 212.383 159.677 206.622 154.793 C 200.858 149.911 194.072 146.176 186.261 143.587 C 178.447 141.001 169.804 139.705 160.333 139.705 C 149.493 139.705 139.679 141.243 130.89 144.319 C 122.101 147.395 114.751 151.474 108.844 156.55 C 102.935 161.629 98.444 166.976 95.367 172.59 C 92.291 178.207 90.753 183.553 90.753 188.63 C 90.753 193.903 92.388 198.129 95.66 201.301 C 98.931 204.476 102.519 206.062 106.427 206.062 C 109.745 206.062 112.675 205.476 115.216 204.304 C 117.754 203.132 119.512 201.521 120.489 199.47 C 122.148 195.661 123.979 191.61 125.982 187.312 C 127.983 183.016 130.106 179.5 132.354 176.765 C 134.599 174.032 137.651 171.835 141.509 170.173 C 145.365 168.514 150.273 167.683 156.231 167.683 C 165.02 167.683 172.001 170.393 177.178 175.813 C 182.353 181.233 184.942 187.704 184.942 195.222 C 184.942 205.087 181.694 212.654 175.201 217.927 C 168.706 223.2 160.967 225.837 151.983 225.837 L 145.977 225.837 C 139.041 225.837 133.819 227.279 130.303 230.158 C 126.787 233.04 125.03 236.823 125.03 241.511 C 125.03 246.297 126.495 250.032 129.425 252.717 C 132.355 255.404 136.504 256.745 141.876 256.745 C 143.048 256.745 145.685 256.551 149.786 256.159 C 153.888 255.77 156.913 255.573 158.868 255.573 C 170.001 255.573 178.691 258.821 184.942 265.314 C 191.19 271.81 194.317 280.768 194.317 292.194 C 194.317 299.91 192.486 306.696 188.824 312.555 C 185.162 318.414 180.522 322.834 174.908 325.812 C 169.292 328.792 163.457 330.28 157.403 330.28 C 146.856 330.28 138.676 326.984 132.867 320.392 C 127.055 313.8 121.61 303.718 116.534 290.143 C 115.751 287.898 114.092 285.968 111.554 284.357 C 109.013 282.746 106.376 281.94 103.644 281.94 C 98.173 281.94 93.61 283.675 89.948 287.14 C 86.286 290.608 84.455 295.174 84.455 300.836 C 84.455 305.231 85.993 310.797 89.069 317.535 C 92.145 324.273 96.686 330.792 102.692 337.091 C 108.698 343.39 116.338 348.64 125.617 352.838 C 134.893 357.036 145.392 359.137 157.111 359.137 C 168.632 359.137 179.157 357.306 188.678 353.644 C 198.199 349.982 206.425 344.905 213.361 338.41 C 220.294 331.917 225.543 324.519 229.108 316.218 C 232.671 307.919 234.455 299.324 234.455 290.437 C 234.455 283.018 233.137 276.109 230.5 269.711 Z"/>
  <path style="fill:#FFFFFF;" d="M 412.064 200.012 C 408.45 186.732 403.275 175.721 396.537 166.98 C 389.799 158.241 381.497 151.576 371.635 146.985 C 361.771 142.396 350.541 140.1 337.944 140.1 C 327.006 140.1 317.019 141.956 307.988 145.666 C 298.954 149.378 291.166 154.554 284.624 161.193 C 278.08 167.835 273.052 175.672 269.536 184.704 C 266.02 193.738 264.263 203.285 264.263 213.342 C 264.263 222.717 265.825 231.678 268.951 240.222 C 272.075 248.768 276.543 256.239 282.354 262.634 C 288.163 269.031 295.047 274.012 303.008 277.575 C 310.966 281.141 319.535 282.922 328.716 282.922 C 338.384 282.922 347.195 280.995 355.156 277.136 C 363.114 273.28 370.317 267.541 376.762 259.924 C 375.394 286.39 371.196 304.847 364.164 315.295 C 360.648 320.472 356.4 324.476 351.42 327.307 C 346.44 330.14 341.166 331.555 335.6 331.555 C 329.349 331.555 323.735 329.774 318.754 326.208 C 313.774 322.645 310.208 317.932 308.061 312.072 C 306.303 307.288 303.714 303.699 300.297 301.305 C 296.878 298.913 293.021 297.716 288.725 297.716 C 284.037 297.716 280.179 299.327 277.153 302.55 C 274.125 305.773 272.612 309.435 272.612 313.536 C 272.612 320.178 275.052 327.086 279.936 334.264 C 284.818 341.442 291.948 347.448 301.323 352.282 C 310.698 357.116 321.732 359.533 334.428 359.533 C 347.319 359.533 358.841 357.164 368.998 352.429 C 379.153 347.694 387.869 340.468 395.145 330.749 C 402.418 321.033 407.962 309.021 411.771 294.714 C 415.58 280.409 417.484 263.879 417.484 245.129 C 417.484 228.333 415.676 213.294 412.064 200.012 Z M 368.192 236.486 C 364.724 242.542 360.231 247.156 354.715 250.329 C 349.196 253.504 343.41 255.09 337.357 255.09 C 327.493 255.09 319.339 251.234 312.894 243.518 C 306.449 235.805 303.226 225.453 303.226 212.463 C 303.226 199.378 306.449 188.856 312.894 180.896 C 319.339 172.938 327.2 168.958 336.478 168.958 C 341.848 168.958 346.805 170.13 351.346 172.474 C 355.887 174.818 359.791 178.04 363.065 182.142 C 366.336 186.244 368.874 191.103 370.682 196.717 C 372.488 202.334 373.392 208.461 373.392 215.101 C 373.392 223.303 371.657 230.432 368.192 236.486 Z"/>
</svg>