<?xml version="1.0" encoding="utf-8"?>
<svg id="Layer_1" style="enable-background:new 0 0 496.158 496.158;" x="0px" y="0px" width="500px" height="500px" viewBox="0 0 496.158 496.158" xmlns="http://www.w3.org/2000/svg">
  <path style="fill:#56B48C;" d="M248.082,0.003C111.07,0.003,0,111.061,0,248.085c0,137,111.07,248.07,248.082,248.07&#10;&#9;c137.006,0,248.076-111.07,248.076-248.07C496.158,111.061,385.088,0.003,248.082,0.003z"/>
  <path style="fill:#FFFFFF;" d="M 235.848 279.892 C 231.307 277.841 225.276 276.816 217.757 276.816 L 211.458 276.816 L 211.458 163.437 C 211.458 146.445 204.035 137.949 189.192 137.949 C 184.601 137.949 180.671 139.487 177.4 142.563 C 174.127 145.639 169.952 150.597 164.876 157.431 L 87.239 261.288 C 85.09 264.121 83.284 266.514 81.819 268.466 C 80.354 270.421 78.937 272.446 77.571 274.545 C 76.202 276.646 75.177 278.647 74.495 280.551 C 73.81 282.455 73.47 284.337 73.47 286.191 C 73.47 293.419 75.788 299.132 80.428 303.33 C 85.065 307.53 92.023 309.629 101.302 309.629 L 174.837 309.629 L 174.837 336.875 C 174.837 344.199 176.522 349.743 179.891 353.501 C 183.26 357.259 187.678 359.141 193.148 359.141 C 198.714 359.141 203.157 357.31 206.478 353.648 C 209.797 349.986 211.458 344.397 211.458 336.876 L 211.458 309.63 L 220.394 309.63 C 227.814 309.63 233.381 308.337 237.093 305.748 C 240.803 303.162 242.659 299.035 242.659 293.37 C 242.659 286.436 240.389 281.943 235.848 279.892 Z M 174.837 276.816 L 111.849 276.816 L 174.837 191.709 L 174.837 276.816 Z"/>
  <g/>
  <g/>
  <g/>
  <g/>
  <g/>
  <g/>
  <g/>
  <g/>
  <g/>
  <g/>
  <g/>
  <g/>
  <g/>
  <g/>
  <g/>
  <path style="fill:#FFFFFF;" d="M 373.26 144.743 C 370.133 140.74 365.984 138.737 360.809 138.737 C 356.217 138.737 353.093 139.616 351.434 141.374 C 349.772 143.132 346.208 147.819 340.741 155.437 C 335.27 163.054 328.997 169.939 321.918 176.091 C 314.837 182.243 305.388 188.103 293.573 193.669 C 285.663 197.381 280.144 200.407 277.02 202.751 C 273.893 205.095 272.332 208.757 272.332 213.737 C 272.332 218.035 273.918 221.819 277.093 225.09 C 280.266 228.363 283.905 229.997 288.006 229.997 C 296.598 229.997 313.297 220.476 338.104 201.433 L 338.104 334.734 C 338.104 342.548 339.91 348.456 343.524 352.459 C 347.135 356.462 351.921 358.465 357.879 358.465 C 371.257 358.465 377.947 348.651 377.947 329.022 L 377.947 161.296 C 377.947 154.265 376.384 148.749 373.26 144.743 Z"/>
</svg>