<?xml version="1.0" encoding="utf-8"?>
<svg id="Layer_1" style="enable-background:new 0 0 496.158 496.158;" x="0px" y="0px" width="500px" height="500px" viewBox="0 0 496.158 496.158" xmlns="http://www.w3.org/2000/svg">
  <path style="fill:#56B48C;" d="M248.082,0.003C111.07,0.003,0,111.061,0,248.085c0,137,111.07,248.07,248.082,248.07&#10;&#9;c137.006,0,248.076-111.07,248.076-248.07C496.158,111.061,385.088,0.003,248.082,0.003z"/>
  <path style="fill:#FFFFFF;" d="M 235.848 279.892 C 231.307 277.841 225.276 276.816 217.757 276.816 L 211.458 276.816 L 211.458 163.437 C 211.458 146.445 204.035 137.949 189.192 137.949 C 184.601 137.949 180.671 139.487 177.4 142.563 C 174.127 145.639 169.952 150.597 164.876 157.431 L 87.239 261.288 C 85.09 264.121 83.284 266.514 81.819 268.466 C 80.354 270.421 78.937 272.446 77.571 274.545 C 76.202 276.646 75.177 278.647 74.495 280.551 C 73.81 282.455 73.47 284.337 73.47 286.191 C 73.47 293.419 75.788 299.132 80.428 303.33 C 85.065 307.53 92.023 309.629 101.302 309.629 L 174.837 309.629 L 174.837 336.875 C 174.837 344.199 176.522 349.743 179.891 353.501 C 183.26 357.259 187.678 359.141 193.148 359.141 C 198.714 359.141 203.157 357.31 206.478 353.648 C 209.797 349.986 211.458 344.397 211.458 336.876 L 211.458 309.63 L 220.394 309.63 C 227.814 309.63 233.381 308.337 237.093 305.748 C 240.803 303.162 242.659 299.035 242.659 293.37 C 242.659 286.436 240.389 281.943 235.848 279.892 Z M 174.837 276.816 L 111.849 276.816 L 174.837 191.709 L 174.837 276.816 Z"/>
  <g/>
  <g/>
  <g/>
  <g/>
  <g/>
  <g/>
  <g/>
  <g/>
  <g/>
  <g/>
  <g/>
  <g/>
  <g/>
  <g/>
  <g/>
  <path style="fill:#FFFFFF;" d="M 410.343 325.291 C 406.337 322.167 400.529 320.603 392.911 320.603 L 316.446 320.603 C 318.885 316.893 321.28 313.718 323.624 311.082 C 329.092 304.442 339.175 295.115 353.873 283.103 C 368.569 271.091 379.043 262.279 385.294 256.663 C 391.542 251.049 397.672 243.285 403.678 233.372 C 409.684 223.461 412.687 212.45 412.687 200.34 C 412.687 192.627 411.246 185.179 408.366 178.001 C 405.484 170.823 401.456 164.501 396.281 159.031 C 391.103 153.563 385.097 149.267 378.263 146.14 C 367.716 141.452 354.972 139.109 340.031 139.109 C 327.628 139.109 316.813 140.94 307.585 144.602 C 298.357 148.264 290.739 153.075 284.733 159.031 C 278.727 164.989 274.209 171.629 271.183 178.953 C 268.155 186.277 266.642 193.308 266.642 200.047 C 266.642 205.613 268.253 210.008 271.476 213.231 C 274.699 216.454 278.749 218.065 283.634 218.065 C 289.2 218.065 293.423 216.307 296.305 212.792 C 299.185 209.276 301.773 204.248 304.069 197.704 C 306.363 191.162 307.999 187.157 308.976 185.692 C 316.3 174.463 326.357 168.846 339.152 168.846 C 345.206 168.846 350.798 170.215 355.924 172.948 C 361.051 175.683 365.103 179.517 368.082 184.447 C 371.06 189.38 372.55 194.971 372.55 201.219 C 372.55 206.982 371.158 212.865 368.375 218.87 C 365.592 224.875 361.538 230.735 356.217 236.448 C 350.894 242.161 344.228 247.851 336.222 253.513 C 331.729 256.541 324.258 262.865 313.81 272.483 C 303.359 282.103 291.64 293.65 278.654 307.127 C 275.527 310.448 272.648 315.014 270.011 320.823 C 267.374 326.635 266.056 331.297 266.056 334.812 C 266.056 340.282 268.107 345.043 272.208 349.094 C 276.31 353.148 282.022 355.173 289.347 355.173 L 397.16 355.173 C 403.605 355.173 408.414 353.514 411.589 350.193 C 414.762 346.874 416.35 342.821 416.35 338.035 C 416.349 332.666 414.346 328.418 410.343 325.291 Z"/>
</svg>