<?xml version="1.0" encoding="utf-8"?>
<svg id="Layer_1" style="enable-background:new 0 0 496.158 496.158;" x="0px" y="0px" width="500px" height="500px" viewBox="0 0 496.158 496.158" xmlns="http://www.w3.org/2000/svg">
  <path style="fill:#56B48C;" d="M248.082,0.003C111.07,0.003,0,111.061,0,248.085c0,137,111.07,248.07,248.082,248.07&#10;&#9;c137.006,0,248.076-111.07,248.076-248.07C496.158,111.061,385.088,0.003,248.082,0.003z"/>
  <path style="fill:#FFFFFF;" d="M 235.848 279.892 C 231.307 277.841 225.276 276.816 217.757 276.816 L 211.458 276.816 L 211.458 163.437 C 211.458 146.445 204.035 137.949 189.192 137.949 C 184.601 137.949 180.671 139.487 177.4 142.563 C 174.127 145.639 169.952 150.597 164.876 157.431 L 87.239 261.288 C 85.09 264.121 83.284 266.514 81.819 268.466 C 80.354 270.421 78.937 272.446 77.571 274.545 C 76.202 276.646 75.177 278.647 74.495 280.551 C 73.81 282.455 73.47 284.337 73.47 286.191 C 73.47 293.419 75.788 299.132 80.428 303.33 C 85.065 307.53 92.023 309.629 101.302 309.629 L 174.837 309.629 L 174.837 336.875 C 174.837 344.199 176.522 349.743 179.891 353.501 C 183.26 357.259 187.678 359.141 193.148 359.141 C 198.714 359.141 203.157 357.31 206.478 353.648 C 209.797 349.986 211.458 344.397 211.458 336.876 L 211.458 309.63 L 220.394 309.63 C 227.814 309.63 233.381 308.337 237.093 305.748 C 240.803 303.162 242.659 299.035 242.659 293.37 C 242.659 286.436 240.389 281.943 235.848 279.892 Z M 174.837 276.816 L 111.849 276.816 L 174.837 191.709 L 174.837 276.816 Z"/>
  <g/>
  <g/>
  <g/>
  <g/>
  <g/>
  <g/>
  <g/>
  <g/>
  <g/>
  <g/>
  <g/>
  <g/>
  <g/>
  <g/>
  <g/>
  <path style="fill:#FFFFFF;" d="M 409.327 273.273 C 406.69 266.878 402.759 261.042 397.535 255.768 C 392.309 250.495 385.889 245.807 378.272 241.705 C 386.182 235.065 392.261 228.254 396.509 221.27 C 400.757 214.289 402.881 205.915 402.881 196.148 C 402.881 188.728 401.416 181.793 398.486 175.347 C 395.556 168.901 391.21 163.239 385.449 158.355 C 379.685 153.473 372.899 149.738 365.088 147.149 C 357.274 144.563 348.631 143.267 339.16 143.267 C 328.32 143.267 318.506 144.805 309.717 147.881 C 300.928 150.957 293.578 155.036 287.671 160.112 C 281.762 165.191 277.271 170.538 274.194 176.152 C 271.118 181.769 269.58 187.115 269.58 192.192 C 269.58 197.465 271.215 201.691 274.487 204.863 C 277.758 208.038 281.346 209.624 285.254 209.624 C 288.572 209.624 291.502 209.038 294.043 207.866 C 296.581 206.694 298.339 205.083 299.316 203.032 C 300.975 199.223 302.806 195.172 304.809 190.874 C 306.81 186.578 308.933 183.062 311.181 180.327 C 313.426 177.594 316.478 175.397 320.336 173.735 C 324.192 172.076 329.1 171.245 335.058 171.245 C 343.847 171.245 350.828 173.955 356.005 179.375 C 361.18 184.795 363.769 191.266 363.769 198.784 C 363.769 208.649 360.521 216.216 354.028 221.489 C 347.533 226.762 339.794 229.399 330.81 229.399 L 324.804 229.399 C 317.868 229.399 312.646 230.841 309.13 233.72 C 305.614 236.602 303.857 240.385 303.857 245.073 C 303.857 249.859 305.322 253.594 308.252 256.279 C 311.182 258.966 315.331 260.307 320.703 260.307 C 321.875 260.307 324.512 260.113 328.613 259.721 C 332.715 259.332 335.74 259.135 337.695 259.135 C 348.828 259.135 357.518 262.383 363.769 268.876 C 370.017 275.372 373.144 284.33 373.144 295.756 C 373.144 303.472 371.313 310.258 367.651 316.117 C 363.989 321.976 359.349 326.396 353.735 329.374 C 348.119 332.354 342.284 333.842 336.23 333.842 C 325.683 333.842 317.503 330.546 311.694 323.954 C 305.882 317.362 300.437 307.28 295.361 293.705 C 294.578 291.46 292.919 289.53 290.381 287.919 C 287.84 286.308 285.203 285.502 282.471 285.502 C 277 285.502 272.437 287.237 268.775 290.702 C 265.113 294.17 263.282 298.736 263.282 304.398 C 263.282 308.793 264.82 314.359 267.896 321.097 C 270.972 327.835 275.513 334.354 281.519 340.653 C 287.525 346.952 295.165 352.202 304.444 356.4 C 313.72 360.598 324.219 362.699 335.938 362.699 C 347.459 362.699 357.984 360.868 367.505 357.206 C 377.026 353.544 385.252 348.467 392.188 341.972 C 399.121 335.479 404.37 328.081 407.935 319.78 C 411.498 311.481 413.282 302.886 413.282 293.999 C 413.282 286.58 411.964 279.671 409.327 273.273 Z"/>
</svg>