<?xml version="1.0" encoding="utf-8"?>
<svg id="Layer_1" style="enable-background:new 0 0 496.158 496.158;" x="0px" y="0px" width="500px" height="500px" viewBox="0 0 496.158 496.158" xmlns="http://www.w3.org/2000/svg">
  <path style="fill:#56B48C;" d="M248.082,0.003C111.07,0.003,0,111.061,0,248.085c0,137,111.07,248.07,248.082,248.07&#10;&#9;c137.006,0,248.076-111.07,248.076-248.07C496.158,111.061,385.088,0.003,248.082,0.003z"/>
  <path style="fill:#FFFFFF;" d="M 235.848 279.892 C 231.307 277.841 225.276 276.816 217.757 276.816 L 211.458 276.816 L 211.458 163.437 C 211.458 146.445 204.035 137.949 189.192 137.949 C 184.601 137.949 180.671 139.487 177.4 142.563 C 174.127 145.639 169.952 150.597 164.876 157.431 L 87.239 261.288 C 85.09 264.121 83.284 266.514 81.819 268.466 C 80.354 270.421 78.937 272.446 77.571 274.545 C 76.202 276.646 75.177 278.647 74.495 280.551 C 73.81 282.455 73.47 284.337 73.47 286.191 C 73.47 293.419 75.788 299.132 80.428 303.33 C 85.065 307.53 92.023 309.629 101.302 309.629 L 174.837 309.629 L 174.837 336.875 C 174.837 344.199 176.522 349.743 179.891 353.501 C 183.26 357.259 187.678 359.141 193.148 359.141 C 198.714 359.141 203.157 357.31 206.478 353.648 C 209.797 349.986 211.458 344.397 211.458 336.876 L 211.458 309.63 L 220.394 309.63 C 227.814 309.63 233.381 308.337 237.093 305.748 C 240.803 303.162 242.659 299.035 242.659 293.37 C 242.659 286.436 240.389 281.943 235.848 279.892 Z M 174.837 276.816 L 111.849 276.816 L 174.837 191.709 L 174.837 276.816 Z"/>
  <g/>
  <g/>
  <g/>
  <g/>
  <g/>
  <g/>
  <g/>
  <g/>
  <g/>
  <g/>
  <g/>
  <g/>
  <g/>
  <g/>
  <g/>
  <path style="fill:#FFFFFF;" d="M 421.907 282.869 C 417.366 280.818 411.335 279.793 403.816 279.793 L 397.517 279.793 L 397.517 166.414 C 397.517 149.422 390.094 140.926 375.251 140.926 C 370.66 140.926 366.73 142.464 363.459 145.54 C 360.186 148.616 356.011 153.574 350.935 160.408 L 273.298 264.265 C 271.149 267.098 269.343 269.491 267.878 271.443 C 266.413 273.398 264.996 275.423 263.63 277.522 C 262.261 279.623 261.236 281.624 260.554 283.528 C 259.869 285.432 259.529 287.314 259.529 289.168 C 259.529 296.396 261.847 302.109 266.487 306.307 C 271.124 310.507 278.082 312.606 287.361 312.606 L 360.896 312.606 L 360.896 339.852 C 360.896 347.176 362.581 352.72 365.95 356.478 C 369.319 360.236 373.737 362.118 379.207 362.118 C 384.773 362.118 389.216 360.287 392.537 356.625 C 395.856 352.963 397.517 347.374 397.517 339.853 L 397.517 312.607 L 406.453 312.607 C 413.873 312.607 419.44 311.314 423.152 308.725 C 426.862 306.139 428.718 302.012 428.718 296.347 C 428.718 289.413 426.448 284.92 421.907 282.869 Z M 360.896 279.793 L 297.908 279.793 L 360.896 194.686 L 360.896 279.793 Z"/>
</svg>