<?xml version="1.0" encoding="utf-8"?>
<svg id="Layer_1" style="enable-background:new 0 0 496.158 496.158;" x="0px" y="0px" width="500px" height="500px" viewBox="0 0 496.158 496.158" xmlns="http://www.w3.org/2000/svg">
  <path style="fill:#56B48C;" d="M248.082,0.003C111.07,0.003,0,111.061,0,248.085c0,137,111.07,248.07,248.082,248.07&#10;&#9;c137.006,0,248.076-111.07,248.076-248.07C496.158,111.061,385.088,0.003,248.082,0.003z"/>
  <path style="fill:#FFFFFF;" d="M 235.848 279.892 C 231.307 277.841 225.276 276.816 217.757 276.816 L 211.458 276.816 L 211.458 163.437 C 211.458 146.445 204.035 137.949 189.192 137.949 C 184.601 137.949 180.671 139.487 177.4 142.563 C 174.127 145.639 169.952 150.597 164.876 157.431 L 87.239 261.288 C 85.09 264.121 83.284 266.514 81.819 268.466 C 80.354 270.421 78.937 272.446 77.571 274.545 C 76.202 276.646 75.177 278.647 74.495 280.551 C 73.81 282.455 73.47 284.337 73.47 286.191 C 73.47 293.419 75.788 299.132 80.428 303.33 C 85.065 307.53 92.023 309.629 101.302 309.629 L 174.837 309.629 L 174.837 336.875 C 174.837 344.199 176.522 349.743 179.891 353.501 C 183.26 357.259 187.678 359.141 193.148 359.141 C 198.714 359.141 203.157 357.31 206.478 353.648 C 209.797 349.986 211.458 344.397 211.458 336.876 L 211.458 309.63 L 220.394 309.63 C 227.814 309.63 233.381 308.337 237.093 305.748 C 240.803 303.162 242.659 299.035 242.659 293.37 C 242.659 286.436 240.389 281.943 235.848 279.892 Z M 174.837 276.816 L 111.849 276.816 L 174.837 191.709 L 174.837 276.816 Z"/>
  <g/>
  <g/>
  <g/>
  <g/>
  <g/>
  <g/>
  <g/>
  <g/>
  <g/>
  <g/>
  <g/>
  <g/>
  <g/>
  <g/>
  <g/>
  <path style="fill:#FFFFFF;" d="M 409.908 255.845 C 406.392 247.349 401.558 240.002 395.406 233.799 C 389.254 227.599 382.099 222.739 373.946 219.224 C 365.791 215.708 357.027 213.951 347.652 213.951 C 335.933 213.951 323.139 217.663 309.273 225.084 L 317.623 177.623 L 387.203 177.623 C 394.429 177.623 399.897 176.062 403.609 172.935 C 407.319 169.811 409.175 165.709 409.175 160.63 C 409.175 149.01 401.558 143.198 386.323 143.198 L 308.979 143.198 C 300.579 143.198 294.525 145.102 290.815 148.911 C 287.103 152.72 284.564 158.824 283.198 167.222 L 270.894 237.388 C 269.818 243.54 269.283 246.862 269.283 247.349 C 269.283 251.744 271.137 255.676 274.849 259.141 C 278.559 262.609 282.807 264.341 287.593 264.341 C 291.988 264.341 297.577 261.778 304.365 256.651 C 311.151 251.524 316.351 247.935 319.966 245.884 C 323.578 243.833 329.584 242.808 337.984 242.808 C 344.818 242.808 351.021 244.445 356.588 247.715 C 362.154 250.988 366.597 255.944 369.918 262.583 C 373.237 269.225 374.898 277.231 374.898 286.606 C 374.898 295.299 373.36 303.063 370.284 309.897 C 367.208 316.734 362.836 322.105 357.174 326.01 C 351.509 329.917 344.917 331.869 337.399 331.869 C 329.196 331.869 321.773 329.452 315.133 324.618 C 308.491 319.784 303.217 313.023 299.313 304.33 C 295.308 294.859 289.206 290.121 281.002 290.121 C 276.216 290.121 272.236 291.831 269.064 295.248 C 265.889 298.667 264.303 302.279 264.303 306.088 C 264.303 312.339 266.574 319.638 271.115 327.987 C 275.656 336.336 283.369 343.734 294.26 350.179 C 305.148 356.624 319.332 359.847 336.814 359.847 C 352.438 359.847 366.232 356.428 378.196 349.593 C 390.157 342.759 399.313 333.53 405.662 321.907 C 412.009 310.287 415.183 297.396 415.183 283.235 C 415.181 273.474 413.423 264.341 409.908 255.845 Z"/>
</svg>