<?xml version="1.0" encoding="utf-8"?>
<svg id="Layer_1" style="enable-background:new 0 0 496.158 496.158;" x="0px" y="0px" width="500px" height="500px" viewBox="0 0 496.158 496.158" xmlns="http://www.w3.org/2000/svg">
  <path style="fill:#56B48C;" d="M248.082,0.003C111.07,0.003,0,111.061,0,248.085c0,137,111.07,248.07,248.082,248.07&#10;&#9;c137.006,0,248.076-111.07,248.076-248.07C496.158,111.061,385.088,0.003,248.082,0.003z"/>
  <path style="fill:#FFFFFF;" d="M 235.848 279.892 C 231.307 277.841 225.276 276.816 217.757 276.816 L 211.458 276.816 L 211.458 163.437 C 211.458 146.445 204.035 137.949 189.192 137.949 C 184.601 137.949 180.671 139.487 177.4 142.563 C 174.127 145.639 169.952 150.597 164.876 157.431 L 87.239 261.288 C 85.09 264.121 83.284 266.514 81.819 268.466 C 80.354 270.421 78.937 272.446 77.571 274.545 C 76.202 276.646 75.177 278.647 74.495 280.551 C 73.81 282.455 73.47 284.337 73.47 286.191 C 73.47 293.419 75.788 299.132 80.428 303.33 C 85.065 307.53 92.023 309.629 101.302 309.629 L 174.837 309.629 L 174.837 336.875 C 174.837 344.199 176.522 349.743 179.891 353.501 C 183.26 357.259 187.678 359.141 193.148 359.141 C 198.714 359.141 203.157 357.31 206.478 353.648 C 209.797 349.986 211.458 344.397 211.458 336.876 L 211.458 309.63 L 220.394 309.63 C 227.814 309.63 233.381 308.337 237.093 305.748 C 240.803 303.162 242.659 299.035 242.659 293.37 C 242.659 286.436 240.389 281.943 235.848 279.892 Z M 174.837 276.816 L 111.849 276.816 L 174.837 191.709 L 174.837 276.816 Z"/>
  <g/>
  <g/>
  <g/>
  <g/>
  <g/>
  <g/>
  <g/>
  <g/>
  <g/>
  <g/>
  <g/>
  <g/>
  <g/>
  <g/>
  <g/>
  <path style="fill:#FFFFFF;" d="M 413.054 257.975 C 409.831 249.285 405.265 241.741 399.358 235.343 C 393.448 228.948 386.564 224.016 378.704 220.548 C 370.842 217.083 362.272 215.348 352.996 215.348 C 343.328 215.348 334.587 217.252 326.775 221.061 C 318.961 224.87 311.735 230.729 305.095 238.639 C 306.363 212.077 310.563 193.62 317.693 183.268 C 321.209 178.191 325.53 174.163 330.657 171.183 C 335.784 168.205 340.934 166.715 346.111 166.715 C 352.556 166.715 358.219 168.498 363.103 172.062 C 367.985 175.628 371.549 180.338 373.796 186.198 C 375.455 190.789 378.044 194.378 381.56 196.965 C 385.076 199.554 388.884 200.847 392.986 200.847 C 397.674 200.847 401.53 199.213 404.558 195.94 C 407.584 192.669 409.099 189.032 409.099 185.027 C 409.099 178.387 406.682 171.454 401.848 164.226 C 397.014 157 389.836 150.946 380.315 146.062 C 370.794 141.18 359.782 138.738 347.283 138.738 C 334.294 138.738 322.721 141.18 312.566 146.062 C 302.408 150.946 293.766 158.172 286.638 167.742 C 279.508 177.314 274.04 189.374 270.232 203.924 C 266.423 218.476 264.519 234.979 264.519 253.436 C 264.519 276.093 267.668 295.257 273.967 310.931 C 280.266 326.605 289.371 338.447 301.286 346.453 C 313.199 354.462 327.36 358.465 343.766 358.465 C 358.023 358.465 370.792 355.316 382.072 349.017 C 393.352 342.718 402.14 333.954 408.439 322.723 C 414.738 311.494 417.887 298.993 417.887 285.223 C 417.888 275.75 416.277 266.668 413.054 257.975 Z M 369.109 317.521 C 362.664 325.578 354.508 329.606 344.646 329.606 C 334.293 329.606 325.699 325.211 318.865 316.422 C 312.028 307.633 308.611 296.647 308.611 283.463 C 308.611 275.26 310.296 268.108 313.665 262.003 C 317.034 255.901 321.477 251.236 326.995 248.014 C 332.511 244.791 338.297 243.18 344.353 243.18 C 350.7 243.18 356.511 244.865 361.785 248.234 C 367.059 251.603 371.208 256.487 374.236 262.882 C 377.262 269.279 378.777 276.922 378.777 285.807 C 378.777 298.894 375.554 309.464 369.109 317.521 Z"/>
</svg>