<?xml version="1.0" encoding="utf-8"?>
<svg id="Layer_1" style="enable-background:new 0 0 496.158 496.158;" x="0px" y="0px" width="500px" height="500px" viewBox="0 0 496.158 496.158" xmlns="http://www.w3.org/2000/svg">
  <path style="fill:#56B48C;" d="M248.082,0.003C111.07,0.003,0,111.061,0,248.085c0,137,111.07,248.07,248.082,248.07&#10;&#9;c137.006,0,248.076-111.07,248.076-248.07C496.158,111.061,385.088,0.003,248.082,0.003z"/>
  <path style="fill:#FFFFFF;" d="M 235.848 279.892 C 231.307 277.841 225.276 276.816 217.757 276.816 L 211.458 276.816 L 211.458 163.437 C 211.458 146.445 204.035 137.949 189.192 137.949 C 184.601 137.949 180.671 139.487 177.4 142.563 C 174.127 145.639 169.952 150.597 164.876 157.431 L 87.239 261.288 C 85.09 264.121 83.284 266.514 81.819 268.466 C 80.354 270.421 78.937 272.446 77.571 274.545 C 76.202 276.646 75.177 278.647 74.495 280.551 C 73.81 282.455 73.47 284.337 73.47 286.191 C 73.47 293.419 75.788 299.132 80.428 303.33 C 85.065 307.53 92.023 309.629 101.302 309.629 L 174.837 309.629 L 174.837 336.875 C 174.837 344.199 176.522 349.743 179.891 353.501 C 183.26 357.259 187.678 359.141 193.148 359.141 C 198.714 359.141 203.157 357.31 206.478 353.648 C 209.797 349.986 211.458 344.397 211.458 336.876 L 211.458 309.63 L 220.394 309.63 C 227.814 309.63 233.381 308.337 237.093 305.748 C 240.803 303.162 242.659 299.035 242.659 293.37 C 242.659 286.436 240.389 281.943 235.848 279.892 Z M 174.837 276.816 L 111.849 276.816 L 174.837 191.709 L 174.837 276.816 Z"/>
  <g/>
  <g/>
  <g/>
  <g/>
  <g/>
  <g/>
  <g/>
  <g/>
  <g/>
  <g/>
  <g/>
  <g/>
  <g/>
  <g/>
  <g/>
  <path style="fill:#FFFFFF;" d="M 401.943 143.357 C 397.743 140.427 390.957 138.962 381.582 138.962 L 284.023 138.962 C 276.307 138.962 270.301 139.94 266.005 141.892 C 261.707 143.847 259.56 148.191 259.56 154.929 C 259.56 161.278 261.585 165.941 265.639 168.918 C 269.69 171.898 275.82 173.386 284.023 173.386 L 362.392 173.386 C 350.087 189.012 339.467 204.711 330.532 220.481 C 321.596 236.253 314.149 251.634 308.193 266.624 C 302.235 281.616 297.939 294.481 295.302 305.223 C 292.665 315.967 291.347 324.463 291.347 330.711 C 291.347 338.818 293.153 344.945 296.767 349.095 C 300.379 353.244 305.164 355.321 311.122 355.321 C 317.371 355.321 322.376 353.391 326.137 349.535 C 329.895 345.679 332.802 338.768 334.853 328.807 C 335.732 324.511 336.757 318.31 337.929 310.203 C 339.101 302.099 340.174 295.507 341.152 290.428 C 342.127 285.351 343.789 278.954 346.132 271.239 C 351.698 253.76 357.825 238.965 364.516 226.854 C 371.204 214.746 377.7 204.614 383.998 196.458 C 390.297 188.305 395.911 180.857 400.844 174.119 C 405.774 167.381 408.241 161.961 408.241 157.859 C 408.242 151.121 406.141 146.287 401.943 143.357 Z"/>
</svg>