<?xml version="1.0" encoding="utf-8"?>
<svg id="Layer_1" style="enable-background:new 0 0 496.158 496.158;" x="0px" y="0px" width="500px" height="500px" viewBox="0 0 496.158 496.158" xmlns="http://www.w3.org/2000/svg">
  <path style="fill:#56B48C;" d="M248.082,0.003C111.07,0.003,0,111.061,0,248.085c0,137,111.07,248.07,248.082,248.07&#10;&#9;c137.006,0,248.076-111.07,248.076-248.07C496.158,111.061,385.088,0.003,248.082,0.003z"/>
  <path style="fill:#FFFFFF;" d="M 235.848 279.892 C 231.307 277.841 225.276 276.816 217.757 276.816 L 211.458 276.816 L 211.458 163.437 C 211.458 146.445 204.035 137.949 189.192 137.949 C 184.601 137.949 180.671 139.487 177.4 142.563 C 174.127 145.639 169.952 150.597 164.876 157.431 L 87.239 261.288 C 85.09 264.121 83.284 266.514 81.819 268.466 C 80.354 270.421 78.937 272.446 77.571 274.545 C 76.202 276.646 75.177 278.647 74.495 280.551 C 73.81 282.455 73.47 284.337 73.47 286.191 C 73.47 293.419 75.788 299.132 80.428 303.33 C 85.065 307.53 92.023 309.629 101.302 309.629 L 174.837 309.629 L 174.837 336.875 C 174.837 344.199 176.522 349.743 179.891 353.501 C 183.26 357.259 187.678 359.141 193.148 359.141 C 198.714 359.141 203.157 357.31 206.478 353.648 C 209.797 349.986 211.458 344.397 211.458 336.876 L 211.458 309.63 L 220.394 309.63 C 227.814 309.63 233.381 308.337 237.093 305.748 C 240.803 303.162 242.659 299.035 242.659 293.37 C 242.659 286.436 240.389 281.943 235.848 279.892 Z M 174.837 276.816 L 111.849 276.816 L 174.837 191.709 L 174.837 276.816 Z"/>
  <g/>
  <g/>
  <g/>
  <g/>
  <g/>
  <g/>
  <g/>
  <g/>
  <g/>
  <g/>
  <g/>
  <g/>
  <g/>
  <g/>
  <g/>
  <path style="fill:#FFFFFF;" d="M 411.74 270.061 C 408.957 263.176 404.83 257.123 399.362 251.897 C 393.892 246.674 387.007 242.449 378.708 239.226 C 388.472 234.442 395.821 228.29 400.754 220.769 C 405.684 213.25 408.151 204.706 408.151 195.134 C 408.151 187.615 406.734 180.511 403.903 173.821 C 401.07 167.133 396.725 161.127 390.866 155.803 C 385.007 150.482 377.682 146.307 368.893 143.279 C 360.104 140.253 349.898 138.738 338.278 138.738 C 324.508 138.738 312.471 141.327 302.17 146.502 C 291.866 151.679 284.054 158.587 278.732 167.23 C 273.408 175.873 270.749 185.078 270.749 194.842 C 270.749 215.057 280.758 229.852 300.778 239.227 C 275.972 248.994 263.571 267.011 263.571 293.28 C 263.571 305.585 266.501 316.695 272.36 326.605 C 278.219 336.518 286.91 344.307 298.434 349.969 C 309.956 355.632 323.824 358.465 340.036 358.465 C 355.66 358.465 369.234 355.632 380.759 349.969 C 392.281 344.306 401.022 336.469 406.98 326.458 C 412.936 316.449 415.916 305.291 415.916 292.986 C 415.915 284.588 414.523 276.946 411.74 270.061 Z M 316.965 175.285 C 322.579 169.572 329.977 166.716 339.157 166.716 C 345.211 166.716 350.583 168.034 355.27 170.671 C 359.957 173.308 363.594 176.922 366.183 181.511 C 368.769 186.102 370.065 191.278 370.065 197.038 C 370.065 201.336 369.333 205.267 367.868 208.83 C 366.403 212.396 364.327 215.472 361.642 218.059 C 358.955 220.648 355.732 222.673 351.974 224.138 C 348.213 225.603 344.038 226.335 339.45 226.335 C 330.368 226.335 322.945 223.577 317.184 218.059 C 311.421 212.543 308.541 205.633 308.541 197.331 C 308.542 188.348 311.348 180.998 316.965 175.285 Z M 371.091 312.029 C 367.965 317.888 363.668 322.429 358.2 325.652 C 352.73 328.875 346.577 330.486 339.743 330.486 C 333.005 330.486 326.9 328.9 321.432 325.725 C 315.962 322.553 311.64 318.06 308.468 312.248 C 305.293 306.439 303.707 299.724 303.707 292.106 C 303.707 280.193 307.076 270.916 313.814 264.274 C 320.552 257.634 328.902 254.313 338.863 254.313 C 345.894 254.313 352.241 255.828 357.906 258.854 C 363.569 261.882 367.963 266.229 371.09 271.891 C 374.214 277.556 375.778 284.196 375.778 291.813 C 375.778 299.43 374.215 306.169 371.091 312.029 Z"/>
</svg>