<?xml version="1.0" encoding="utf-8"?>
<svg id="Layer_1" style="enable-background:new 0 0 496.158 496.158;" x="0px" y="0px" width="500px" height="500px" viewBox="0 0 496.158 496.158" xmlns="http://www.w3.org/2000/svg">
  <path style="fill:#56B48C;" d="M248.082,0.003C111.07,0.003,0,111.061,0,248.085c0,137,111.07,248.07,248.082,248.07&#10;&#9;c137.006,0,248.076-111.07,248.076-248.07C496.158,111.061,385.088,0.003,248.082,0.003z"/>
  <path style="fill:#FFFFFF;" d="M 235.848 279.892 C 231.307 277.841 225.276 276.816 217.757 276.816 L 211.458 276.816 L 211.458 163.437 C 211.458 146.445 204.035 137.949 189.192 137.949 C 184.601 137.949 180.671 139.487 177.4 142.563 C 174.127 145.639 169.952 150.597 164.876 157.431 L 87.239 261.288 C 85.09 264.121 83.284 266.514 81.819 268.466 C 80.354 270.421 78.937 272.446 77.571 274.545 C 76.202 276.646 75.177 278.647 74.495 280.551 C 73.81 282.455 73.47 284.337 73.47 286.191 C 73.47 293.419 75.788 299.132 80.428 303.33 C 85.065 307.53 92.023 309.629 101.302 309.629 L 174.837 309.629 L 174.837 336.875 C 174.837 344.199 176.522 349.743 179.891 353.501 C 183.26 357.259 187.678 359.141 193.148 359.141 C 198.714 359.141 203.157 357.31 206.478 353.648 C 209.797 349.986 211.458 344.397 211.458 336.876 L 211.458 309.63 L 220.394 309.63 C 227.814 309.63 233.381 308.337 237.093 305.748 C 240.803 303.162 242.659 299.035 242.659 293.37 C 242.659 286.436 240.389 281.943 235.848 279.892 Z M 174.837 276.816 L 111.849 276.816 L 174.837 191.709 L 174.837 276.816 Z"/>
  <g/>
  <g/>
  <g/>
  <g/>
  <g/>
  <g/>
  <g/>
  <g/>
  <g/>
  <g/>
  <g/>
  <g/>
  <g/>
  <g/>
  <g/>
  <path style="fill:#FFFFFF;" d="M 411.922 201.667 C 408.308 188.387 403.133 177.376 396.395 168.635 C 389.657 159.896 381.355 153.231 371.493 148.64 C 361.629 144.051 350.399 141.755 337.802 141.755 C 326.864 141.755 316.877 143.611 307.846 147.321 C 298.812 151.033 291.024 156.209 284.482 162.848 C 277.938 169.49 272.91 177.327 269.394 186.359 C 265.878 195.393 264.121 204.94 264.121 214.997 C 264.121 224.372 265.683 233.333 268.809 241.877 C 271.933 250.423 276.401 257.894 282.212 264.289 C 288.021 270.686 294.905 275.667 302.866 279.23 C 310.824 282.796 319.393 284.577 328.574 284.577 C 338.242 284.577 347.053 282.65 355.014 278.791 C 362.972 274.935 370.175 269.196 376.62 261.579 C 375.252 288.045 371.054 306.502 364.022 316.95 C 360.506 322.127 356.258 326.131 351.278 328.962 C 346.298 331.795 341.024 333.21 335.458 333.21 C 329.207 333.21 323.593 331.429 318.612 327.863 C 313.632 324.3 310.066 319.587 307.919 313.727 C 306.161 308.943 303.572 305.354 300.155 302.96 C 296.736 300.568 292.879 299.371 288.583 299.371 C 283.895 299.371 280.037 300.982 277.011 304.205 C 273.983 307.428 272.47 311.09 272.47 315.191 C 272.47 321.833 274.91 328.741 279.794 335.919 C 284.676 343.097 291.806 349.103 301.181 353.937 C 310.556 358.771 321.59 361.188 334.286 361.188 C 347.177 361.188 358.699 358.819 368.856 354.084 C 379.011 349.349 387.727 342.123 395.003 332.404 C 402.276 322.688 407.82 310.676 411.629 296.369 C 415.438 282.064 417.342 265.534 417.342 246.784 C 417.342 229.988 415.534 214.949 411.922 201.667 Z M 368.05 238.141 C 364.582 244.197 360.089 248.811 354.573 251.984 C 349.054 255.159 343.268 256.745 337.215 256.745 C 327.351 256.745 319.197 252.889 312.752 245.173 C 306.307 237.46 303.084 227.108 303.084 214.118 C 303.084 201.033 306.307 190.511 312.752 182.551 C 319.197 174.593 327.058 170.613 336.336 170.613 C 341.706 170.613 346.663 171.785 351.204 174.129 C 355.745 176.473 359.649 179.695 362.923 183.797 C 366.194 187.899 368.732 192.758 370.54 198.372 C 372.346 203.989 373.25 210.116 373.25 216.756 C 373.25 224.958 371.515 232.087 368.05 238.141 Z"/>
</svg>