<?xml version="1.0" encoding="utf-8"?>
<svg id="Layer_1" style="enable-background:new 0 0 496.158 496.158;" x="0px" y="0px" width="500px" height="500px" viewBox="0 0 496.158 496.158" xmlns="http://www.w3.org/2000/svg">
  <path style="fill:#56B48C;" d="M248.082,0.003C111.07,0.003,0,111.061,0,248.085c0,137,111.07,248.07,248.082,248.07&#10;&#9;c137.006,0,248.076-111.07,248.076-248.07C496.158,111.061,385.088,0.003,248.082,0.003z"/>
  <path style="fill:#FFFFFF;" d="M 231.38 255.136 C 227.864 246.64 223.03 239.293 216.878 233.09 C 210.726 226.89 203.571 222.03 195.418 218.515 C 187.263 214.999 178.499 213.242 169.124 213.242 C 157.405 213.242 144.611 216.954 130.745 224.375 L 139.095 176.914 L 208.675 176.914 C 215.901 176.914 221.369 175.353 225.081 172.226 C 228.791 169.102 230.647 165 230.647 159.921 C 230.647 148.301 223.03 142.489 207.795 142.489 L 130.451 142.489 C 122.051 142.489 115.997 144.393 112.287 148.202 C 108.575 152.011 106.036 158.115 104.67 166.513 L 92.366 236.679 C 91.29 242.831 90.755 246.153 90.755 246.64 C 90.755 251.035 92.609 254.967 96.321 258.432 C 100.031 261.9 104.279 263.632 109.065 263.632 C 113.46 263.632 119.049 261.069 125.837 255.942 C 132.623 250.815 137.823 247.226 141.438 245.175 C 145.05 243.124 151.056 242.099 159.456 242.099 C 166.29 242.099 172.493 243.736 178.06 247.006 C 183.626 250.279 188.069 255.235 191.39 261.874 C 194.709 268.516 196.37 276.522 196.37 285.897 C 196.37 294.59 194.832 302.354 191.756 309.188 C 188.68 316.025 184.308 321.396 178.646 325.301 C 172.981 329.208 166.389 331.16 158.871 331.16 C 150.668 331.16 143.245 328.743 136.605 323.909 C 129.963 319.075 124.689 312.314 120.785 303.621 C 116.78 294.15 110.678 289.412 102.474 289.412 C 97.688 289.412 93.708 291.122 90.536 294.539 C 87.361 297.958 85.775 301.57 85.775 305.379 C 85.775 311.63 88.046 318.929 92.587 327.278 C 97.128 335.627 104.841 343.025 115.732 349.47 C 126.62 355.915 140.804 359.138 158.286 359.138 C 173.91 359.138 187.704 355.719 199.668 348.884 C 211.629 342.05 220.785 332.821 227.134 321.198 C 233.481 309.578 236.655 296.687 236.655 282.526 C 236.653 272.765 234.895 263.632 231.38 255.136 Z"/>
  <g/>
  <g/>
  <g/>
  <g/>
  <g/>
  <g/>
  <g/>
  <g/>
  <g/>
  <g/>
  <g/>
  <g/>
  <g/>
  <g/>
  <g/>
  <path style="fill:#FFFFFF;" d="M 374.492 139.005 C 371.365 135.002 367.216 132.999 362.041 132.999 C 357.449 132.999 354.325 133.878 352.666 135.636 C 351.004 137.394 347.44 142.081 341.973 149.699 C 336.502 157.316 330.229 164.201 323.15 170.353 C 316.069 176.505 306.62 182.365 294.805 187.931 C 286.895 191.643 281.376 194.669 278.252 197.013 C 275.125 199.357 273.564 203.019 273.564 207.999 C 273.564 212.297 275.15 216.081 278.325 219.352 C 281.498 222.625 285.137 224.259 289.238 224.259 C 297.83 224.259 314.529 214.738 339.336 195.695 L 339.336 328.996 C 339.336 336.81 341.142 342.718 344.756 346.721 C 348.367 350.724 353.153 352.727 359.111 352.727 C 372.489 352.727 379.179 342.913 379.179 323.284 L 379.179 155.558 C 379.179 148.527 377.616 143.011 374.492 139.005 Z"/>
</svg>