<?xml version="1.0" encoding="utf-8"?>
<svg id="Layer_1" style="enable-background:new 0 0 496.158 496.158;" x="0px" y="0px" width="500px" height="500px" viewBox="0 0 496.158 496.158" xmlns="http://www.w3.org/2000/svg">
  <path style="fill:#56B48C;" d="M248.082,0.003C111.07,0.003,0,111.061,0,248.085c0,137,111.07,248.07,248.082,248.07&#10;&#9;c137.006,0,248.076-111.07,248.076-248.07C496.158,111.061,385.088,0.003,248.082,0.003z"/>
  <path style="fill:#FFFFFF;" d="M 231.38 255.136 C 227.864 246.64 223.03 239.293 216.878 233.09 C 210.726 226.89 203.571 222.03 195.418 218.515 C 187.263 214.999 178.499 213.242 169.124 213.242 C 157.405 213.242 144.611 216.954 130.745 224.375 L 139.095 176.914 L 208.675 176.914 C 215.901 176.914 221.369 175.353 225.081 172.226 C 228.791 169.102 230.647 165 230.647 159.921 C 230.647 148.301 223.03 142.489 207.795 142.489 L 130.451 142.489 C 122.051 142.489 115.997 144.393 112.287 148.202 C 108.575 152.011 106.036 158.115 104.67 166.513 L 92.366 236.679 C 91.29 242.831 90.755 246.153 90.755 246.64 C 90.755 251.035 92.609 254.967 96.321 258.432 C 100.031 261.9 104.279 263.632 109.065 263.632 C 113.46 263.632 119.049 261.069 125.837 255.942 C 132.623 250.815 137.823 247.226 141.438 245.175 C 145.05 243.124 151.056 242.099 159.456 242.099 C 166.29 242.099 172.493 243.736 178.06 247.006 C 183.626 250.279 188.069 255.235 191.39 261.874 C 194.709 268.516 196.37 276.522 196.37 285.897 C 196.37 294.59 194.832 302.354 191.756 309.188 C 188.68 316.025 184.308 321.396 178.646 325.301 C 172.981 329.208 166.389 331.16 158.871 331.16 C 150.668 331.16 143.245 328.743 136.605 323.909 C 129.963 319.075 124.689 312.314 120.785 303.621 C 116.78 294.15 110.678 289.412 102.474 289.412 C 97.688 289.412 93.708 291.122 90.536 294.539 C 87.361 297.958 85.775 301.57 85.775 305.379 C 85.775 311.63 88.046 318.929 92.587 327.278 C 97.128 335.627 104.841 343.025 115.732 349.47 C 126.62 355.915 140.804 359.138 158.286 359.138 C 173.91 359.138 187.704 355.719 199.668 348.884 C 211.629 342.05 220.785 332.821 227.134 321.198 C 233.481 309.578 236.655 296.687 236.655 282.526 C 236.653 272.765 234.895 263.632 231.38 255.136 Z"/>
  <g/>
  <g/>
  <g/>
  <g/>
  <g/>
  <g/>
  <g/>
  <g/>
  <g/>
  <g/>
  <g/>
  <g/>
  <g/>
  <g/>
  <g/>
  <path style="fill:#FFFFFF;" d="M 412.005 322.388 C 407.999 319.264 402.191 317.7 394.573 317.7 L 318.108 317.7 C 320.547 313.99 322.942 310.815 325.286 308.178 C 330.754 301.539 340.837 292.212 355.535 280.2 C 370.231 268.188 380.705 259.376 386.956 253.76 C 393.204 248.146 399.334 240.382 405.34 230.469 C 411.346 220.558 414.349 209.547 414.349 197.437 C 414.349 189.724 412.908 182.276 410.028 175.098 C 407.146 167.92 403.118 161.598 397.943 156.128 C 392.765 150.66 386.759 146.364 379.925 143.237 C 369.378 138.549 356.634 136.206 341.693 136.206 C 329.29 136.206 318.475 138.037 309.247 141.699 C 300.019 145.361 292.401 150.172 286.395 156.128 C 280.389 162.086 275.871 168.726 272.845 176.05 C 269.817 183.374 268.304 190.405 268.304 197.144 C 268.304 202.71 269.915 207.105 273.138 210.328 C 276.361 213.551 280.411 215.162 285.296 215.162 C 290.862 215.162 295.085 213.404 297.967 209.889 C 300.847 206.373 303.435 201.345 305.731 194.801 C 308.025 188.259 309.661 184.254 310.638 182.789 C 317.962 171.56 328.019 165.943 340.814 165.943 C 346.868 165.943 352.46 167.312 357.586 170.045 C 362.713 172.78 366.765 176.614 369.744 181.544 C 372.722 186.477 374.212 192.068 374.212 198.316 C 374.212 204.079 372.82 209.962 370.037 215.967 C 367.254 221.972 363.2 227.832 357.879 233.545 C 352.556 239.258 345.89 244.948 337.884 250.61 C 333.391 253.638 325.92 259.962 315.472 269.579 C 305.021 279.2 293.302 290.747 280.316 304.224 C 277.189 307.545 274.31 312.111 271.673 317.92 C 269.036 323.732 267.718 328.394 267.718 331.909 C 267.718 337.379 269.769 342.14 273.87 346.191 C 277.972 350.245 283.684 352.27 291.009 352.27 L 398.822 352.27 C 405.267 352.27 410.076 350.611 413.251 347.29 C 416.424 343.971 418.012 339.918 418.012 335.132 C 418.011 329.763 416.008 325.515 412.005 322.388 Z"/>
</svg>