<?xml version="1.0" encoding="utf-8"?>
<svg id="Layer_1" style="enable-background:new 0 0 496.158 496.158;" x="0px" y="0px" width="500px" height="500px" viewBox="0 0 496.158 496.158" xmlns="http://www.w3.org/2000/svg">
  <path style="fill:#56B48C;" d="M248.082,0.003C111.07,0.003,0,111.061,0,248.085c0,137,111.07,248.07,248.082,248.07&#10;&#9;c137.006,0,248.076-111.07,248.076-248.07C496.158,111.061,385.088,0.003,248.082,0.003z"/>
  <path style="fill:#FFFFFF;" d="M 231.38 255.136 C 227.864 246.64 223.03 239.293 216.878 233.09 C 210.726 226.89 203.571 222.03 195.418 218.515 C 187.263 214.999 178.499 213.242 169.124 213.242 C 157.405 213.242 144.611 216.954 130.745 224.375 L 139.095 176.914 L 208.675 176.914 C 215.901 176.914 221.369 175.353 225.081 172.226 C 228.791 169.102 230.647 165 230.647 159.921 C 230.647 148.301 223.03 142.489 207.795 142.489 L 130.451 142.489 C 122.051 142.489 115.997 144.393 112.287 148.202 C 108.575 152.011 106.036 158.115 104.67 166.513 L 92.366 236.679 C 91.29 242.831 90.755 246.153 90.755 246.64 C 90.755 251.035 92.609 254.967 96.321 258.432 C 100.031 261.9 104.279 263.632 109.065 263.632 C 113.46 263.632 119.049 261.069 125.837 255.942 C 132.623 250.815 137.823 247.226 141.438 245.175 C 145.05 243.124 151.056 242.099 159.456 242.099 C 166.29 242.099 172.493 243.736 178.06 247.006 C 183.626 250.279 188.069 255.235 191.39 261.874 C 194.709 268.516 196.37 276.522 196.37 285.897 C 196.37 294.59 194.832 302.354 191.756 309.188 C 188.68 316.025 184.308 321.396 178.646 325.301 C 172.981 329.208 166.389 331.16 158.871 331.16 C 150.668 331.16 143.245 328.743 136.605 323.909 C 129.963 319.075 124.689 312.314 120.785 303.621 C 116.78 294.15 110.678 289.412 102.474 289.412 C 97.688 289.412 93.708 291.122 90.536 294.539 C 87.361 297.958 85.775 301.57 85.775 305.379 C 85.775 311.63 88.046 318.929 92.587 327.278 C 97.128 335.627 104.841 343.025 115.732 349.47 C 126.62 355.915 140.804 359.138 158.286 359.138 C 173.91 359.138 187.704 355.719 199.668 348.884 C 211.629 342.05 220.785 332.821 227.134 321.198 C 233.481 309.578 236.655 296.687 236.655 282.526 C 236.653 272.765 234.895 263.632 231.38 255.136 Z"/>
  <g/>
  <g/>
  <g/>
  <g/>
  <g/>
  <g/>
  <g/>
  <g/>
  <g/>
  <g/>
  <g/>
  <g/>
  <g/>
  <g/>
  <g/>
  <path style="fill:#FFFFFF;" d="M 402.915 268.651 C 400.278 262.256 396.347 256.42 391.123 251.146 C 385.897 245.873 379.477 241.185 371.86 237.083 C 379.77 230.443 385.849 223.632 390.097 216.648 C 394.345 209.667 396.469 201.293 396.469 191.526 C 396.469 184.106 395.004 177.171 392.074 170.725 C 389.144 164.279 384.798 158.617 379.037 153.733 C 373.273 148.851 366.487 145.116 358.676 142.527 C 350.862 139.941 342.219 138.645 332.748 138.645 C 321.908 138.645 312.094 140.183 303.305 143.259 C 294.516 146.335 287.166 150.414 281.259 155.49 C 275.35 160.569 270.859 165.916 267.782 171.53 C 264.706 177.147 263.168 182.493 263.168 187.57 C 263.168 192.843 264.803 197.069 268.075 200.241 C 271.346 203.416 274.934 205.002 278.842 205.002 C 282.16 205.002 285.09 204.416 287.631 203.244 C 290.169 202.072 291.927 200.461 292.904 198.41 C 294.563 194.601 296.394 190.55 298.397 186.252 C 300.398 181.956 302.521 178.44 304.769 175.705 C 307.014 172.972 310.066 170.775 313.924 169.113 C 317.78 167.454 322.688 166.623 328.646 166.623 C 337.435 166.623 344.416 169.333 349.593 174.753 C 354.768 180.173 357.357 186.644 357.357 194.162 C 357.357 204.027 354.109 211.594 347.616 216.867 C 341.121 222.14 333.382 224.777 324.398 224.777 L 318.392 224.777 C 311.456 224.777 306.234 226.219 302.718 229.098 C 299.202 231.98 297.445 235.763 297.445 240.451 C 297.445 245.237 298.91 248.972 301.84 251.657 C 304.77 254.344 308.919 255.685 314.291 255.685 C 315.463 255.685 318.1 255.491 322.201 255.099 C 326.303 254.71 329.328 254.513 331.283 254.513 C 342.416 254.513 351.106 257.761 357.357 264.254 C 363.605 270.75 366.732 279.708 366.732 291.134 C 366.732 298.85 364.901 305.636 361.239 311.495 C 357.577 317.354 352.937 321.774 347.323 324.752 C 341.707 327.732 335.872 329.22 329.818 329.22 C 319.271 329.22 311.091 325.924 305.282 319.332 C 299.47 312.74 294.025 302.658 288.949 289.083 C 288.166 286.838 286.507 284.908 283.969 283.297 C 281.428 281.686 278.791 280.88 276.059 280.88 C 270.588 280.88 266.025 282.615 262.363 286.08 C 258.701 289.548 256.87 294.114 256.87 299.776 C 256.87 304.171 258.408 309.737 261.484 316.475 C 264.56 323.213 269.101 329.732 275.107 336.031 C 281.113 342.33 288.753 347.58 298.032 351.778 C 307.308 355.976 317.807 358.077 329.526 358.077 C 341.047 358.077 351.572 356.246 361.093 352.584 C 370.614 348.922 378.84 343.845 385.776 337.35 C 392.709 330.857 397.958 323.459 401.523 315.158 C 405.086 306.859 406.87 298.264 406.87 289.377 C 406.87 281.958 405.552 275.049 402.915 268.651 Z"/>
</svg>