<?xml version="1.0" encoding="utf-8"?>
<svg id="Layer_1" style="enable-background:new 0 0 496.158 496.158;" x="0px" y="0px" width="500px" height="500px" viewBox="0 0 496.158 496.158" xmlns="http://www.w3.org/2000/svg">
  <path style="fill:#56B48C;" d="M248.082,0.003C111.07,0.003,0,111.061,0,248.085c0,137,111.07,248.07,248.082,248.07&#10;&#9;c137.006,0,248.076-111.07,248.076-248.07C496.158,111.061,385.088,0.003,248.082,0.003z"/>
  <path style="fill:#FFFFFF;" d="M 231.38 255.136 C 227.864 246.64 223.03 239.293 216.878 233.09 C 210.726 226.89 203.571 222.03 195.418 218.515 C 187.263 214.999 178.499 213.242 169.124 213.242 C 157.405 213.242 144.611 216.954 130.745 224.375 L 139.095 176.914 L 208.675 176.914 C 215.901 176.914 221.369 175.353 225.081 172.226 C 228.791 169.102 230.647 165 230.647 159.921 C 230.647 148.301 223.03 142.489 207.795 142.489 L 130.451 142.489 C 122.051 142.489 115.997 144.393 112.287 148.202 C 108.575 152.011 106.036 158.115 104.67 166.513 L 92.366 236.679 C 91.29 242.831 90.755 246.153 90.755 246.64 C 90.755 251.035 92.609 254.967 96.321 258.432 C 100.031 261.9 104.279 263.632 109.065 263.632 C 113.46 263.632 119.049 261.069 125.837 255.942 C 132.623 250.815 137.823 247.226 141.438 245.175 C 145.05 243.124 151.056 242.099 159.456 242.099 C 166.29 242.099 172.493 243.736 178.06 247.006 C 183.626 250.279 188.069 255.235 191.39 261.874 C 194.709 268.516 196.37 276.522 196.37 285.897 C 196.37 294.59 194.832 302.354 191.756 309.188 C 188.68 316.025 184.308 321.396 178.646 325.301 C 172.981 329.208 166.389 331.16 158.871 331.16 C 150.668 331.16 143.245 328.743 136.605 323.909 C 129.963 319.075 124.689 312.314 120.785 303.621 C 116.78 294.15 110.678 289.412 102.474 289.412 C 97.688 289.412 93.708 291.122 90.536 294.539 C 87.361 297.958 85.775 301.57 85.775 305.379 C 85.775 311.63 88.046 318.929 92.587 327.278 C 97.128 335.627 104.841 343.025 115.732 349.47 C 126.62 355.915 140.804 359.138 158.286 359.138 C 173.91 359.138 187.704 355.719 199.668 348.884 C 211.629 342.05 220.785 332.821 227.134 321.198 C 233.481 309.578 236.655 296.687 236.655 282.526 C 236.653 272.765 234.895 263.632 231.38 255.136 Z"/>
  <g/>
  <g/>
  <g/>
  <g/>
  <g/>
  <g/>
  <g/>
  <g/>
  <g/>
  <g/>
  <g/>
  <g/>
  <g/>
  <g/>
  <g/>
  <path style="fill:#FFFFFF;" d="M 420.648 278.333 C 416.107 276.282 410.076 275.257 402.557 275.257 L 396.258 275.257 L 396.258 161.878 C 396.258 144.886 388.835 136.39 373.992 136.39 C 369.401 136.39 365.471 137.928 362.201 141.004 C 358.927 144.08 354.753 149.038 349.676 155.872 L 272.039 259.729 C 269.891 262.562 268.085 264.955 266.619 266.907 C 265.154 268.862 263.737 270.887 262.371 272.986 C 261.003 275.087 259.977 277.088 259.296 278.992 C 258.61 280.896 258.27 282.778 258.27 284.632 C 258.27 291.86 260.589 297.573 265.228 301.771 C 269.865 305.971 276.823 308.07 286.102 308.07 L 359.637 308.07 L 359.637 335.316 C 359.637 342.64 361.322 348.184 364.691 351.942 C 368.06 355.7 372.478 357.582 377.948 357.582 C 383.514 357.582 387.957 355.751 391.279 352.089 C 394.597 348.427 396.258 342.838 396.258 335.317 L 396.258 308.071 L 405.194 308.071 C 412.615 308.071 418.181 306.778 421.893 304.189 C 425.603 301.603 427.46 297.476 427.46 291.811 C 427.46 284.877 425.189 280.384 420.648 278.333 Z M 359.637 275.257 L 296.649 275.257 L 359.637 190.15 L 359.637 275.257 Z"/>
</svg>