<?xml version="1.0" encoding="utf-8"?>
<svg id="Layer_1" style="enable-background:new 0 0 496.158 496.158;" x="0px" y="0px" width="500px" height="500px" viewBox="0 0 496.158 496.158" xmlns="http://www.w3.org/2000/svg">
  <path style="fill:#56B48C;" d="M248.082,0.003C111.07,0.003,0,111.061,0,248.085c0,137,111.07,248.07,248.082,248.07&#10;&#9;c137.006,0,248.076-111.07,248.076-248.07C496.158,111.061,385.088,0.003,248.082,0.003z"/>
  <path style="fill:#FFFFFF;" d="M 231.38 255.136 C 227.864 246.64 223.03 239.293 216.878 233.09 C 210.726 226.89 203.571 222.03 195.418 218.515 C 187.263 214.999 178.499 213.242 169.124 213.242 C 157.405 213.242 144.611 216.954 130.745 224.375 L 139.095 176.914 L 208.675 176.914 C 215.901 176.914 221.369 175.353 225.081 172.226 C 228.791 169.102 230.647 165 230.647 159.921 C 230.647 148.301 223.03 142.489 207.795 142.489 L 130.451 142.489 C 122.051 142.489 115.997 144.393 112.287 148.202 C 108.575 152.011 106.036 158.115 104.67 166.513 L 92.366 236.679 C 91.29 242.831 90.755 246.153 90.755 246.64 C 90.755 251.035 92.609 254.967 96.321 258.432 C 100.031 261.9 104.279 263.632 109.065 263.632 C 113.46 263.632 119.049 261.069 125.837 255.942 C 132.623 250.815 137.823 247.226 141.438 245.175 C 145.05 243.124 151.056 242.099 159.456 242.099 C 166.29 242.099 172.493 243.736 178.06 247.006 C 183.626 250.279 188.069 255.235 191.39 261.874 C 194.709 268.516 196.37 276.522 196.37 285.897 C 196.37 294.59 194.832 302.354 191.756 309.188 C 188.68 316.025 184.308 321.396 178.646 325.301 C 172.981 329.208 166.389 331.16 158.871 331.16 C 150.668 331.16 143.245 328.743 136.605 323.909 C 129.963 319.075 124.689 312.314 120.785 303.621 C 116.78 294.15 110.678 289.412 102.474 289.412 C 97.688 289.412 93.708 291.122 90.536 294.539 C 87.361 297.958 85.775 301.57 85.775 305.379 C 85.775 311.63 88.046 318.929 92.587 327.278 C 97.128 335.627 104.841 343.025 115.732 349.47 C 126.62 355.915 140.804 359.138 158.286 359.138 C 173.91 359.138 187.704 355.719 199.668 348.884 C 211.629 342.05 220.785 332.821 227.134 321.198 C 233.481 309.578 236.655 296.687 236.655 282.526 C 236.653 272.765 234.895 263.632 231.38 255.136 Z"/>
  <g/>
  <g/>
  <g/>
  <g/>
  <g/>
  <g/>
  <g/>
  <g/>
  <g/>
  <g/>
  <g/>
  <g/>
  <g/>
  <g/>
  <g/>
  <path style="fill:#FFFFFF;" d="M 407.533 258.181 C 404.017 249.685 399.183 242.338 393.031 236.135 C 386.879 229.935 379.724 225.075 371.571 221.56 C 363.416 218.044 354.652 216.287 345.277 216.287 C 333.558 216.287 320.764 219.999 306.898 227.42 L 315.248 179.959 L 384.828 179.959 C 392.054 179.959 397.522 178.398 401.234 175.271 C 404.944 172.147 406.8 168.045 406.8 162.966 C 406.8 151.346 399.183 145.534 383.948 145.534 L 306.604 145.534 C 298.204 145.534 292.15 147.438 288.44 151.247 C 284.728 155.056 282.189 161.16 280.823 169.558 L 268.519 239.724 C 267.443 245.876 266.908 249.198 266.908 249.685 C 266.908 254.08 268.762 258.012 272.474 261.477 C 276.184 264.945 280.432 266.677 285.218 266.677 C 289.613 266.677 295.202 264.114 301.99 258.987 C 308.776 253.86 313.976 250.271 317.591 248.22 C 321.203 246.169 327.209 245.144 335.609 245.144 C 342.443 245.144 348.646 246.781 354.213 250.051 C 359.779 253.324 364.222 258.28 367.543 264.919 C 370.862 271.561 372.523 279.567 372.523 288.942 C 372.523 297.635 370.985 305.399 367.909 312.233 C 364.833 319.07 360.461 324.441 354.799 328.346 C 349.134 332.253 342.542 334.205 335.024 334.205 C 326.821 334.205 319.398 331.788 312.758 326.954 C 306.116 322.12 300.842 315.359 296.938 306.666 C 292.933 297.195 286.831 292.457 278.627 292.457 C 273.841 292.457 269.861 294.167 266.689 297.584 C 263.514 301.003 261.928 304.615 261.928 308.424 C 261.928 314.675 264.199 321.974 268.74 330.323 C 273.281 338.672 280.994 346.07 291.885 352.515 C 302.773 358.96 316.957 362.183 334.439 362.183 C 350.063 362.183 363.857 358.764 375.821 351.929 C 387.782 345.095 396.938 335.866 403.287 324.243 C 409.634 312.623 412.808 299.732 412.808 285.571 C 412.806 275.81 411.048 266.677 407.533 258.181 Z"/>
</svg>