<?xml version="1.0" encoding="utf-8"?>
<svg id="Layer_1" style="enable-background:new 0 0 496.158 496.158;" x="0px" y="0px" width="500px" height="500px" viewBox="0 0 496.158 496.158" xmlns="http://www.w3.org/2000/svg">
  <path style="fill:#56B48C;" d="M248.082,0.003C111.07,0.003,0,111.061,0,248.085c0,137,111.07,248.07,248.082,248.07&#10;&#9;c137.006,0,248.076-111.07,248.076-248.07C496.158,111.061,385.088,0.003,248.082,0.003z"/>
  <path style="fill:#FFFFFF;" d="M 231.38 255.136 C 227.864 246.64 223.03 239.293 216.878 233.09 C 210.726 226.89 203.571 222.03 195.418 218.515 C 187.263 214.999 178.499 213.242 169.124 213.242 C 157.405 213.242 144.611 216.954 130.745 224.375 L 139.095 176.914 L 208.675 176.914 C 215.901 176.914 221.369 175.353 225.081 172.226 C 228.791 169.102 230.647 165 230.647 159.921 C 230.647 148.301 223.03 142.489 207.795 142.489 L 130.451 142.489 C 122.051 142.489 115.997 144.393 112.287 148.202 C 108.575 152.011 106.036 158.115 104.67 166.513 L 92.366 236.679 C 91.29 242.831 90.755 246.153 90.755 246.64 C 90.755 251.035 92.609 254.967 96.321 258.432 C 100.031 261.9 104.279 263.632 109.065 263.632 C 113.46 263.632 119.049 261.069 125.837 255.942 C 132.623 250.815 137.823 247.226 141.438 245.175 C 145.05 243.124 151.056 242.099 159.456 242.099 C 166.29 242.099 172.493 243.736 178.06 247.006 C 183.626 250.279 188.069 255.235 191.39 261.874 C 194.709 268.516 196.37 276.522 196.37 285.897 C 196.37 294.59 194.832 302.354 191.756 309.188 C 188.68 316.025 184.308 321.396 178.646 325.301 C 172.981 329.208 166.389 331.16 158.871 331.16 C 150.668 331.16 143.245 328.743 136.605 323.909 C 129.963 319.075 124.689 312.314 120.785 303.621 C 116.78 294.15 110.678 289.412 102.474 289.412 C 97.688 289.412 93.708 291.122 90.536 294.539 C 87.361 297.958 85.775 301.57 85.775 305.379 C 85.775 311.63 88.046 318.929 92.587 327.278 C 97.128 335.627 104.841 343.025 115.732 349.47 C 126.62 355.915 140.804 359.138 158.286 359.138 C 173.91 359.138 187.704 355.719 199.668 348.884 C 211.629 342.05 220.785 332.821 227.134 321.198 C 233.481 309.578 236.655 296.687 236.655 282.526 C 236.653 272.765 234.895 263.632 231.38 255.136 Z"/>
  <g/>
  <g/>
  <g/>
  <g/>
  <g/>
  <g/>
  <g/>
  <g/>
  <g/>
  <g/>
  <g/>
  <g/>
  <g/>
  <g/>
  <g/>
  <path style="fill:#FFFFFF;" d="M 416.09 259.109 C 412.867 250.419 408.301 242.875 402.395 236.477 C 396.484 230.082 389.6 225.15 381.74 221.682 C 373.878 218.217 365.309 216.482 356.033 216.482 C 346.365 216.482 337.623 218.386 329.811 222.195 C 321.997 226.004 314.771 231.863 308.132 239.773 C 309.399 213.211 313.599 194.754 320.729 184.402 C 324.245 179.325 328.566 175.297 333.693 172.317 C 338.82 169.339 343.97 167.849 349.147 167.849 C 355.592 167.849 361.255 169.632 366.139 173.196 C 371.021 176.762 374.585 181.472 376.832 187.332 C 378.491 191.923 381.08 195.512 384.596 198.099 C 388.112 200.688 391.921 201.981 396.022 201.981 C 400.71 201.981 404.566 200.347 407.594 197.074 C 410.62 193.803 412.135 190.166 412.135 186.161 C 412.135 179.521 409.718 172.588 404.884 165.36 C 400.05 158.134 392.872 152.08 383.352 147.196 C 373.83 142.314 362.818 139.872 350.319 139.872 C 337.33 139.872 325.757 142.314 315.602 147.196 C 305.444 152.08 296.802 159.306 289.674 168.876 C 282.544 178.448 277.076 190.508 273.268 205.058 C 269.46 219.61 267.555 236.113 267.555 254.57 C 267.555 277.227 270.704 296.391 277.003 312.065 C 283.302 327.739 292.408 339.581 304.322 347.587 C 316.235 355.596 330.396 359.599 346.802 359.599 C 361.059 359.599 373.828 356.45 385.108 350.151 C 396.388 343.852 405.176 335.088 411.475 323.857 C 417.774 312.628 420.923 300.127 420.923 286.357 C 420.924 276.884 419.313 267.802 416.09 259.109 Z M 372.145 318.655 C 365.701 326.712 357.544 330.74 347.682 330.74 C 337.329 330.74 328.735 326.345 321.901 317.556 C 315.064 308.767 311.647 297.781 311.647 284.597 C 311.647 276.394 313.332 269.242 316.701 263.137 C 320.07 257.035 324.513 252.37 330.031 249.148 C 335.547 245.925 341.333 244.314 347.389 244.314 C 353.736 244.314 359.547 245.999 364.822 249.368 C 370.095 252.737 374.244 257.621 377.272 264.016 C 380.298 270.413 381.813 278.056 381.813 286.941 C 381.813 300.028 378.59 310.598 372.145 318.655 Z"/>
</svg>