<?xml version="1.0" encoding="utf-8"?>
<svg id="Layer_1" style="enable-background:new 0 0 496.158 496.158;" x="0px" y="0px" width="500px" height="500px" viewBox="0 0 496.158 496.158" xmlns="http://www.w3.org/2000/svg">
  <path style="fill:#56B48C;" d="M248.082,0.003C111.07,0.003,0,111.061,0,248.085c0,137,111.07,248.07,248.082,248.07&#10;&#9;c137.006,0,248.076-111.07,248.076-248.07C496.158,111.061,385.088,0.003,248.082,0.003z"/>
  <path style="fill:#FFFFFF;" d="M 231.38 255.136 C 227.864 246.64 223.03 239.293 216.878 233.09 C 210.726 226.89 203.571 222.03 195.418 218.515 C 187.263 214.999 178.499 213.242 169.124 213.242 C 157.405 213.242 144.611 216.954 130.745 224.375 L 139.095 176.914 L 208.675 176.914 C 215.901 176.914 221.369 175.353 225.081 172.226 C 228.791 169.102 230.647 165 230.647 159.921 C 230.647 148.301 223.03 142.489 207.795 142.489 L 130.451 142.489 C 122.051 142.489 115.997 144.393 112.287 148.202 C 108.575 152.011 106.036 158.115 104.67 166.513 L 92.366 236.679 C 91.29 242.831 90.755 246.153 90.755 246.64 C 90.755 251.035 92.609 254.967 96.321 258.432 C 100.031 261.9 104.279 263.632 109.065 263.632 C 113.46 263.632 119.049 261.069 125.837 255.942 C 132.623 250.815 137.823 247.226 141.438 245.175 C 145.05 243.124 151.056 242.099 159.456 242.099 C 166.29 242.099 172.493 243.736 178.06 247.006 C 183.626 250.279 188.069 255.235 191.39 261.874 C 194.709 268.516 196.37 276.522 196.37 285.897 C 196.37 294.59 194.832 302.354 191.756 309.188 C 188.68 316.025 184.308 321.396 178.646 325.301 C 172.981 329.208 166.389 331.16 158.871 331.16 C 150.668 331.16 143.245 328.743 136.605 323.909 C 129.963 319.075 124.689 312.314 120.785 303.621 C 116.78 294.15 110.678 289.412 102.474 289.412 C 97.688 289.412 93.708 291.122 90.536 294.539 C 87.361 297.958 85.775 301.57 85.775 305.379 C 85.775 311.63 88.046 318.929 92.587 327.278 C 97.128 335.627 104.841 343.025 115.732 349.47 C 126.62 355.915 140.804 359.138 158.286 359.138 C 173.91 359.138 187.704 355.719 199.668 348.884 C 211.629 342.05 220.785 332.821 227.134 321.198 C 233.481 309.578 236.655 296.687 236.655 282.526 C 236.653 272.765 234.895 263.632 231.38 255.136 Z"/>
  <g/>
  <g/>
  <g/>
  <g/>
  <g/>
  <g/>
  <g/>
  <g/>
  <g/>
  <g/>
  <g/>
  <g/>
  <g/>
  <g/>
  <g/>
  <path style="fill:#FFFFFF;" d="M 409.534 145.951 C 405.334 143.021 398.548 141.556 389.173 141.556 L 291.614 141.556 C 283.898 141.556 277.892 142.534 273.596 144.486 C 269.298 146.441 267.151 150.785 267.151 157.523 C 267.151 163.872 269.176 168.535 273.23 171.512 C 277.281 174.492 283.411 175.98 291.614 175.98 L 369.983 175.98 C 357.678 191.606 347.058 207.305 338.123 223.075 C 329.187 238.847 321.74 254.228 315.784 269.218 C 309.826 284.21 305.53 297.075 302.893 307.817 C 300.256 318.561 298.938 327.057 298.938 333.305 C 298.938 341.412 300.744 347.539 304.358 351.689 C 307.97 355.838 312.755 357.915 318.713 357.915 C 324.962 357.915 329.967 355.985 333.728 352.129 C 337.486 348.273 340.393 341.362 342.444 331.401 C 343.323 327.105 344.348 320.904 345.52 312.797 C 346.692 304.693 347.765 298.101 348.743 293.022 C 349.718 287.945 351.38 281.548 353.723 273.833 C 359.289 256.354 365.416 241.559 372.107 229.448 C 378.795 217.34 385.291 207.208 391.589 199.052 C 397.888 190.899 403.502 183.451 408.435 176.713 C 413.365 169.975 415.832 164.555 415.832 160.453 C 415.833 153.715 413.732 148.881 409.534 145.951 Z"/>
</svg>