<?xml version="1.0" encoding="utf-8"?>
<svg id="Layer_1" style="enable-background:new 0 0 496.158 496.158;" x="0px" y="0px" width="500px" height="500px" viewBox="0 0 496.158 496.158" xmlns="http://www.w3.org/2000/svg">
  <path style="fill:#56B48C;" d="M248.082,0.003C111.07,0.003,0,111.061,0,248.085c0,137,111.07,248.07,248.082,248.07&#10;&#9;c137.006,0,248.076-111.07,248.076-248.07C496.158,111.061,385.088,0.003,248.082,0.003z"/>
  <path style="fill:#FFFFFF;" d="M 231.38 255.136 C 227.864 246.64 223.03 239.293 216.878 233.09 C 210.726 226.89 203.571 222.03 195.418 218.515 C 187.263 214.999 178.499 213.242 169.124 213.242 C 157.405 213.242 144.611 216.954 130.745 224.375 L 139.095 176.914 L 208.675 176.914 C 215.901 176.914 221.369 175.353 225.081 172.226 C 228.791 169.102 230.647 165 230.647 159.921 C 230.647 148.301 223.03 142.489 207.795 142.489 L 130.451 142.489 C 122.051 142.489 115.997 144.393 112.287 148.202 C 108.575 152.011 106.036 158.115 104.67 166.513 L 92.366 236.679 C 91.29 242.831 90.755 246.153 90.755 246.64 C 90.755 251.035 92.609 254.967 96.321 258.432 C 100.031 261.9 104.279 263.632 109.065 263.632 C 113.46 263.632 119.049 261.069 125.837 255.942 C 132.623 250.815 137.823 247.226 141.438 245.175 C 145.05 243.124 151.056 242.099 159.456 242.099 C 166.29 242.099 172.493 243.736 178.06 247.006 C 183.626 250.279 188.069 255.235 191.39 261.874 C 194.709 268.516 196.37 276.522 196.37 285.897 C 196.37 294.59 194.832 302.354 191.756 309.188 C 188.68 316.025 184.308 321.396 178.646 325.301 C 172.981 329.208 166.389 331.16 158.871 331.16 C 150.668 331.16 143.245 328.743 136.605 323.909 C 129.963 319.075 124.689 312.314 120.785 303.621 C 116.78 294.15 110.678 289.412 102.474 289.412 C 97.688 289.412 93.708 291.122 90.536 294.539 C 87.361 297.958 85.775 301.57 85.775 305.379 C 85.775 311.63 88.046 318.929 92.587 327.278 C 97.128 335.627 104.841 343.025 115.732 349.47 C 126.62 355.915 140.804 359.138 158.286 359.138 C 173.91 359.138 187.704 355.719 199.668 348.884 C 211.629 342.05 220.785 332.821 227.134 321.198 C 233.481 309.578 236.655 296.687 236.655 282.526 C 236.653 272.765 234.895 263.632 231.38 255.136 Z"/>
  <g/>
  <g/>
  <g/>
  <g/>
  <g/>
  <g/>
  <g/>
  <g/>
  <g/>
  <g/>
  <g/>
  <g/>
  <g/>
  <g/>
  <g/>
  <path style="fill:#FFFFFF;" d="M 417.612 269.821 C 414.828 262.936 410.702 256.883 405.233 251.657 C 399.763 246.434 392.879 242.209 384.579 238.986 C 394.343 234.202 401.692 228.05 406.625 220.529 C 411.556 213.01 414.022 204.466 414.022 194.894 C 414.022 187.375 412.605 180.271 409.774 173.581 C 406.941 166.893 402.596 160.887 396.737 155.563 C 390.879 150.242 383.553 146.067 374.764 143.039 C 365.975 140.013 355.769 138.498 344.149 138.498 C 330.379 138.498 318.342 141.087 308.041 146.262 C 297.737 151.439 289.926 158.347 284.603 166.99 C 279.28 175.633 276.621 184.838 276.621 194.602 C 276.621 214.817 286.629 229.612 306.649 238.987 C 281.843 248.754 269.442 266.771 269.442 293.04 C 269.442 305.345 272.372 316.455 278.231 326.365 C 284.09 336.278 292.781 344.067 304.306 349.729 C 315.827 355.392 329.695 358.225 345.907 358.225 C 361.531 358.225 375.105 355.392 386.63 349.729 C 398.152 344.066 406.893 336.229 412.851 326.218 C 418.807 316.209 421.787 305.051 421.787 292.746 C 421.786 284.348 420.394 276.706 417.612 269.821 Z M 322.836 175.045 C 328.45 169.332 335.849 166.476 345.028 166.476 C 351.082 166.476 356.454 167.794 361.142 170.431 C 365.828 173.068 369.465 176.682 372.054 181.271 C 374.64 185.862 375.936 191.038 375.936 196.798 C 375.936 201.096 375.204 205.027 373.739 208.59 C 372.274 212.156 370.198 215.232 367.513 217.819 C 364.827 220.408 361.603 222.433 357.845 223.898 C 354.084 225.363 349.909 226.095 345.321 226.095 C 336.239 226.095 328.816 223.337 323.056 217.819 C 317.293 212.303 314.412 205.393 314.412 197.091 C 314.414 188.108 317.22 180.758 322.836 175.045 Z M 376.962 311.789 C 373.836 317.648 369.539 322.189 364.071 325.412 C 358.601 328.635 352.448 330.246 345.614 330.246 C 338.876 330.246 332.771 328.66 327.303 325.485 C 321.833 322.313 317.511 317.82 314.34 312.008 C 311.164 306.199 309.578 299.484 309.578 291.866 C 309.578 279.953 312.948 270.676 319.685 264.034 C 326.423 257.394 334.773 254.073 344.734 254.073 C 351.765 254.073 358.112 255.588 363.777 258.614 C 369.44 261.642 373.834 265.989 376.961 271.651 C 380.086 277.316 381.649 283.956 381.649 291.573 C 381.649 299.19 380.086 305.929 376.962 311.789 Z"/>
</svg>