<?xml version="1.0" encoding="utf-8"?>
<svg id="Layer_1" style="enable-background:new 0 0 496.158 496.158;" x="0px" y="0px" width="500px" height="500px" viewBox="0 0 496.158 496.158" xmlns="http://www.w3.org/2000/svg">
  <path style="fill:#56B48C;" d="M248.082,0.003C111.07,0.003,0,111.061,0,248.085c0,137,111.07,248.07,248.082,248.07&#10;&#9;c137.006,0,248.076-111.07,248.076-248.07C496.158,111.061,385.088,0.003,248.082,0.003z"/>
  <path style="fill:#FFFFFF;" d="M 231.38 255.136 C 227.864 246.64 223.03 239.293 216.878 233.09 C 210.726 226.89 203.571 222.03 195.418 218.515 C 187.263 214.999 178.499 213.242 169.124 213.242 C 157.405 213.242 144.611 216.954 130.745 224.375 L 139.095 176.914 L 208.675 176.914 C 215.901 176.914 221.369 175.353 225.081 172.226 C 228.791 169.102 230.647 165 230.647 159.921 C 230.647 148.301 223.03 142.489 207.795 142.489 L 130.451 142.489 C 122.051 142.489 115.997 144.393 112.287 148.202 C 108.575 152.011 106.036 158.115 104.67 166.513 L 92.366 236.679 C 91.29 242.831 90.755 246.153 90.755 246.64 C 90.755 251.035 92.609 254.967 96.321 258.432 C 100.031 261.9 104.279 263.632 109.065 263.632 C 113.46 263.632 119.049 261.069 125.837 255.942 C 132.623 250.815 137.823 247.226 141.438 245.175 C 145.05 243.124 151.056 242.099 159.456 242.099 C 166.29 242.099 172.493 243.736 178.06 247.006 C 183.626 250.279 188.069 255.235 191.39 261.874 C 194.709 268.516 196.37 276.522 196.37 285.897 C 196.37 294.59 194.832 302.354 191.756 309.188 C 188.68 316.025 184.308 321.396 178.646 325.301 C 172.981 329.208 166.389 331.16 158.871 331.16 C 150.668 331.16 143.245 328.743 136.605 323.909 C 129.963 319.075 124.689 312.314 120.785 303.621 C 116.78 294.15 110.678 289.412 102.474 289.412 C 97.688 289.412 93.708 291.122 90.536 294.539 C 87.361 297.958 85.775 301.57 85.775 305.379 C 85.775 311.63 88.046 318.929 92.587 327.278 C 97.128 335.627 104.841 343.025 115.732 349.47 C 126.62 355.915 140.804 359.138 158.286 359.138 C 173.91 359.138 187.704 355.719 199.668 348.884 C 211.629 342.05 220.785 332.821 227.134 321.198 C 233.481 309.578 236.655 296.687 236.655 282.526 C 236.653 272.765 234.895 263.632 231.38 255.136 Z"/>
  <g/>
  <g/>
  <g/>
  <g/>
  <g/>
  <g/>
  <g/>
  <g/>
  <g/>
  <g/>
  <g/>
  <g/>
  <g/>
  <g/>
  <g/>
  <path style="fill:#FFFFFF;" d="M 422.474 196.693 C 418.86 183.413 413.685 172.402 406.947 163.661 C 400.209 154.922 391.907 148.257 382.045 143.666 C 372.181 139.077 360.951 136.781 348.354 136.781 C 337.416 136.781 327.429 138.637 318.398 142.347 C 309.364 146.059 301.576 151.235 295.034 157.874 C 288.49 164.516 283.462 172.353 279.946 181.385 C 276.43 190.419 274.673 199.966 274.673 210.023 C 274.673 219.398 276.235 228.359 279.361 236.903 C 282.485 245.449 286.953 252.92 292.764 259.315 C 298.573 265.712 305.457 270.693 313.418 274.256 C 321.376 277.822 329.945 279.603 339.126 279.603 C 348.794 279.603 357.605 277.676 365.566 273.817 C 373.524 269.961 380.727 264.222 387.172 256.605 C 385.804 283.071 381.606 301.528 374.574 311.976 C 371.058 317.153 366.81 321.157 361.83 323.988 C 356.85 326.821 351.576 328.236 346.01 328.236 C 339.759 328.236 334.145 326.455 329.164 322.889 C 324.184 319.326 320.618 314.613 318.471 308.753 C 316.713 303.969 314.124 300.38 310.707 297.986 C 307.288 295.594 303.431 294.397 299.135 294.397 C 294.447 294.397 290.589 296.008 287.563 299.231 C 284.535 302.454 283.022 306.116 283.022 310.217 C 283.022 316.859 285.462 323.767 290.346 330.945 C 295.228 338.123 302.358 344.129 311.733 348.963 C 321.108 353.797 332.142 356.214 344.838 356.214 C 357.729 356.214 369.251 353.845 379.408 349.11 C 389.563 344.375 398.279 337.149 405.555 327.43 C 412.828 317.714 418.372 305.702 422.181 291.395 C 425.99 277.09 427.894 260.56 427.894 241.81 C 427.894 225.014 426.086 209.975 422.474 196.693 Z M 378.602 233.167 C 375.134 239.223 370.641 243.837 365.125 247.01 C 359.606 250.185 353.82 251.771 347.767 251.771 C 337.903 251.771 329.749 247.915 323.304 240.199 C 316.859 232.486 313.636 222.134 313.636 209.144 C 313.636 196.059 316.859 185.537 323.304 177.577 C 329.749 169.619 337.61 165.639 346.888 165.639 C 352.258 165.639 357.215 166.811 361.756 169.155 C 366.297 171.499 370.201 174.721 373.475 178.823 C 376.746 182.925 379.284 187.784 381.092 193.398 C 382.898 199.015 383.802 205.142 383.802 211.782 C 383.802 219.984 382.067 227.113 378.602 233.167 Z"/>
</svg>