<?xml version="1.0" encoding="utf-8"?>
<svg id="Layer_1" style="enable-background:new 0 0 496.158 496.158;" x="0px" y="0px" width="500px" height="500px" viewBox="0 0 496.158 496.158" xmlns="http://www.w3.org/2000/svg">
  <path style="fill:#56B48C;" d="M248.082,0.003C111.07,0.003,0,111.061,0,248.085c0,137,111.07,248.07,248.082,248.07&#10;&#9;c137.006,0,248.076-111.07,248.076-248.07C496.158,111.061,385.088,0.003,248.082,0.003z"/>
  <path style="fill:#FFFFFF;" d="M 232.112 258.652 C 228.889 249.962 224.323 242.418 218.416 236.02 C 212.506 229.625 205.622 224.693 197.762 221.225 C 189.9 217.76 181.33 216.025 172.054 216.025 C 162.386 216.025 153.645 217.929 145.833 221.738 C 138.019 225.547 130.793 231.406 124.153 239.316 C 125.421 212.754 129.621 194.297 136.751 183.945 C 140.267 178.868 144.588 174.84 149.715 171.86 C 154.842 168.882 159.992 167.392 165.169 167.392 C 171.614 167.392 177.277 169.175 182.161 172.739 C 187.043 176.305 190.607 181.015 192.854 186.875 C 194.513 191.466 197.102 195.055 200.618 197.642 C 204.134 200.231 207.942 201.524 212.044 201.524 C 216.732 201.524 220.588 199.89 223.616 196.617 C 226.642 193.346 228.157 189.709 228.157 185.704 C 228.157 179.064 225.74 172.131 220.906 164.903 C 216.072 157.677 208.894 151.623 199.373 146.739 C 189.852 141.857 178.84 139.415 166.341 139.415 C 153.352 139.415 141.779 141.857 131.624 146.739 C 121.466 151.623 112.824 158.849 105.696 168.419 C 98.566 177.991 93.098 190.051 89.29 204.601 C 85.481 219.153 83.577 235.656 83.577 254.113 C 83.577 276.77 86.726 295.934 93.025 311.608 C 99.324 327.282 108.429 339.124 120.344 347.13 C 132.257 355.139 146.418 359.142 162.824 359.142 C 177.081 359.142 189.85 355.993 201.13 349.694 C 212.41 343.395 221.198 334.631 227.497 323.4 C 233.796 312.171 236.945 299.67 236.945 285.9 C 236.946 276.427 235.335 267.345 232.112 258.652 Z M 188.167 318.198 C 181.722 326.255 173.566 330.283 163.704 330.283 C 153.351 330.283 144.757 325.888 137.923 317.099 C 131.086 308.31 127.669 297.324 127.669 284.14 C 127.669 275.937 129.354 268.785 132.723 262.68 C 136.092 256.578 140.535 251.913 146.053 248.691 C 151.569 245.468 157.355 243.857 163.411 243.857 C 169.758 243.857 175.569 245.542 180.843 248.911 C 186.117 252.28 190.266 257.164 193.294 263.559 C 196.32 269.956 197.835 277.599 197.835 286.484 C 197.835 299.571 194.612 310.141 188.167 318.198 Z"/>
  <g/>
  <g/>
  <g/>
  <g/>
  <g/>
  <g/>
  <g/>
  <g/>
  <g/>
  <g/>
  <g/>
  <g/>
  <g/>
  <g/>
  <g/>
  <path style="fill:#FFFFFF;" d="M 408.385 326.062 C 404.379 322.938 398.571 321.374 390.953 321.374 L 314.488 321.374 C 316.927 317.664 319.322 314.489 321.666 311.853 C 327.134 305.213 337.217 295.886 351.915 283.874 C 366.611 271.862 377.085 263.05 383.336 257.434 C 389.584 251.82 395.714 244.056 401.72 234.143 C 407.726 224.232 410.729 213.221 410.729 201.111 C 410.729 193.398 409.288 185.95 406.408 178.772 C 403.526 171.594 399.498 165.272 394.323 159.802 C 389.145 154.334 383.139 150.038 376.305 146.911 C 365.758 142.223 353.014 139.88 338.073 139.88 C 325.67 139.88 314.855 141.711 305.627 145.373 C 296.399 149.035 288.781 153.846 282.775 159.802 C 276.769 165.76 272.251 172.4 269.225 179.724 C 266.197 187.048 264.684 194.079 264.684 200.818 C 264.684 206.384 266.295 210.779 269.518 214.002 C 272.741 217.225 276.791 218.836 281.676 218.836 C 287.242 218.836 291.465 217.078 294.347 213.563 C 297.227 210.047 299.815 205.019 302.111 198.475 C 304.405 191.933 306.041 187.928 307.018 186.463 C 314.342 175.234 324.399 169.617 337.194 169.617 C 343.248 169.617 348.84 170.986 353.966 173.719 C 359.093 176.454 363.145 180.288 366.124 185.218 C 369.102 190.151 370.592 195.742 370.592 201.99 C 370.592 207.753 369.2 213.636 366.417 219.641 C 363.634 225.646 359.58 231.506 354.259 237.219 C 348.936 242.932 342.27 248.622 334.264 254.284 C 329.771 257.312 322.3 263.636 311.852 273.254 C 301.401 282.874 289.682 294.421 276.696 307.898 C 273.569 311.219 270.69 315.785 268.053 321.594 C 265.416 327.406 264.098 332.068 264.098 335.583 C 264.098 341.053 266.149 345.814 270.25 349.865 C 274.352 353.919 280.064 355.944 287.389 355.944 L 395.202 355.944 C 401.647 355.944 406.456 354.285 409.631 350.964 C 412.804 347.645 414.392 343.592 414.392 338.806 C 414.391 333.437 412.388 329.189 408.385 326.062 Z"/>
</svg>