<?xml version="1.0" encoding="utf-8"?>
<svg id="Layer_1" style="enable-background:new 0 0 496.158 496.158;" x="0px" y="0px" width="500px" height="500px" viewBox="0 0 496.158 496.158" xmlns="http://www.w3.org/2000/svg">
  <path style="fill:#56B48C;" d="M248.082,0.003C111.07,0.003,0,111.061,0,248.085c0,137,111.07,248.07,248.082,248.07&#10;&#9;c137.006,0,248.076-111.07,248.076-248.07C496.158,111.061,385.088,0.003,248.082,0.003z"/>
  <path style="fill:#FFFFFF;" d="M 232.112 258.652 C 228.889 249.962 224.323 242.418 218.416 236.02 C 212.506 229.625 205.622 224.693 197.762 221.225 C 189.9 217.76 181.33 216.025 172.054 216.025 C 162.386 216.025 153.645 217.929 145.833 221.738 C 138.019 225.547 130.793 231.406 124.153 239.316 C 125.421 212.754 129.621 194.297 136.751 183.945 C 140.267 178.868 144.588 174.84 149.715 171.86 C 154.842 168.882 159.992 167.392 165.169 167.392 C 171.614 167.392 177.277 169.175 182.161 172.739 C 187.043 176.305 190.607 181.015 192.854 186.875 C 194.513 191.466 197.102 195.055 200.618 197.642 C 204.134 200.231 207.942 201.524 212.044 201.524 C 216.732 201.524 220.588 199.89 223.616 196.617 C 226.642 193.346 228.157 189.709 228.157 185.704 C 228.157 179.064 225.74 172.131 220.906 164.903 C 216.072 157.677 208.894 151.623 199.373 146.739 C 189.852 141.857 178.84 139.415 166.341 139.415 C 153.352 139.415 141.779 141.857 131.624 146.739 C 121.466 151.623 112.824 158.849 105.696 168.419 C 98.566 177.991 93.098 190.051 89.29 204.601 C 85.481 219.153 83.577 235.656 83.577 254.113 C 83.577 276.77 86.726 295.934 93.025 311.608 C 99.324 327.282 108.429 339.124 120.344 347.13 C 132.257 355.139 146.418 359.142 162.824 359.142 C 177.081 359.142 189.85 355.993 201.13 349.694 C 212.41 343.395 221.198 334.631 227.497 323.4 C 233.796 312.171 236.945 299.67 236.945 285.9 C 236.946 276.427 235.335 267.345 232.112 258.652 Z M 188.167 318.198 C 181.722 326.255 173.566 330.283 163.704 330.283 C 153.351 330.283 144.757 325.888 137.923 317.099 C 131.086 308.31 127.669 297.324 127.669 284.14 C 127.669 275.937 129.354 268.785 132.723 262.68 C 136.092 256.578 140.535 251.913 146.053 248.691 C 151.569 245.468 157.355 243.857 163.411 243.857 C 169.758 243.857 175.569 245.542 180.843 248.911 C 186.117 252.28 190.266 257.164 193.294 263.559 C 196.32 269.956 197.835 277.599 197.835 286.484 C 197.835 299.571 194.612 310.141 188.167 318.198 Z"/>
  <g/>
  <g/>
  <g/>
  <g/>
  <g/>
  <g/>
  <g/>
  <g/>
  <g/>
  <g/>
  <g/>
  <g/>
  <g/>
  <g/>
  <g/>
  <path style="fill:#FFFFFF;" d="M 413.023 272.303 C 410.386 265.908 406.455 260.072 401.231 254.798 C 396.005 249.525 389.585 244.837 381.968 240.734 C 389.878 234.095 395.957 227.284 400.205 220.3 C 404.453 213.319 406.577 204.945 406.577 195.178 C 406.577 187.758 405.112 180.823 402.182 174.377 C 399.252 167.931 394.906 162.269 389.145 157.385 C 383.381 152.503 376.595 148.768 368.784 146.179 C 360.97 143.593 352.327 142.297 342.856 142.297 C 332.016 142.297 322.202 143.835 313.413 146.911 C 304.624 149.987 297.274 154.066 291.367 159.142 C 285.458 164.221 280.967 169.568 277.89 175.182 C 274.814 180.799 273.276 186.145 273.276 191.222 C 273.276 196.495 274.911 200.721 278.183 203.893 C 281.454 207.068 285.042 208.654 288.95 208.654 C 292.268 208.654 295.198 208.068 297.739 206.896 C 300.277 205.724 302.035 204.113 303.012 202.062 C 304.671 198.253 306.502 194.202 308.505 189.904 C 310.506 185.608 312.629 182.092 314.877 179.357 C 317.122 176.624 320.174 174.427 324.032 172.765 C 327.888 171.106 332.796 170.275 338.754 170.275 C 347.543 170.275 354.524 172.985 359.701 178.405 C 364.876 183.825 367.465 190.296 367.465 197.814 C 367.465 207.679 364.217 215.246 357.724 220.519 C 351.229 225.792 343.49 228.429 334.506 228.429 L 328.5 228.429 C 321.564 228.429 316.342 229.871 312.826 232.75 C 309.31 235.632 307.553 239.415 307.553 244.103 C 307.553 248.889 309.018 252.624 311.948 255.309 C 314.878 257.996 319.027 259.337 324.399 259.337 C 325.571 259.337 328.208 259.143 332.309 258.751 C 336.411 258.362 339.436 258.165 341.391 258.165 C 352.524 258.165 361.214 261.413 367.465 267.906 C 373.713 274.402 376.84 283.359 376.84 294.786 C 376.84 302.502 375.009 309.288 371.347 315.147 C 367.685 321.006 363.045 325.426 357.431 328.404 C 351.815 331.384 345.98 332.872 339.926 332.872 C 329.379 332.872 321.199 329.576 315.39 322.984 C 309.578 316.392 304.133 306.31 299.057 292.734 C 298.274 290.49 296.615 288.56 294.077 286.949 C 291.536 285.338 288.899 284.532 286.167 284.532 C 280.696 284.532 276.133 286.267 272.471 289.732 C 268.809 293.2 266.978 297.766 266.978 303.428 C 266.978 307.823 268.516 313.389 271.592 320.127 C 274.668 326.865 279.209 333.384 285.215 339.683 C 291.221 345.982 298.861 351.232 308.14 355.43 C 317.416 359.628 327.915 361.729 339.634 361.729 C 351.155 361.729 361.68 359.898 371.201 356.236 C 380.722 352.574 388.948 347.497 395.884 341.002 C 402.817 334.509 408.066 327.111 411.631 318.81 C 415.194 310.51 416.978 301.915 416.978 293.029 C 416.978 285.609 415.66 278.701 413.023 272.303 Z"/>
</svg>