<?xml version="1.0" encoding="utf-8"?>
<svg id="Layer_1" style="enable-background:new 0 0 496.158 496.158;" x="0px" y="0px" width="500px" height="500px" viewBox="0 0 496.158 496.158" xmlns="http://www.w3.org/2000/svg">
  <path style="fill:#56B48C;" d="M248.082,0.003C111.07,0.003,0,111.061,0,248.085c0,137,111.07,248.07,248.082,248.07&#10;&#9;c137.006,0,248.076-111.07,248.076-248.07C496.158,111.061,385.088,0.003,248.082,0.003z"/>
  <path style="fill:#FFFFFF;" d="M 232.112 258.652 C 228.889 249.962 224.323 242.418 218.416 236.02 C 212.506 229.625 205.622 224.693 197.762 221.225 C 189.9 217.76 181.33 216.025 172.054 216.025 C 162.386 216.025 153.645 217.929 145.833 221.738 C 138.019 225.547 130.793 231.406 124.153 239.316 C 125.421 212.754 129.621 194.297 136.751 183.945 C 140.267 178.868 144.588 174.84 149.715 171.86 C 154.842 168.882 159.992 167.392 165.169 167.392 C 171.614 167.392 177.277 169.175 182.161 172.739 C 187.043 176.305 190.607 181.015 192.854 186.875 C 194.513 191.466 197.102 195.055 200.618 197.642 C 204.134 200.231 207.942 201.524 212.044 201.524 C 216.732 201.524 220.588 199.89 223.616 196.617 C 226.642 193.346 228.157 189.709 228.157 185.704 C 228.157 179.064 225.74 172.131 220.906 164.903 C 216.072 157.677 208.894 151.623 199.373 146.739 C 189.852 141.857 178.84 139.415 166.341 139.415 C 153.352 139.415 141.779 141.857 131.624 146.739 C 121.466 151.623 112.824 158.849 105.696 168.419 C 98.566 177.991 93.098 190.051 89.29 204.601 C 85.481 219.153 83.577 235.656 83.577 254.113 C 83.577 276.77 86.726 295.934 93.025 311.608 C 99.324 327.282 108.429 339.124 120.344 347.13 C 132.257 355.139 146.418 359.142 162.824 359.142 C 177.081 359.142 189.85 355.993 201.13 349.694 C 212.41 343.395 221.198 334.631 227.497 323.4 C 233.796 312.171 236.945 299.67 236.945 285.9 C 236.946 276.427 235.335 267.345 232.112 258.652 Z M 188.167 318.198 C 181.722 326.255 173.566 330.283 163.704 330.283 C 153.351 330.283 144.757 325.888 137.923 317.099 C 131.086 308.31 127.669 297.324 127.669 284.14 C 127.669 275.937 129.354 268.785 132.723 262.68 C 136.092 256.578 140.535 251.913 146.053 248.691 C 151.569 245.468 157.355 243.857 163.411 243.857 C 169.758 243.857 175.569 245.542 180.843 248.911 C 186.117 252.28 190.266 257.164 193.294 263.559 C 196.32 269.956 197.835 277.599 197.835 286.484 C 197.835 299.571 194.612 310.141 188.167 318.198 Z"/>
  <g/>
  <g/>
  <g/>
  <g/>
  <g/>
  <g/>
  <g/>
  <g/>
  <g/>
  <g/>
  <g/>
  <g/>
  <g/>
  <g/>
  <g/>
  <path style="fill:#FFFFFF;" d="M 425.228 276.526 C 420.688 274.475 414.656 273.451 407.137 273.451 L 400.839 273.451 L 400.839 160.071 C 400.839 143.079 393.415 134.583 378.572 134.583 C 373.981 134.583 370.051 136.121 366.78 139.197 C 363.507 142.273 359.332 147.231 354.257 154.065 L 276.619 257.922 C 274.47 260.755 272.664 263.148 271.199 265.1 C 269.734 267.055 268.317 269.081 266.951 271.18 C 265.582 273.28 264.557 275.281 263.875 277.185 C 263.19 279.089 262.85 280.971 262.85 282.826 C 262.85 290.053 265.168 295.766 269.808 299.964 C 274.445 304.164 281.403 306.263 290.682 306.263 L 364.217 306.263 L 364.217 333.509 C 364.217 340.833 365.902 346.378 369.271 350.135 C 372.641 353.893 377.059 355.775 382.529 355.775 C 388.094 355.775 392.537 353.944 395.858 350.283 C 399.177 346.62 400.839 341.031 400.839 333.51 L 400.839 306.264 L 409.774 306.264 C 417.194 306.264 422.761 304.971 426.473 302.382 C 430.184 299.796 432.039 295.669 432.039 290.004 C 432.039 283.07 429.77 278.577 425.228 276.526 Z M 364.217 273.451 L 301.229 273.451 L 364.217 188.343 L 364.217 273.451 Z"/>
</svg>