<?xml version="1.0" encoding="utf-8"?>
<svg id="Layer_1" style="enable-background:new 0 0 496.158 496.158;" x="0px" y="0px" width="500px" height="500px" viewBox="0 0 496.158 496.158" xmlns="http://www.w3.org/2000/svg">
  <path style="fill:#56B48C;" d="M248.082,0.003C111.07,0.003,0,111.061,0,248.085c0,137,111.07,248.07,248.082,248.07&#10;&#9;c137.006,0,248.076-111.07,248.076-248.07C496.158,111.061,385.088,0.003,248.082,0.003z"/>
  <path style="fill:#FFFFFF;" d="M 232.112 258.652 C 228.889 249.962 224.323 242.418 218.416 236.02 C 212.506 229.625 205.622 224.693 197.762 221.225 C 189.9 217.76 181.33 216.025 172.054 216.025 C 162.386 216.025 153.645 217.929 145.833 221.738 C 138.019 225.547 130.793 231.406 124.153 239.316 C 125.421 212.754 129.621 194.297 136.751 183.945 C 140.267 178.868 144.588 174.84 149.715 171.86 C 154.842 168.882 159.992 167.392 165.169 167.392 C 171.614 167.392 177.277 169.175 182.161 172.739 C 187.043 176.305 190.607 181.015 192.854 186.875 C 194.513 191.466 197.102 195.055 200.618 197.642 C 204.134 200.231 207.942 201.524 212.044 201.524 C 216.732 201.524 220.588 199.89 223.616 196.617 C 226.642 193.346 228.157 189.709 228.157 185.704 C 228.157 179.064 225.74 172.131 220.906 164.903 C 216.072 157.677 208.894 151.623 199.373 146.739 C 189.852 141.857 178.84 139.415 166.341 139.415 C 153.352 139.415 141.779 141.857 131.624 146.739 C 121.466 151.623 112.824 158.849 105.696 168.419 C 98.566 177.991 93.098 190.051 89.29 204.601 C 85.481 219.153 83.577 235.656 83.577 254.113 C 83.577 276.77 86.726 295.934 93.025 311.608 C 99.324 327.282 108.429 339.124 120.344 347.13 C 132.257 355.139 146.418 359.142 162.824 359.142 C 177.081 359.142 189.85 355.993 201.13 349.694 C 212.41 343.395 221.198 334.631 227.497 323.4 C 233.796 312.171 236.945 299.67 236.945 285.9 C 236.946 276.427 235.335 267.345 232.112 258.652 Z M 188.167 318.198 C 181.722 326.255 173.566 330.283 163.704 330.283 C 153.351 330.283 144.757 325.888 137.923 317.099 C 131.086 308.31 127.669 297.324 127.669 284.14 C 127.669 275.937 129.354 268.785 132.723 262.68 C 136.092 256.578 140.535 251.913 146.053 248.691 C 151.569 245.468 157.355 243.857 163.411 243.857 C 169.758 243.857 175.569 245.542 180.843 248.911 C 186.117 252.28 190.266 257.164 193.294 263.559 C 196.32 269.956 197.835 277.599 197.835 286.484 C 197.835 299.571 194.612 310.141 188.167 318.198 Z"/>
  <g/>
  <g/>
  <g/>
  <g/>
  <g/>
  <g/>
  <g/>
  <g/>
  <g/>
  <g/>
  <g/>
  <g/>
  <g/>
  <g/>
  <g/>
  <path style="fill:#FFFFFF;" d="M 408.044 257.702 C 404.528 249.206 399.694 241.859 393.542 235.656 C 387.39 229.456 380.235 224.596 372.082 221.081 C 363.927 217.565 355.163 215.808 345.788 215.808 C 334.069 215.808 321.275 219.52 307.409 226.941 L 315.759 179.48 L 385.339 179.48 C 392.565 179.48 398.033 177.919 401.745 174.792 C 405.455 171.668 407.311 167.566 407.311 162.487 C 407.311 150.867 399.694 145.055 384.459 145.055 L 307.115 145.055 C 298.715 145.055 292.661 146.959 288.951 150.768 C 285.239 154.577 282.7 160.681 281.334 169.079 L 269.03 239.245 C 267.954 245.397 267.419 248.719 267.419 249.206 C 267.419 253.601 269.273 257.533 272.985 260.998 C 276.695 264.466 280.943 266.198 285.729 266.198 C 290.124 266.198 295.713 263.635 302.501 258.508 C 309.287 253.381 314.487 249.792 318.102 247.741 C 321.714 245.69 327.72 244.665 336.12 244.665 C 342.954 244.665 349.157 246.302 354.724 249.572 C 360.29 252.845 364.733 257.801 368.054 264.44 C 371.373 271.082 373.034 279.088 373.034 288.463 C 373.034 297.156 371.496 304.92 368.42 311.754 C 365.344 318.591 360.972 323.962 355.31 327.867 C 349.645 331.774 343.053 333.726 335.535 333.726 C 327.332 333.726 319.909 331.309 313.269 326.475 C 306.627 321.641 301.353 314.88 297.449 306.187 C 293.444 296.716 287.342 291.978 279.138 291.978 C 274.352 291.978 270.372 293.688 267.2 297.105 C 264.025 300.524 262.439 304.136 262.439 307.945 C 262.439 314.196 264.71 321.495 269.251 329.844 C 273.792 338.193 281.505 345.591 292.396 352.036 C 303.284 358.481 317.468 361.704 334.95 361.704 C 350.574 361.704 364.368 358.285 376.332 351.45 C 388.293 344.616 397.449 335.387 403.798 323.764 C 410.145 312.144 413.319 299.253 413.319 285.092 C 413.317 275.331 411.559 266.198 408.044 257.702 Z"/>
</svg>