<?xml version="1.0" encoding="utf-8"?>
<svg id="Layer_1" style="enable-background:new 0 0 496.158 496.158;" x="0px" y="0px" width="500px" height="500px" viewBox="0 0 496.158 496.158" xmlns="http://www.w3.org/2000/svg">
  <path style="fill:#56B48C;" d="M248.082,0.003C111.07,0.003,0,111.061,0,248.085c0,137,111.07,248.07,248.082,248.07&#10;&#9;c137.006,0,248.076-111.07,248.076-248.07C496.158,111.061,385.088,0.003,248.082,0.003z"/>
  <path style="fill:#FFFFFF;" d="M 232.112 258.652 C 228.889 249.962 224.323 242.418 218.416 236.02 C 212.506 229.625 205.622 224.693 197.762 221.225 C 189.9 217.76 181.33 216.025 172.054 216.025 C 162.386 216.025 153.645 217.929 145.833 221.738 C 138.019 225.547 130.793 231.406 124.153 239.316 C 125.421 212.754 129.621 194.297 136.751 183.945 C 140.267 178.868 144.588 174.84 149.715 171.86 C 154.842 168.882 159.992 167.392 165.169 167.392 C 171.614 167.392 177.277 169.175 182.161 172.739 C 187.043 176.305 190.607 181.015 192.854 186.875 C 194.513 191.466 197.102 195.055 200.618 197.642 C 204.134 200.231 207.942 201.524 212.044 201.524 C 216.732 201.524 220.588 199.89 223.616 196.617 C 226.642 193.346 228.157 189.709 228.157 185.704 C 228.157 179.064 225.74 172.131 220.906 164.903 C 216.072 157.677 208.894 151.623 199.373 146.739 C 189.852 141.857 178.84 139.415 166.341 139.415 C 153.352 139.415 141.779 141.857 131.624 146.739 C 121.466 151.623 112.824 158.849 105.696 168.419 C 98.566 177.991 93.098 190.051 89.29 204.601 C 85.481 219.153 83.577 235.656 83.577 254.113 C 83.577 276.77 86.726 295.934 93.025 311.608 C 99.324 327.282 108.429 339.124 120.344 347.13 C 132.257 355.139 146.418 359.142 162.824 359.142 C 177.081 359.142 189.85 355.993 201.13 349.694 C 212.41 343.395 221.198 334.631 227.497 323.4 C 233.796 312.171 236.945 299.67 236.945 285.9 C 236.946 276.427 235.335 267.345 232.112 258.652 Z M 188.167 318.198 C 181.722 326.255 173.566 330.283 163.704 330.283 C 153.351 330.283 144.757 325.888 137.923 317.099 C 131.086 308.31 127.669 297.324 127.669 284.14 C 127.669 275.937 129.354 268.785 132.723 262.68 C 136.092 256.578 140.535 251.913 146.053 248.691 C 151.569 245.468 157.355 243.857 163.411 243.857 C 169.758 243.857 175.569 245.542 180.843 248.911 C 186.117 252.28 190.266 257.164 193.294 263.559 C 196.32 269.956 197.835 277.599 197.835 286.484 C 197.835 299.571 194.612 310.141 188.167 318.198 Z"/>
  <g/>
  <g/>
  <g/>
  <g/>
  <g/>
  <g/>
  <g/>
  <g/>
  <g/>
  <g/>
  <g/>
  <g/>
  <g/>
  <g/>
  <g/>
  <path style="fill:#FFFFFF;" d="M 406.996 264.119 C 403.773 255.429 399.207 247.885 393.3 241.487 C 387.39 235.092 380.506 230.16 372.646 226.692 C 364.784 223.227 356.214 221.492 346.938 221.492 C 337.27 221.492 328.529 223.396 320.717 227.205 C 312.903 231.014 305.677 236.873 299.037 244.783 C 300.305 218.221 304.505 199.764 311.635 189.412 C 315.151 184.335 319.472 180.307 324.599 177.327 C 329.726 174.349 334.876 172.859 340.053 172.859 C 346.498 172.859 352.161 174.642 357.045 178.206 C 361.927 181.772 365.491 186.482 367.738 192.342 C 369.397 196.933 371.986 200.522 375.502 203.109 C 379.018 205.698 382.826 206.991 386.928 206.991 C 391.616 206.991 395.472 205.357 398.5 202.084 C 401.526 198.813 403.041 195.176 403.041 191.171 C 403.041 184.531 400.624 177.598 395.79 170.37 C 390.956 163.144 383.778 157.09 374.257 152.206 C 364.736 147.324 353.724 144.882 341.225 144.882 C 328.236 144.882 316.663 147.324 306.508 152.206 C 296.35 157.09 287.708 164.316 280.58 173.886 C 273.45 183.458 267.982 195.518 264.174 210.068 C 260.365 224.62 258.461 241.123 258.461 259.58 C 258.461 282.237 261.61 301.401 267.909 317.075 C 274.208 332.749 283.313 344.591 295.228 352.597 C 307.141 360.606 321.302 364.609 337.708 364.609 C 351.965 364.609 364.734 361.46 376.014 355.161 C 387.294 348.862 396.082 340.098 402.381 328.867 C 408.68 317.638 411.829 305.137 411.829 291.367 C 411.83 281.894 410.219 272.812 406.996 264.119 Z M 363.051 323.665 C 356.606 331.722 348.45 335.75 338.588 335.75 C 328.235 335.75 319.641 331.355 312.807 322.566 C 305.97 313.777 302.553 302.791 302.553 289.607 C 302.553 281.404 304.238 274.252 307.607 268.147 C 310.976 262.045 315.419 257.38 320.937 254.158 C 326.453 250.935 332.239 249.324 338.295 249.324 C 344.642 249.324 350.453 251.009 355.727 254.378 C 361.001 257.747 365.15 262.631 368.178 269.026 C 371.204 275.423 372.719 283.066 372.719 291.951 C 372.719 305.038 369.496 315.608 363.051 323.665 Z"/>
</svg>