<?xml version="1.0" encoding="utf-8"?>
<svg id="Layer_1" style="enable-background:new 0 0 496.158 496.158;" x="0px" y="0px" width="500px" height="500px" viewBox="0 0 496.158 496.158" xmlns="http://www.w3.org/2000/svg">
  <path style="fill:#56B48C;" d="M248.082,0.003C111.07,0.003,0,111.061,0,248.085c0,137,111.07,248.07,248.082,248.07&#10;&#9;c137.006,0,248.076-111.07,248.076-248.07C496.158,111.061,385.088,0.003,248.082,0.003z"/>
  <path style="fill:#FFFFFF;" d="M 232.112 258.652 C 228.889 249.962 224.323 242.418 218.416 236.02 C 212.506 229.625 205.622 224.693 197.762 221.225 C 189.9 217.76 181.33 216.025 172.054 216.025 C 162.386 216.025 153.645 217.929 145.833 221.738 C 138.019 225.547 130.793 231.406 124.153 239.316 C 125.421 212.754 129.621 194.297 136.751 183.945 C 140.267 178.868 144.588 174.84 149.715 171.86 C 154.842 168.882 159.992 167.392 165.169 167.392 C 171.614 167.392 177.277 169.175 182.161 172.739 C 187.043 176.305 190.607 181.015 192.854 186.875 C 194.513 191.466 197.102 195.055 200.618 197.642 C 204.134 200.231 207.942 201.524 212.044 201.524 C 216.732 201.524 220.588 199.89 223.616 196.617 C 226.642 193.346 228.157 189.709 228.157 185.704 C 228.157 179.064 225.74 172.131 220.906 164.903 C 216.072 157.677 208.894 151.623 199.373 146.739 C 189.852 141.857 178.84 139.415 166.341 139.415 C 153.352 139.415 141.779 141.857 131.624 146.739 C 121.466 151.623 112.824 158.849 105.696 168.419 C 98.566 177.991 93.098 190.051 89.29 204.601 C 85.481 219.153 83.577 235.656 83.577 254.113 C 83.577 276.77 86.726 295.934 93.025 311.608 C 99.324 327.282 108.429 339.124 120.344 347.13 C 132.257 355.139 146.418 359.142 162.824 359.142 C 177.081 359.142 189.85 355.993 201.13 349.694 C 212.41 343.395 221.198 334.631 227.497 323.4 C 233.796 312.171 236.945 299.67 236.945 285.9 C 236.946 276.427 235.335 267.345 232.112 258.652 Z M 188.167 318.198 C 181.722 326.255 173.566 330.283 163.704 330.283 C 153.351 330.283 144.757 325.888 137.923 317.099 C 131.086 308.31 127.669 297.324 127.669 284.14 C 127.669 275.937 129.354 268.785 132.723 262.68 C 136.092 256.578 140.535 251.913 146.053 248.691 C 151.569 245.468 157.355 243.857 163.411 243.857 C 169.758 243.857 175.569 245.542 180.843 248.911 C 186.117 252.28 190.266 257.164 193.294 263.559 C 196.32 269.956 197.835 277.599 197.835 286.484 C 197.835 299.571 194.612 310.141 188.167 318.198 Z"/>
  <g/>
  <g/>
  <g/>
  <g/>
  <g/>
  <g/>
  <g/>
  <g/>
  <g/>
  <g/>
  <g/>
  <g/>
  <g/>
  <g/>
  <g/>
  <path style="fill:#FFFFFF;" d="M 412.608 272.105 C 409.825 265.22 405.698 259.167 400.23 253.941 C 394.76 248.718 387.875 244.493 379.576 241.27 C 389.34 236.486 396.689 230.334 401.622 222.813 C 406.552 215.294 409.019 206.75 409.019 197.178 C 409.019 189.659 407.602 182.555 404.771 175.865 C 401.938 169.177 397.593 163.171 391.734 157.847 C 385.875 152.526 378.55 148.351 369.761 145.323 C 360.972 142.297 350.766 140.782 339.146 140.782 C 325.376 140.782 313.339 143.371 303.038 148.546 C 292.734 153.723 284.922 160.631 279.6 169.274 C 274.276 177.917 271.617 187.122 271.617 196.886 C 271.617 217.101 281.626 231.896 301.646 241.271 C 276.84 251.038 264.439 269.055 264.439 295.324 C 264.439 307.629 267.369 318.739 273.228 328.649 C 279.087 338.562 287.778 346.351 299.302 352.013 C 310.824 357.676 324.692 360.509 340.904 360.509 C 356.528 360.509 370.102 357.676 381.627 352.013 C 393.149 346.35 401.89 338.513 407.848 328.502 C 413.804 318.493 416.784 307.335 416.784 295.03 C 416.783 286.632 415.391 278.99 412.608 272.105 Z M 317.833 177.329 C 323.447 171.616 330.845 168.76 340.025 168.76 C 346.079 168.76 351.451 170.078 356.138 172.715 C 360.825 175.352 364.462 178.966 367.051 183.555 C 369.637 188.146 370.933 193.322 370.933 199.082 C 370.933 203.38 370.201 207.311 368.736 210.874 C 367.271 214.44 365.195 217.516 362.51 220.103 C 359.823 222.692 356.6 224.717 352.842 226.182 C 349.081 227.647 344.906 228.379 340.318 228.379 C 331.236 228.379 323.813 225.621 318.052 220.103 C 312.289 214.587 309.409 207.677 309.409 199.375 C 309.41 190.392 312.216 183.042 317.833 177.329 Z M 371.959 314.073 C 368.833 319.932 364.536 324.473 359.068 327.696 C 353.598 330.919 347.445 332.53 340.611 332.53 C 333.873 332.53 327.768 330.944 322.3 327.769 C 316.83 324.597 312.508 320.104 309.336 314.292 C 306.161 308.483 304.575 301.768 304.575 294.15 C 304.575 282.237 307.944 272.96 314.682 266.318 C 321.42 259.678 329.77 256.357 339.731 256.357 C 346.762 256.357 353.109 257.872 358.774 260.898 C 364.437 263.926 368.831 268.273 371.958 273.935 C 375.082 279.6 376.646 286.24 376.646 293.857 C 376.646 301.474 375.083 308.213 371.959 314.073 Z"/>
</svg>