<?xml version="1.0" encoding="utf-8"?>
<svg id="Layer_1" style="enable-background:new 0 0 496.158 496.158;" x="0px" y="0px" width="500px" height="500px" viewBox="0 0 496.158 496.158" xmlns="http://www.w3.org/2000/svg">
  <path style="fill:#56B48C;" d="M248.082,0.003C111.07,0.003,0,111.061,0,248.085c0,137,111.07,248.07,248.082,248.07&#10;&#9;c137.006,0,248.076-111.07,248.076-248.07C496.158,111.061,385.088,0.003,248.082,0.003z"/>
  <path style="fill:#FFFFFF;" d="M 232.112 258.652 C 228.889 249.962 224.323 242.418 218.416 236.02 C 212.506 229.625 205.622 224.693 197.762 221.225 C 189.9 217.76 181.33 216.025 172.054 216.025 C 162.386 216.025 153.645 217.929 145.833 221.738 C 138.019 225.547 130.793 231.406 124.153 239.316 C 125.421 212.754 129.621 194.297 136.751 183.945 C 140.267 178.868 144.588 174.84 149.715 171.86 C 154.842 168.882 159.992 167.392 165.169 167.392 C 171.614 167.392 177.277 169.175 182.161 172.739 C 187.043 176.305 190.607 181.015 192.854 186.875 C 194.513 191.466 197.102 195.055 200.618 197.642 C 204.134 200.231 207.942 201.524 212.044 201.524 C 216.732 201.524 220.588 199.89 223.616 196.617 C 226.642 193.346 228.157 189.709 228.157 185.704 C 228.157 179.064 225.74 172.131 220.906 164.903 C 216.072 157.677 208.894 151.623 199.373 146.739 C 189.852 141.857 178.84 139.415 166.341 139.415 C 153.352 139.415 141.779 141.857 131.624 146.739 C 121.466 151.623 112.824 158.849 105.696 168.419 C 98.566 177.991 93.098 190.051 89.29 204.601 C 85.481 219.153 83.577 235.656 83.577 254.113 C 83.577 276.77 86.726 295.934 93.025 311.608 C 99.324 327.282 108.429 339.124 120.344 347.13 C 132.257 355.139 146.418 359.142 162.824 359.142 C 177.081 359.142 189.85 355.993 201.13 349.694 C 212.41 343.395 221.198 334.631 227.497 323.4 C 233.796 312.171 236.945 299.67 236.945 285.9 C 236.946 276.427 235.335 267.345 232.112 258.652 Z M 188.167 318.198 C 181.722 326.255 173.566 330.283 163.704 330.283 C 153.351 330.283 144.757 325.888 137.923 317.099 C 131.086 308.31 127.669 297.324 127.669 284.14 C 127.669 275.937 129.354 268.785 132.723 262.68 C 136.092 256.578 140.535 251.913 146.053 248.691 C 151.569 245.468 157.355 243.857 163.411 243.857 C 169.758 243.857 175.569 245.542 180.843 248.911 C 186.117 252.28 190.266 257.164 193.294 263.559 C 196.32 269.956 197.835 277.599 197.835 286.484 C 197.835 299.571 194.612 310.141 188.167 318.198 Z"/>
  <g/>
  <g/>
  <g/>
  <g/>
  <g/>
  <g/>
  <g/>
  <g/>
  <g/>
  <g/>
  <g/>
  <g/>
  <g/>
  <g/>
  <g/>
  <path style="fill:#FFFFFF;" d="M 416.08 200.609 C 412.466 187.329 407.291 176.318 400.553 167.577 C 393.815 158.838 385.513 152.173 375.651 147.582 C 365.787 142.993 354.557 140.697 341.96 140.697 C 331.022 140.697 321.035 142.553 312.004 146.263 C 302.97 149.975 295.182 155.151 288.64 161.79 C 282.096 168.432 277.068 176.269 273.552 185.301 C 270.036 194.335 268.279 203.882 268.279 213.939 C 268.279 223.314 269.841 232.275 272.967 240.819 C 276.091 249.365 280.559 256.836 286.37 263.231 C 292.179 269.628 299.063 274.609 307.024 278.172 C 314.982 281.738 323.551 283.519 332.732 283.519 C 342.4 283.519 351.211 281.592 359.172 277.733 C 367.13 273.877 374.333 268.138 380.778 260.521 C 379.41 286.987 375.212 305.444 368.18 315.892 C 364.664 321.069 360.416 325.073 355.436 327.904 C 350.456 330.737 345.182 332.152 339.616 332.152 C 333.365 332.152 327.751 330.371 322.77 326.805 C 317.79 323.242 314.224 318.529 312.077 312.669 C 310.319 307.885 307.73 304.296 304.313 301.902 C 300.894 299.51 297.037 298.313 292.741 298.313 C 288.053 298.313 284.195 299.924 281.169 303.147 C 278.141 306.37 276.628 310.032 276.628 314.133 C 276.628 320.775 279.068 327.683 283.952 334.861 C 288.834 342.039 295.964 348.045 305.339 352.879 C 314.714 357.713 325.748 360.13 338.444 360.13 C 351.335 360.13 362.857 357.761 373.014 353.026 C 383.169 348.291 391.885 341.065 399.161 331.346 C 406.434 321.63 411.978 309.618 415.787 295.311 C 419.596 281.006 421.5 264.476 421.5 245.726 C 421.5 228.93 419.692 213.891 416.08 200.609 Z M 372.208 237.083 C 368.74 243.139 364.247 247.753 358.731 250.926 C 353.212 254.101 347.426 255.687 341.373 255.687 C 331.509 255.687 323.355 251.831 316.91 244.115 C 310.465 236.402 307.242 226.05 307.242 213.06 C 307.242 199.975 310.465 189.453 316.91 181.493 C 323.355 173.535 331.216 169.555 340.494 169.555 C 345.864 169.555 350.821 170.727 355.362 173.071 C 359.903 175.415 363.807 178.637 367.081 182.739 C 370.352 186.841 372.89 191.7 374.698 197.314 C 376.504 202.931 377.408 209.058 377.408 215.698 C 377.408 223.9 375.673 231.029 372.208 237.083 Z"/>
</svg>