<?xml version="1.0" encoding="utf-8"?>
<svg id="Layer_1" style="enable-background:new 0 0 496.158 496.158;" x="0px" y="0px" width="500px" height="500px" viewBox="0 0 496.158 496.158" xmlns="http://www.w3.org/2000/svg">
  <path style="fill:#56B48C;" d="M248.082,0.003C111.07,0.003,0,111.061,0,248.085c0,137,111.07,248.07,248.082,248.07&#10;&#9;c137.006,0,248.076-111.07,248.076-248.07C496.158,111.061,385.088,0.003,248.082,0.003z"/>
  <path style="fill:#FFFFFF;" d="M 234.455 147.177 C 230.255 144.247 223.469 142.782 214.094 142.782 L 116.535 142.782 C 108.819 142.782 102.813 143.76 98.517 145.712 C 94.219 147.667 92.072 152.011 92.072 158.749 C 92.072 165.098 94.097 169.761 98.151 172.738 C 102.202 175.718 108.332 177.206 116.535 177.206 L 194.904 177.206 C 182.599 192.832 171.979 208.531 163.044 224.301 C 154.108 240.073 146.661 255.454 140.705 270.444 C 134.747 285.436 130.451 298.301 127.814 309.043 C 125.177 319.787 123.859 328.283 123.859 334.531 C 123.859 342.638 125.665 348.765 129.279 352.915 C 132.891 357.064 137.676 359.141 143.634 359.141 C 149.883 359.141 154.888 357.211 158.649 353.355 C 162.407 349.499 165.314 342.588 167.365 332.627 C 168.244 328.331 169.269 322.13 170.441 314.023 C 171.613 305.919 172.686 299.327 173.664 294.248 C 174.639 289.171 176.301 282.774 178.644 275.059 C 184.21 257.58 190.337 242.785 197.028 230.674 C 203.716 218.566 210.212 208.434 216.51 200.278 C 222.809 192.125 228.423 184.677 233.356 177.939 C 238.286 171.201 240.753 165.781 240.753 161.679 C 240.754 154.941 238.653 150.107 234.455 147.177 Z"/>
  <g/>
  <g/>
  <g/>
  <g/>
  <g/>
  <g/>
  <g/>
  <g/>
  <g/>
  <g/>
  <g/>
  <g/>
  <g/>
  <g/>
  <g/>
  <path style="fill:#FFFFFF;" d="M 405.797 325.764 C 401.791 322.64 395.983 321.076 388.365 321.076 L 311.9 321.076 C 314.339 317.366 316.734 314.191 319.078 311.555 C 324.546 304.915 334.629 295.588 349.327 283.576 C 364.023 271.564 374.497 262.752 380.748 257.136 C 386.996 251.522 393.126 243.758 399.132 233.845 C 405.138 223.934 408.141 212.923 408.141 200.813 C 408.141 193.1 406.7 185.652 403.82 178.474 C 400.938 171.296 396.91 164.974 391.735 159.504 C 386.557 154.036 380.551 149.74 373.717 146.613 C 363.17 141.925 350.426 139.582 335.485 139.582 C 323.082 139.582 312.267 141.413 303.039 145.075 C 293.811 148.737 286.193 153.548 280.187 159.504 C 274.181 165.462 269.663 172.102 266.637 179.426 C 263.609 186.75 262.096 193.781 262.096 200.52 C 262.096 206.086 263.707 210.481 266.93 213.704 C 270.153 216.927 274.203 218.538 279.088 218.538 C 284.654 218.538 288.877 216.78 291.759 213.265 C 294.639 209.749 297.227 204.721 299.523 198.177 C 301.817 191.635 303.453 187.63 304.43 186.165 C 311.754 174.936 321.811 169.319 334.606 169.319 C 340.66 169.319 346.252 170.688 351.378 173.421 C 356.505 176.156 360.557 179.99 363.536 184.92 C 366.514 189.853 368.004 195.444 368.004 201.692 C 368.004 207.455 366.612 213.338 363.829 219.343 C 361.046 225.348 356.992 231.208 351.671 236.921 C 346.348 242.634 339.682 248.324 331.676 253.986 C 327.183 257.014 319.712 263.338 309.264 272.956 C 298.813 282.576 287.094 294.123 274.108 307.6 C 270.981 310.921 268.102 315.487 265.465 321.296 C 262.828 327.108 261.51 331.77 261.51 335.285 C 261.51 340.755 263.561 345.516 267.662 349.567 C 271.764 353.621 277.476 355.646 284.801 355.646 L 392.614 355.646 C 399.059 355.646 403.868 353.987 407.043 350.666 C 410.216 347.347 411.804 343.294 411.804 338.508 C 411.803 333.139 409.8 328.891 405.797 325.764 Z"/>
</svg>