<?xml version="1.0" encoding="utf-8"?>
<svg id="Layer_1" style="enable-background:new 0 0 496.158 496.158;" x="0px" y="0px" width="500px" height="500px" viewBox="0 0 496.158 496.158" xmlns="http://www.w3.org/2000/svg">
  <path style="fill:#56B48C;" d="M248.082,0.003C111.07,0.003,0,111.061,0,248.085c0,137,111.07,248.07,248.082,248.07&#10;&#9;c137.006,0,248.076-111.07,248.076-248.07C496.158,111.061,385.088,0.003,248.082,0.003z"/>
  <path style="fill:#FFFFFF;" d="M 234.455 147.177 C 230.255 144.247 223.469 142.782 214.094 142.782 L 116.535 142.782 C 108.819 142.782 102.813 143.76 98.517 145.712 C 94.219 147.667 92.072 152.011 92.072 158.749 C 92.072 165.098 94.097 169.761 98.151 172.738 C 102.202 175.718 108.332 177.206 116.535 177.206 L 194.904 177.206 C 182.599 192.832 171.979 208.531 163.044 224.301 C 154.108 240.073 146.661 255.454 140.705 270.444 C 134.747 285.436 130.451 298.301 127.814 309.043 C 125.177 319.787 123.859 328.283 123.859 334.531 C 123.859 342.638 125.665 348.765 129.279 352.915 C 132.891 357.064 137.676 359.141 143.634 359.141 C 149.883 359.141 154.888 357.211 158.649 353.355 C 162.407 349.499 165.314 342.588 167.365 332.627 C 168.244 328.331 169.269 322.13 170.441 314.023 C 171.613 305.919 172.686 299.327 173.664 294.248 C 174.639 289.171 176.301 282.774 178.644 275.059 C 184.21 257.58 190.337 242.785 197.028 230.674 C 203.716 218.566 210.212 208.434 216.51 200.278 C 222.809 192.125 228.423 184.677 233.356 177.939 C 238.286 171.201 240.753 165.781 240.753 161.679 C 240.754 154.941 238.653 150.107 234.455 147.177 Z"/>
  <g/>
  <g/>
  <g/>
  <g/>
  <g/>
  <g/>
  <g/>
  <g/>
  <g/>
  <g/>
  <g/>
  <g/>
  <g/>
  <g/>
  <g/>
  <path style="fill:#FFFFFF;" d="M 404.328 271.279 C 401.691 264.884 397.76 259.048 392.536 253.774 C 387.31 248.501 380.89 243.813 373.273 239.711 C 381.183 233.071 387.262 226.26 391.51 219.276 C 395.758 212.295 397.882 203.921 397.882 194.154 C 397.882 186.734 396.417 179.799 393.487 173.353 C 390.557 166.907 386.211 161.245 380.45 156.361 C 374.686 151.479 367.9 147.744 360.089 145.155 C 352.275 142.569 343.632 141.273 334.161 141.273 C 323.321 141.273 313.507 142.811 304.718 145.887 C 295.929 148.963 288.579 153.042 282.672 158.118 C 276.763 163.197 272.272 168.544 269.195 174.158 C 266.119 179.775 264.581 185.121 264.581 190.198 C 264.581 195.471 266.216 199.697 269.488 202.869 C 272.759 206.044 276.347 207.63 280.255 207.63 C 283.573 207.63 286.503 207.044 289.044 205.872 C 291.582 204.7 293.34 203.089 294.317 201.038 C 295.976 197.229 297.807 193.178 299.81 188.88 C 301.811 184.584 303.934 181.068 306.182 178.333 C 308.427 175.6 311.479 173.403 315.337 171.741 C 319.193 170.082 324.101 169.251 330.059 169.251 C 338.848 169.251 345.829 171.961 351.006 177.381 C 356.181 182.801 358.77 189.272 358.77 196.79 C 358.77 206.655 355.522 214.222 349.029 219.495 C 342.534 224.768 334.795 227.405 325.811 227.405 L 319.805 227.405 C 312.869 227.405 307.647 228.847 304.131 231.726 C 300.615 234.608 298.858 238.391 298.858 243.079 C 298.858 247.865 300.323 251.6 303.253 254.285 C 306.183 256.972 310.332 258.313 315.704 258.313 C 316.876 258.313 319.513 258.119 323.614 257.727 C 327.716 257.338 330.741 257.141 332.696 257.141 C 343.829 257.141 352.519 260.389 358.77 266.882 C 365.018 273.378 368.145 282.336 368.145 293.762 C 368.145 301.478 366.314 308.264 362.652 314.123 C 358.99 319.982 354.35 324.402 348.736 327.38 C 343.12 330.36 337.285 331.848 331.231 331.848 C 320.684 331.848 312.504 328.552 306.695 321.96 C 300.883 315.368 295.438 305.286 290.362 291.711 C 289.579 289.466 287.92 287.536 285.382 285.925 C 282.841 284.314 280.204 283.508 277.472 283.508 C 272.001 283.508 267.438 285.243 263.776 288.708 C 260.114 292.176 258.283 296.742 258.283 302.404 C 258.283 306.799 259.821 312.365 262.897 319.103 C 265.973 325.841 270.514 332.36 276.52 338.659 C 282.526 344.958 290.166 350.208 299.445 354.406 C 308.721 358.604 319.22 360.705 330.939 360.705 C 342.46 360.705 352.985 358.874 362.506 355.212 C 372.027 351.55 380.253 346.473 387.189 339.978 C 394.122 333.485 399.371 326.087 402.936 317.786 C 406.499 309.487 408.283 300.892 408.283 292.005 C 408.283 284.586 406.965 277.677 404.328 271.279 Z"/>
</svg>