<?xml version="1.0" encoding="utf-8"?>
<svg id="Layer_1" style="enable-background:new 0 0 496.158 496.158;" x="0px" y="0px" width="500px" height="500px" viewBox="0 0 496.158 496.158" xmlns="http://www.w3.org/2000/svg">
  <path style="fill:#56B48C;" d="M248.082,0.003C111.07,0.003,0,111.061,0,248.085c0,137,111.07,248.07,248.082,248.07&#10;&#9;c137.006,0,248.076-111.07,248.076-248.07C496.158,111.061,385.088,0.003,248.082,0.003z"/>
  <path style="fill:#FFFFFF;" d="M 234.455 147.177 C 230.255 144.247 223.469 142.782 214.094 142.782 L 116.535 142.782 C 108.819 142.782 102.813 143.76 98.517 145.712 C 94.219 147.667 92.072 152.011 92.072 158.749 C 92.072 165.098 94.097 169.761 98.151 172.738 C 102.202 175.718 108.332 177.206 116.535 177.206 L 194.904 177.206 C 182.599 192.832 171.979 208.531 163.044 224.301 C 154.108 240.073 146.661 255.454 140.705 270.444 C 134.747 285.436 130.451 298.301 127.814 309.043 C 125.177 319.787 123.859 328.283 123.859 334.531 C 123.859 342.638 125.665 348.765 129.279 352.915 C 132.891 357.064 137.676 359.141 143.634 359.141 C 149.883 359.141 154.888 357.211 158.649 353.355 C 162.407 349.499 165.314 342.588 167.365 332.627 C 168.244 328.331 169.269 322.13 170.441 314.023 C 171.613 305.919 172.686 299.327 173.664 294.248 C 174.639 289.171 176.301 282.774 178.644 275.059 C 184.21 257.58 190.337 242.785 197.028 230.674 C 203.716 218.566 210.212 208.434 216.51 200.278 C 222.809 192.125 228.423 184.677 233.356 177.939 C 238.286 171.201 240.753 165.781 240.753 161.679 C 240.754 154.941 238.653 150.107 234.455 147.177 Z"/>
  <g/>
  <g/>
  <g/>
  <g/>
  <g/>
  <g/>
  <g/>
  <g/>
  <g/>
  <g/>
  <g/>
  <g/>
  <g/>
  <g/>
  <g/>
  <path style="fill:#FFFFFF;" d="M 400.942 285.711 C 396.401 283.66 390.37 282.635 382.851 282.635 L 376.552 282.635 L 376.552 169.256 C 376.552 152.264 369.129 143.768 354.286 143.768 C 349.695 143.768 345.765 145.306 342.494 148.382 C 339.221 151.458 335.046 156.416 329.97 163.25 L 252.333 267.107 C 250.184 269.94 248.378 272.333 246.913 274.285 C 245.448 276.24 244.031 278.265 242.665 280.364 C 241.296 282.465 240.271 284.466 239.589 286.37 C 238.904 288.273 238.564 290.156 238.564 292.01 C 238.564 299.238 240.882 304.951 245.522 309.148 C 250.159 313.349 257.117 315.448 266.396 315.448 L 339.931 315.448 L 339.931 342.694 C 339.931 350.018 341.616 355.562 344.985 359.32 C 348.354 363.078 352.772 364.96 358.242 364.96 C 363.808 364.96 368.251 363.129 371.572 359.466 C 374.891 355.805 376.552 350.216 376.552 342.695 L 376.552 315.449 L 385.488 315.449 C 392.908 315.449 398.475 314.156 402.187 311.567 C 405.897 308.981 407.753 304.854 407.753 299.189 C 407.753 292.255 405.483 287.762 400.942 285.711 Z M 339.931 282.635 L 276.943 282.635 L 339.931 197.528 L 339.931 282.635 Z"/>
</svg>