<?xml version="1.0" encoding="utf-8"?>
<svg id="Layer_1" style="enable-background:new 0 0 496.158 496.158;" x="0px" y="0px" width="500px" height="500px" viewBox="0 0 496.158 496.158" xmlns="http://www.w3.org/2000/svg">
  <path style="fill:#56B48C;" d="M248.082,0.003C111.07,0.003,0,111.061,0,248.085c0,137,111.07,248.07,248.082,248.07&#10;&#9;c137.006,0,248.076-111.07,248.076-248.07C496.158,111.061,385.088,0.003,248.082,0.003z"/>
  <path style="fill:#FFFFFF;" d="M 234.455 147.177 C 230.255 144.247 223.469 142.782 214.094 142.782 L 116.535 142.782 C 108.819 142.782 102.813 143.76 98.517 145.712 C 94.219 147.667 92.072 152.011 92.072 158.749 C 92.072 165.098 94.097 169.761 98.151 172.738 C 102.202 175.718 108.332 177.206 116.535 177.206 L 194.904 177.206 C 182.599 192.832 171.979 208.531 163.044 224.301 C 154.108 240.073 146.661 255.454 140.705 270.444 C 134.747 285.436 130.451 298.301 127.814 309.043 C 125.177 319.787 123.859 328.283 123.859 334.531 C 123.859 342.638 125.665 348.765 129.279 352.915 C 132.891 357.064 137.676 359.141 143.634 359.141 C 149.883 359.141 154.888 357.211 158.649 353.355 C 162.407 349.499 165.314 342.588 167.365 332.627 C 168.244 328.331 169.269 322.13 170.441 314.023 C 171.613 305.919 172.686 299.327 173.664 294.248 C 174.639 289.171 176.301 282.774 178.644 275.059 C 184.21 257.58 190.337 242.785 197.028 230.674 C 203.716 218.566 210.212 208.434 216.51 200.278 C 222.809 192.125 228.423 184.677 233.356 177.939 C 238.286 171.201 240.753 165.781 240.753 161.679 C 240.754 154.941 238.653 150.107 234.455 147.177 Z"/>
  <g/>
  <g/>
  <g/>
  <g/>
  <g/>
  <g/>
  <g/>
  <g/>
  <g/>
  <g/>
  <g/>
  <g/>
  <g/>
  <g/>
  <g/>
  <path style="fill:#FFFFFF;" d="M 405.135 260.373 C 401.619 251.877 396.785 244.53 390.633 238.327 C 384.481 232.127 377.326 227.267 369.173 223.752 C 361.018 220.236 352.254 218.479 342.879 218.479 C 331.16 218.479 318.366 222.191 304.5 229.612 L 312.85 182.151 L 382.43 182.151 C 389.656 182.151 395.124 180.59 398.836 177.463 C 402.546 174.339 404.402 170.237 404.402 165.158 C 404.402 153.538 396.785 147.726 381.55 147.726 L 304.206 147.726 C 295.806 147.726 289.752 149.63 286.042 153.439 C 282.33 157.248 279.791 163.352 278.425 171.75 L 266.121 241.916 C 265.045 248.068 264.51 251.39 264.51 251.877 C 264.51 256.272 266.364 260.204 270.076 263.669 C 273.786 267.137 278.034 268.869 282.82 268.869 C 287.215 268.869 292.804 266.306 299.592 261.179 C 306.378 256.052 311.578 252.463 315.193 250.412 C 318.805 248.361 324.811 247.336 333.211 247.336 C 340.045 247.336 346.248 248.973 351.815 252.243 C 357.381 255.516 361.824 260.472 365.145 267.111 C 368.464 273.753 370.125 281.759 370.125 291.134 C 370.125 299.827 368.587 307.591 365.511 314.425 C 362.435 321.262 358.063 326.633 352.401 330.538 C 346.736 334.445 340.144 336.397 332.626 336.397 C 324.423 336.397 317 333.98 310.36 329.146 C 303.718 324.312 298.444 317.551 294.54 308.858 C 290.535 299.387 284.433 294.649 276.229 294.649 C 271.443 294.649 267.463 296.359 264.291 299.776 C 261.116 303.195 259.53 306.807 259.53 310.616 C 259.53 316.867 261.801 324.166 266.342 332.515 C 270.883 340.864 278.596 348.262 289.487 354.707 C 300.375 361.152 314.559 364.375 332.041 364.375 C 347.665 364.375 361.459 360.956 373.423 354.121 C 385.384 347.287 394.54 338.058 400.889 326.435 C 407.236 314.815 410.41 301.924 410.41 287.763 C 410.408 278.002 408.65 268.869 405.135 260.373 Z"/>
</svg>