<?xml version="1.0" encoding="utf-8"?>
<svg id="Layer_1" style="enable-background:new 0 0 496.158 496.158;" x="0px" y="0px" width="500px" height="500px" viewBox="0 0 496.158 496.158" xmlns="http://www.w3.org/2000/svg">
  <path style="fill:#56B48C;" d="M248.082,0.003C111.07,0.003,0,111.061,0,248.085c0,137,111.07,248.07,248.082,248.07&#10;&#9;c137.006,0,248.076-111.07,248.076-248.07C496.158,111.061,385.088,0.003,248.082,0.003z"/>
  <path style="fill:#FFFFFF;" d="M 234.455 147.177 C 230.255 144.247 223.469 142.782 214.094 142.782 L 116.535 142.782 C 108.819 142.782 102.813 143.76 98.517 145.712 C 94.219 147.667 92.072 152.011 92.072 158.749 C 92.072 165.098 94.097 169.761 98.151 172.738 C 102.202 175.718 108.332 177.206 116.535 177.206 L 194.904 177.206 C 182.599 192.832 171.979 208.531 163.044 224.301 C 154.108 240.073 146.661 255.454 140.705 270.444 C 134.747 285.436 130.451 298.301 127.814 309.043 C 125.177 319.787 123.859 328.283 123.859 334.531 C 123.859 342.638 125.665 348.765 129.279 352.915 C 132.891 357.064 137.676 359.141 143.634 359.141 C 149.883 359.141 154.888 357.211 158.649 353.355 C 162.407 349.499 165.314 342.588 167.365 332.627 C 168.244 328.331 169.269 322.13 170.441 314.023 C 171.613 305.919 172.686 299.327 173.664 294.248 C 174.639 289.171 176.301 282.774 178.644 275.059 C 184.21 257.58 190.337 242.785 197.028 230.674 C 203.716 218.566 210.212 208.434 216.51 200.278 C 222.809 192.125 228.423 184.677 233.356 177.939 C 238.286 171.201 240.753 165.781 240.753 161.679 C 240.754 154.941 238.653 150.107 234.455 147.177 Z"/>
  <g/>
  <g/>
  <g/>
  <g/>
  <g/>
  <g/>
  <g/>
  <g/>
  <g/>
  <g/>
  <g/>
  <g/>
  <g/>
  <g/>
  <g/>
  <path style="fill:#FFFFFF;" d="M 401.758 268.799 C 398.535 260.109 393.969 252.565 388.062 246.167 C 382.152 239.772 375.268 234.84 367.408 231.372 C 359.546 227.907 350.976 226.172 341.7 226.172 C 332.032 226.172 323.291 228.076 315.479 231.885 C 307.665 235.694 300.439 241.553 293.799 249.463 C 295.067 222.901 299.267 204.444 306.397 194.092 C 309.913 189.015 314.234 184.987 319.361 182.007 C 324.488 179.029 329.638 177.539 334.815 177.539 C 341.26 177.539 346.923 179.322 351.807 182.886 C 356.689 186.452 360.253 191.162 362.5 197.022 C 364.159 201.613 366.748 205.202 370.264 207.789 C 373.78 210.378 377.588 211.671 381.69 211.671 C 386.378 211.671 390.234 210.037 393.262 206.764 C 396.288 203.493 397.803 199.856 397.803 195.851 C 397.803 189.211 395.386 182.278 390.552 175.05 C 385.718 167.824 378.54 161.77 369.019 156.886 C 359.498 152.004 348.486 149.562 335.987 149.562 C 322.998 149.562 311.425 152.004 301.27 156.886 C 291.112 161.77 282.47 168.996 275.342 178.566 C 268.212 188.138 262.744 200.198 258.936 214.748 C 255.127 229.3 253.223 245.803 253.223 264.26 C 253.223 286.917 256.372 306.081 262.671 321.755 C 268.97 337.429 278.075 349.271 289.99 357.277 C 301.903 365.286 316.064 369.289 332.47 369.289 C 346.727 369.289 359.496 366.14 370.776 359.841 C 382.056 353.542 390.844 344.778 397.143 333.547 C 403.442 322.318 406.591 309.817 406.591 296.047 C 406.592 286.574 404.981 277.492 401.758 268.799 Z M 357.813 328.345 C 351.368 336.402 343.212 340.43 333.35 340.43 C 322.997 340.43 314.403 336.035 307.569 327.246 C 300.732 318.457 297.315 307.471 297.315 294.287 C 297.315 286.084 299 278.932 302.369 272.827 C 305.738 266.725 310.181 262.06 315.699 258.838 C 321.215 255.615 327.001 254.004 333.057 254.004 C 339.404 254.004 345.215 255.689 350.489 259.058 C 355.763 262.427 359.912 267.311 362.94 273.706 C 365.966 280.103 367.481 287.746 367.481 296.631 C 367.481 309.718 364.258 320.288 357.813 328.345 Z"/>
</svg>