<?xml version="1.0" encoding="utf-8"?>
<svg id="Layer_1" style="enable-background:new 0 0 496.158 496.158;" x="0px" y="0px" width="500px" height="500px" viewBox="0 0 496.158 496.158" xmlns="http://www.w3.org/2000/svg">
  <path style="fill:#56B48C;" d="M248.082,0.003C111.07,0.003,0,111.061,0,248.085c0,137,111.07,248.07,248.082,248.07&#10;&#9;c137.006,0,248.076-111.07,248.076-248.07C496.158,111.061,385.088,0.003,248.082,0.003z"/>
  <path style="fill:#FFFFFF;" d="M 234.455 147.177 C 230.255 144.247 223.469 142.782 214.094 142.782 L 116.535 142.782 C 108.819 142.782 102.813 143.76 98.517 145.712 C 94.219 147.667 92.072 152.011 92.072 158.749 C 92.072 165.098 94.097 169.761 98.151 172.738 C 102.202 175.718 108.332 177.206 116.535 177.206 L 194.904 177.206 C 182.599 192.832 171.979 208.531 163.044 224.301 C 154.108 240.073 146.661 255.454 140.705 270.444 C 134.747 285.436 130.451 298.301 127.814 309.043 C 125.177 319.787 123.859 328.283 123.859 334.531 C 123.859 342.638 125.665 348.765 129.279 352.915 C 132.891 357.064 137.676 359.141 143.634 359.141 C 149.883 359.141 154.888 357.211 158.649 353.355 C 162.407 349.499 165.314 342.588 167.365 332.627 C 168.244 328.331 169.269 322.13 170.441 314.023 C 171.613 305.919 172.686 299.327 173.664 294.248 C 174.639 289.171 176.301 282.774 178.644 275.059 C 184.21 257.58 190.337 242.785 197.028 230.674 C 203.716 218.566 210.212 208.434 216.51 200.278 C 222.809 192.125 228.423 184.677 233.356 177.939 C 238.286 171.201 240.753 165.781 240.753 161.679 C 240.754 154.941 238.653 150.107 234.455 147.177 Z"/>
  <g/>
  <g/>
  <g/>
  <g/>
  <g/>
  <g/>
  <g/>
  <g/>
  <g/>
  <g/>
  <g/>
  <g/>
  <g/>
  <g/>
  <g/>
  <path style="fill:#FFFFFF;" d="M 414.823 145.517 C 410.623 142.587 403.837 141.122 394.462 141.122 L 296.903 141.122 C 289.187 141.122 283.181 142.1 278.885 144.052 C 274.587 146.007 272.44 150.351 272.44 157.089 C 272.44 163.438 274.465 168.101 278.519 171.078 C 282.57 174.058 288.7 175.546 296.903 175.546 L 375.272 175.546 C 362.967 191.172 352.347 206.871 343.412 222.641 C 334.476 238.413 327.029 253.794 321.073 268.784 C 315.115 283.776 310.819 296.641 308.182 307.383 C 305.545 318.127 304.227 326.623 304.227 332.871 C 304.227 340.978 306.033 347.105 309.647 351.255 C 313.259 355.404 318.044 357.481 324.002 357.481 C 330.251 357.481 335.256 355.551 339.017 351.695 C 342.775 347.839 345.682 340.928 347.733 330.967 C 348.612 326.671 349.637 320.47 350.809 312.363 C 351.981 304.259 353.054 297.667 354.032 292.588 C 355.007 287.511 356.669 281.114 359.012 273.399 C 364.578 255.92 370.705 241.125 377.396 229.014 C 384.084 216.906 390.58 206.774 396.878 198.618 C 403.177 190.465 408.791 183.017 413.724 176.279 C 418.654 169.541 421.121 164.121 421.121 160.019 C 421.122 153.281 419.021 148.447 414.823 145.517 Z"/>
</svg>