<?xml version="1.0" encoding="utf-8"?>
<svg id="Layer_1" style="enable-background:new 0 0 496.158 496.158;" x="0px" y="0px" width="500px" height="500px" viewBox="0 0 496.158 496.158" xmlns="http://www.w3.org/2000/svg">
  <path style="fill:#56B48C;" d="M248.082,0.003C111.07,0.003,0,111.061,0,248.085c0,137,111.07,248.07,248.082,248.07&#10;&#9;c137.006,0,248.076-111.07,248.076-248.07C496.158,111.061,385.088,0.003,248.082,0.003z"/>
  <path style="fill:#FFFFFF;" d="M 234.455 147.177 C 230.255 144.247 223.469 142.782 214.094 142.782 L 116.535 142.782 C 108.819 142.782 102.813 143.76 98.517 145.712 C 94.219 147.667 92.072 152.011 92.072 158.749 C 92.072 165.098 94.097 169.761 98.151 172.738 C 102.202 175.718 108.332 177.206 116.535 177.206 L 194.904 177.206 C 182.599 192.832 171.979 208.531 163.044 224.301 C 154.108 240.073 146.661 255.454 140.705 270.444 C 134.747 285.436 130.451 298.301 127.814 309.043 C 125.177 319.787 123.859 328.283 123.859 334.531 C 123.859 342.638 125.665 348.765 129.279 352.915 C 132.891 357.064 137.676 359.141 143.634 359.141 C 149.883 359.141 154.888 357.211 158.649 353.355 C 162.407 349.499 165.314 342.588 167.365 332.627 C 168.244 328.331 169.269 322.13 170.441 314.023 C 171.613 305.919 172.686 299.327 173.664 294.248 C 174.639 289.171 176.301 282.774 178.644 275.059 C 184.21 257.58 190.337 242.785 197.028 230.674 C 203.716 218.566 210.212 208.434 216.51 200.278 C 222.809 192.125 228.423 184.677 233.356 177.939 C 238.286 171.201 240.753 165.781 240.753 161.679 C 240.754 154.941 238.653 150.107 234.455 147.177 Z"/>
  <g/>
  <g/>
  <g/>
  <g/>
  <g/>
  <g/>
  <g/>
  <g/>
  <g/>
  <g/>
  <g/>
  <g/>
  <g/>
  <g/>
  <g/>
  <path style="fill:#FFFFFF;" d="M 408.654 269.073 C 405.871 262.188 401.744 256.135 396.276 250.909 C 390.806 245.686 383.921 241.461 375.622 238.238 C 385.386 233.454 392.735 227.302 397.668 219.781 C 402.598 212.262 405.065 203.718 405.065 194.146 C 405.065 186.627 403.648 179.523 400.817 172.833 C 397.984 166.145 393.639 160.139 387.78 154.815 C 381.921 149.494 374.596 145.319 365.807 142.291 C 357.018 139.265 346.812 137.75 335.192 137.75 C 321.422 137.75 309.385 140.339 299.084 145.514 C 288.78 150.691 280.968 157.599 275.646 166.242 C 270.322 174.885 267.663 184.09 267.663 193.854 C 267.663 214.069 277.672 228.864 297.692 238.239 C 272.886 248.006 260.485 266.023 260.485 292.292 C 260.485 304.597 263.415 315.707 269.274 325.617 C 275.133 335.531 283.824 343.319 295.348 348.981 C 306.87 354.644 320.738 357.477 336.95 357.477 C 352.574 357.477 366.148 354.644 377.673 348.981 C 389.195 343.318 397.936 335.481 403.894 325.47 C 409.85 315.461 412.83 304.303 412.83 291.998 C 412.829 283.6 411.437 275.958 408.654 269.073 Z M 313.879 174.297 C 319.493 168.584 326.891 165.728 336.071 165.728 C 342.125 165.728 347.497 167.046 352.184 169.683 C 356.871 172.32 360.508 175.934 363.097 180.523 C 365.683 185.114 366.979 190.29 366.979 196.05 C 366.979 200.348 366.247 204.279 364.782 207.842 C 363.317 211.408 361.241 214.484 358.556 217.071 C 355.869 219.66 352.646 221.685 348.888 223.15 C 345.127 224.615 340.952 225.347 336.364 225.347 C 327.282 225.347 319.859 222.589 314.098 217.071 C 308.335 211.555 305.455 204.645 305.455 196.343 C 305.456 187.36 308.262 180.01 313.879 174.297 Z M 368.005 311.041 C 364.879 316.901 360.582 321.441 355.114 324.664 C 349.644 327.888 343.491 329.498 336.657 329.498 C 329.919 329.498 323.814 327.912 318.346 324.737 C 312.876 321.565 308.554 317.072 305.382 311.26 C 302.207 305.451 300.621 298.736 300.621 291.118 C 300.621 279.205 303.99 269.928 310.728 263.286 C 317.466 256.646 325.816 253.325 335.777 253.325 C 342.808 253.325 349.155 254.84 354.82 257.866 C 360.483 260.894 364.877 265.242 368.004 270.903 C 371.128 276.568 372.692 283.208 372.692 290.825 C 372.692 298.442 371.129 305.181 368.005 311.041 Z"/>
</svg>