<?xml version="1.0" encoding="utf-8"?>
<svg id="Layer_1" style="enable-background:new 0 0 496.158 496.158;" x="0px" y="0px" width="500px" height="500px" viewBox="0 0 496.158 496.158" xmlns="http://www.w3.org/2000/svg">
  <path style="fill:#56B48C;" d="M248.082,0.003C111.07,0.003,0,111.061,0,248.085c0,137,111.07,248.07,248.082,248.07&#10;&#9;c137.006,0,248.076-111.07,248.076-248.07C496.158,111.061,385.088,0.003,248.082,0.003z"/>
  <path style="fill:#FFFFFF;" d="M 234.455 147.177 C 230.255 144.247 223.469 142.782 214.094 142.782 L 116.535 142.782 C 108.819 142.782 102.813 143.76 98.517 145.712 C 94.219 147.667 92.072 152.011 92.072 158.749 C 92.072 165.098 94.097 169.761 98.151 172.738 C 102.202 175.718 108.332 177.206 116.535 177.206 L 194.904 177.206 C 182.599 192.832 171.979 208.531 163.044 224.301 C 154.108 240.073 146.661 255.454 140.705 270.444 C 134.747 285.436 130.451 298.301 127.814 309.043 C 125.177 319.787 123.859 328.283 123.859 334.531 C 123.859 342.638 125.665 348.765 129.279 352.915 C 132.891 357.064 137.676 359.141 143.634 359.141 C 149.883 359.141 154.888 357.211 158.649 353.355 C 162.407 349.499 165.314 342.588 167.365 332.627 C 168.244 328.331 169.269 322.13 170.441 314.023 C 171.613 305.919 172.686 299.327 173.664 294.248 C 174.639 289.171 176.301 282.774 178.644 275.059 C 184.21 257.58 190.337 242.785 197.028 230.674 C 203.716 218.566 210.212 208.434 216.51 200.278 C 222.809 192.125 228.423 184.677 233.356 177.939 C 238.286 171.201 240.753 165.781 240.753 161.679 C 240.754 154.941 238.653 150.107 234.455 147.177 Z"/>
  <g/>
  <g/>
  <g/>
  <g/>
  <g/>
  <g/>
  <g/>
  <g/>
  <g/>
  <g/>
  <g/>
  <g/>
  <g/>
  <g/>
  <g/>
  <path style="fill:#FFFFFF;" d="M 409.293 200.275 C 405.679 186.995 400.504 175.984 393.766 167.243 C 387.028 158.504 378.726 151.839 368.864 147.248 C 359 142.659 347.77 140.363 335.173 140.363 C 324.235 140.363 314.248 142.219 305.217 145.929 C 296.183 149.641 288.395 154.817 281.853 161.456 C 275.309 168.098 270.281 175.935 266.765 184.967 C 263.249 194.001 261.492 203.548 261.492 213.605 C 261.492 222.98 263.054 231.941 266.18 240.485 C 269.304 249.031 273.772 256.502 279.583 262.897 C 285.392 269.294 292.276 274.276 300.237 277.838 C 308.195 281.405 316.764 283.185 325.945 283.185 C 335.613 283.185 344.424 281.259 352.385 277.399 C 360.343 273.543 367.546 267.804 373.991 260.187 C 372.623 286.653 368.425 305.11 361.393 315.558 C 357.877 320.735 353.629 324.739 348.649 327.57 C 343.669 330.403 338.395 331.819 332.829 331.819 C 326.578 331.819 320.964 330.037 315.983 326.471 C 311.003 322.908 307.437 318.195 305.29 312.336 C 303.532 307.552 300.943 303.962 297.526 301.569 C 294.107 299.177 290.25 297.979 285.954 297.979 C 281.266 297.979 277.408 299.591 274.382 302.813 C 271.354 306.036 269.841 309.698 269.841 313.799 C 269.841 320.441 272.281 327.349 277.165 334.527 C 282.047 341.705 289.177 347.711 298.552 352.545 C 307.927 357.379 318.961 359.796 331.657 359.796 C 344.548 359.796 356.07 357.427 366.227 352.692 C 376.382 347.957 385.098 340.731 392.374 331.013 C 399.647 321.296 405.191 309.284 409 294.977 C 412.809 280.672 414.713 264.142 414.713 245.392 C 414.713 228.596 412.905 213.557 409.293 200.275 Z M 365.421 236.749 C 361.953 242.805 357.46 247.419 351.944 250.592 C 346.425 253.767 340.639 255.353 334.586 255.353 C 324.722 255.353 316.568 251.497 310.123 243.781 C 303.678 236.068 300.455 225.716 300.455 212.726 C 300.455 199.641 303.678 189.119 310.123 181.159 C 316.568 173.201 324.429 169.221 333.707 169.221 C 339.077 169.221 344.034 170.393 348.575 172.737 C 353.116 175.081 357.02 178.303 360.294 182.405 C 363.565 186.507 366.103 191.366 367.911 196.98 C 369.717 202.597 370.621 208.724 370.621 215.364 C 370.621 223.566 368.886 230.695 365.421 236.749 Z"/>
</svg>