<?xml version="1.0" encoding="utf-8"?>
<svg id="Layer_1" style="enable-background:new 0 0 496.158 496.158;" x="0px" y="0px" width="500px" height="500px" viewBox="0 0 496.158 496.158" xmlns="http://www.w3.org/2000/svg">
  <path style="fill:#56B48C;" d="M 248.082 -3.741 C 111.07 -3.741 0 107.317 0 244.341 C 0 381.341 111.07 492.411 248.082 492.411 C 385.088 492.411 496.158 381.341 496.158 244.341 C 496.158 107.317 385.088 -3.741 248.082 -3.741 Z"/>
  <path style="fill:#FFFFFF;" d="M 230.866 270.444 C 228.083 263.559 223.956 257.506 218.488 252.28 C 213.018 247.057 206.133 242.832 197.834 239.609 C 207.598 234.825 214.947 228.673 219.88 221.152 C 224.81 213.633 227.277 205.089 227.277 195.517 C 227.277 187.998 225.86 180.894 223.029 174.204 C 220.196 167.516 215.851 161.51 209.992 156.186 C 204.133 150.865 196.808 146.69 188.019 143.662 C 179.23 140.636 169.024 139.121 157.404 139.121 C 143.634 139.121 131.597 141.71 121.296 146.885 C 110.992 152.062 103.18 158.97 97.858 167.613 C 92.534 176.256 89.875 185.461 89.875 195.225 C 89.875 215.44 99.884 230.235 119.904 239.61 C 95.098 249.377 82.697 267.394 82.697 293.663 C 82.697 305.968 85.627 317.078 91.486 326.988 C 97.345 336.901 106.036 344.69 117.56 350.352 C 129.082 356.015 142.95 358.848 159.162 358.848 C 174.786 358.848 188.36 356.015 199.885 350.352 C 211.407 344.689 220.148 336.852 226.106 326.841 C 232.062 316.832 235.042 305.674 235.042 293.369 C 235.041 284.971 233.649 277.329 230.866 270.444 Z M 136.091 175.668 C 141.705 169.955 149.103 167.099 158.283 167.099 C 164.337 167.099 169.709 168.417 174.396 171.054 C 179.083 173.691 182.72 177.305 185.309 181.894 C 187.895 186.485 189.191 191.661 189.191 197.421 C 189.191 201.719 188.459 205.65 186.994 209.213 C 185.529 212.779 183.453 215.855 180.768 218.442 C 178.081 221.031 174.858 223.056 171.1 224.521 C 167.339 225.986 163.164 226.718 158.576 226.718 C 149.494 226.718 142.071 223.96 136.31 218.442 C 130.547 212.926 127.667 206.016 127.667 197.714 C 127.668 188.731 130.474 181.381 136.091 175.668 Z M 190.217 312.412 C 187.091 318.271 182.794 322.812 177.326 326.035 C 171.856 329.258 165.703 330.869 158.869 330.869 C 152.131 330.869 146.026 329.283 140.558 326.108 C 135.088 322.936 130.766 318.443 127.594 312.631 C 124.419 306.822 122.833 300.107 122.833 292.489 C 122.833 280.576 126.202 271.299 132.94 264.657 C 139.678 258.017 148.028 254.696 157.989 254.696 C 165.02 254.696 171.367 256.211 177.032 259.237 C 182.695 262.265 187.089 266.612 190.216 272.274 C 193.34 277.939 194.904 284.579 194.904 292.196 C 194.904 299.813 193.341 306.552 190.217 312.412 Z"/>
  <g/>
  <g/>
  <g/>
  <g/>
  <g/>
  <g/>
  <g/>
  <g/>
  <g/>
  <g/>
  <g/>
  <g/>
  <g/>
  <g/>
  <g/>
  <path style="fill:#FFFFFF;" d="M 371.077 139.541 C 367.95 135.538 363.801 133.535 358.626 133.535 C 354.034 133.535 350.91 134.414 349.251 136.172 C 347.589 137.93 344.025 142.617 338.558 150.235 C 333.087 157.852 326.814 164.737 319.735 170.889 C 312.654 177.041 303.205 182.901 291.39 188.467 C 283.48 192.179 277.961 195.205 274.837 197.549 C 271.71 199.893 270.149 203.555 270.149 208.535 C 270.149 212.833 271.735 216.617 274.91 219.888 C 278.083 223.161 281.722 224.795 285.823 224.795 C 294.415 224.795 311.114 215.274 335.921 196.231 L 335.921 329.532 C 335.921 337.346 337.727 343.254 341.341 347.257 C 344.952 351.26 349.738 353.263 355.696 353.263 C 369.074 353.263 375.764 343.449 375.764 323.82 L 375.764 156.094 C 375.764 149.063 374.201 143.547 371.077 139.541 Z"/>
</svg>