<?xml version="1.0" encoding="utf-8"?>
<svg id="Layer_1" style="enable-background:new 0 0 496.158 496.158;" x="0px" y="0px" width="500px" height="500px" viewBox="0 0 496.158 496.158" xmlns="http://www.w3.org/2000/svg">
  <path style="fill:#56B48C;" d="M248.082,0.003C111.07,0.003,0,111.061,0,248.085c0,137,111.07,248.07,248.082,248.07&#10;&#9;c137.006,0,248.076-111.07,248.076-248.07C496.158,111.061,385.088,0.003,248.082,0.003z"/>
  <path style="fill:#FFFFFF;" d="M 230.866 270.444 C 228.083 263.559 223.956 257.506 218.488 252.28 C 213.018 247.057 206.133 242.832 197.834 239.609 C 207.598 234.825 214.947 228.673 219.88 221.152 C 224.81 213.633 227.277 205.089 227.277 195.517 C 227.277 187.998 225.86 180.894 223.029 174.204 C 220.196 167.516 215.851 161.51 209.992 156.186 C 204.133 150.865 196.808 146.69 188.019 143.662 C 179.23 140.636 169.024 139.121 157.404 139.121 C 143.634 139.121 131.597 141.71 121.296 146.885 C 110.992 152.062 103.18 158.97 97.858 167.613 C 92.534 176.256 89.875 185.461 89.875 195.225 C 89.875 215.44 99.884 230.235 119.904 239.61 C 95.098 249.377 82.697 267.394 82.697 293.663 C 82.697 305.968 85.627 317.078 91.486 326.988 C 97.345 336.901 106.036 344.69 117.56 350.352 C 129.082 356.015 142.95 358.848 159.162 358.848 C 174.786 358.848 188.36 356.015 199.885 350.352 C 211.407 344.689 220.148 336.852 226.106 326.841 C 232.062 316.832 235.042 305.674 235.042 293.369 C 235.041 284.971 233.649 277.329 230.866 270.444 Z M 136.091 175.668 C 141.705 169.955 149.103 167.099 158.283 167.099 C 164.337 167.099 169.709 168.417 174.396 171.054 C 179.083 173.691 182.72 177.305 185.309 181.894 C 187.895 186.485 189.191 191.661 189.191 197.421 C 189.191 201.719 188.459 205.65 186.994 209.213 C 185.529 212.779 183.453 215.855 180.768 218.442 C 178.081 221.031 174.858 223.056 171.1 224.521 C 167.339 225.986 163.164 226.718 158.576 226.718 C 149.494 226.718 142.071 223.96 136.31 218.442 C 130.547 212.926 127.667 206.016 127.667 197.714 C 127.668 188.731 130.474 181.381 136.091 175.668 Z M 190.217 312.412 C 187.091 318.271 182.794 322.812 177.326 326.035 C 171.856 329.258 165.703 330.869 158.869 330.869 C 152.131 330.869 146.026 329.283 140.558 326.108 C 135.088 322.936 130.766 318.443 127.594 312.631 C 124.419 306.822 122.833 300.107 122.833 292.489 C 122.833 280.576 126.202 271.299 132.94 264.657 C 139.678 258.017 148.028 254.696 157.989 254.696 C 165.02 254.696 171.367 256.211 177.032 259.237 C 182.695 262.265 187.089 266.612 190.216 272.274 C 193.34 277.939 194.904 284.579 194.904 292.196 C 194.904 299.813 193.341 306.552 190.217 312.412 Z"/>
  <g/>
  <g/>
  <g/>
  <g/>
  <g/>
  <g/>
  <g/>
  <g/>
  <g/>
  <g/>
  <g/>
  <g/>
  <g/>
  <g/>
  <g/>
  <path style="fill:#FFFFFF;" d="M 412.688 321.55 C 408.682 318.426 402.874 316.862 395.256 316.862 L 318.791 316.862 C 321.23 313.152 323.625 309.977 325.969 307.341 C 331.437 300.701 341.52 291.374 356.218 279.362 C 370.914 267.35 381.388 258.538 387.639 252.922 C 393.887 247.308 400.017 239.544 406.023 229.631 C 412.029 219.72 415.032 208.709 415.032 196.599 C 415.032 188.886 413.591 181.438 410.711 174.26 C 407.829 167.082 403.801 160.76 398.626 155.29 C 393.448 149.822 387.442 145.526 380.608 142.399 C 370.061 137.711 357.317 135.368 342.376 135.368 C 329.973 135.368 319.158 137.199 309.93 140.861 C 300.702 144.523 293.084 149.334 287.078 155.29 C 281.072 161.248 276.554 167.888 273.528 175.212 C 270.5 182.536 268.987 189.567 268.987 196.306 C 268.987 201.872 270.598 206.267 273.821 209.49 C 277.044 212.713 281.094 214.324 285.979 214.324 C 291.545 214.324 295.768 212.566 298.65 209.051 C 301.53 205.535 304.118 200.507 306.414 193.963 C 308.708 187.421 310.344 183.416 311.321 181.951 C 318.645 170.722 328.702 165.105 341.497 165.105 C 347.551 165.105 353.143 166.474 358.269 169.207 C 363.396 171.942 367.448 175.776 370.427 180.706 C 373.405 185.639 374.895 191.23 374.895 197.478 C 374.895 203.241 373.503 209.124 370.72 215.129 C 367.937 221.134 363.883 226.994 358.562 232.707 C 353.239 238.42 346.573 244.11 338.567 249.772 C 334.074 252.8 326.603 259.124 316.155 268.742 C 305.704 278.362 293.985 289.909 280.999 303.386 C 277.872 306.707 274.993 311.273 272.356 317.082 C 269.719 322.894 268.401 327.556 268.401 331.071 C 268.401 336.541 270.452 341.302 274.553 345.353 C 278.655 349.407 284.367 351.432 291.692 351.432 L 399.505 351.432 C 405.95 351.432 410.759 349.773 413.934 346.452 C 417.107 343.133 418.695 339.08 418.695 334.294 C 418.694 328.925 416.691 324.677 412.688 321.55 Z"/>
</svg>