<?xml version="1.0" encoding="utf-8"?>
<svg id="Layer_1" style="enable-background:new 0 0 496.158 496.158;" x="0px" y="0px" width="500px" height="500px" viewBox="0 0 496.158 496.158" xmlns="http://www.w3.org/2000/svg">
  <path style="fill:#56B48C;" d="M248.082,0.003C111.07,0.003,0,111.061,0,248.085c0,137,111.07,248.07,248.082,248.07&#10;&#9;c137.006,0,248.076-111.07,248.076-248.07C496.158,111.061,385.088,0.003,248.082,0.003z"/>
  <path style="fill:#FFFFFF;" d="M 230.866 270.444 C 228.083 263.559 223.956 257.506 218.488 252.28 C 213.018 247.057 206.133 242.832 197.834 239.609 C 207.598 234.825 214.947 228.673 219.88 221.152 C 224.81 213.633 227.277 205.089 227.277 195.517 C 227.277 187.998 225.86 180.894 223.029 174.204 C 220.196 167.516 215.851 161.51 209.992 156.186 C 204.133 150.865 196.808 146.69 188.019 143.662 C 179.23 140.636 169.024 139.121 157.404 139.121 C 143.634 139.121 131.597 141.71 121.296 146.885 C 110.992 152.062 103.18 158.97 97.858 167.613 C 92.534 176.256 89.875 185.461 89.875 195.225 C 89.875 215.44 99.884 230.235 119.904 239.61 C 95.098 249.377 82.697 267.394 82.697 293.663 C 82.697 305.968 85.627 317.078 91.486 326.988 C 97.345 336.901 106.036 344.69 117.56 350.352 C 129.082 356.015 142.95 358.848 159.162 358.848 C 174.786 358.848 188.36 356.015 199.885 350.352 C 211.407 344.689 220.148 336.852 226.106 326.841 C 232.062 316.832 235.042 305.674 235.042 293.369 C 235.041 284.971 233.649 277.329 230.866 270.444 Z M 136.091 175.668 C 141.705 169.955 149.103 167.099 158.283 167.099 C 164.337 167.099 169.709 168.417 174.396 171.054 C 179.083 173.691 182.72 177.305 185.309 181.894 C 187.895 186.485 189.191 191.661 189.191 197.421 C 189.191 201.719 188.459 205.65 186.994 209.213 C 185.529 212.779 183.453 215.855 180.768 218.442 C 178.081 221.031 174.858 223.056 171.1 224.521 C 167.339 225.986 163.164 226.718 158.576 226.718 C 149.494 226.718 142.071 223.96 136.31 218.442 C 130.547 212.926 127.667 206.016 127.667 197.714 C 127.668 188.731 130.474 181.381 136.091 175.668 Z M 190.217 312.412 C 187.091 318.271 182.794 322.812 177.326 326.035 C 171.856 329.258 165.703 330.869 158.869 330.869 C 152.131 330.869 146.026 329.283 140.558 326.108 C 135.088 322.936 130.766 318.443 127.594 312.631 C 124.419 306.822 122.833 300.107 122.833 292.489 C 122.833 280.576 126.202 271.299 132.94 264.657 C 139.678 258.017 148.028 254.696 157.989 254.696 C 165.02 254.696 171.367 256.211 177.032 259.237 C 182.695 262.265 187.089 266.612 190.216 272.274 C 193.34 277.939 194.904 284.579 194.904 292.196 C 194.904 299.813 193.341 306.552 190.217 312.412 Z"/>
  <g/>
  <g/>
  <g/>
  <g/>
  <g/>
  <g/>
  <g/>
  <g/>
  <g/>
  <g/>
  <g/>
  <g/>
  <g/>
  <g/>
  <g/>
  <path style="fill:#FFFFFF;" d="M 410.849 271.177 C 408.212 264.782 404.281 258.946 399.057 253.672 C 393.831 248.399 387.411 243.711 379.794 239.609 C 387.704 232.969 393.783 226.158 398.031 219.174 C 402.279 212.193 404.403 203.819 404.403 194.052 C 404.403 186.632 402.938 179.697 400.008 173.251 C 397.078 166.805 392.732 161.143 386.971 156.259 C 381.207 151.377 374.421 147.642 366.61 145.053 C 358.796 142.467 350.153 141.171 340.682 141.171 C 329.842 141.171 320.028 142.709 311.239 145.785 C 302.45 148.861 295.1 152.94 289.193 158.016 C 283.284 163.095 278.793 168.442 275.716 174.056 C 272.64 179.673 271.102 185.019 271.102 190.096 C 271.102 195.369 272.737 199.595 276.009 202.767 C 279.28 205.942 282.868 207.528 286.776 207.528 C 290.094 207.528 293.024 206.942 295.565 205.77 C 298.103 204.598 299.861 202.987 300.838 200.936 C 302.497 197.127 304.328 193.076 306.331 188.778 C 308.332 184.482 310.455 180.966 312.703 178.231 C 314.948 175.498 318 173.301 321.858 171.639 C 325.714 169.98 330.622 169.149 336.58 169.149 C 345.369 169.149 352.35 171.859 357.527 177.279 C 362.702 182.699 365.291 189.17 365.291 196.688 C 365.291 206.553 362.043 214.12 355.55 219.393 C 349.055 224.666 341.316 227.303 332.332 227.303 L 326.326 227.303 C 319.39 227.303 314.168 228.745 310.652 231.624 C 307.136 234.506 305.379 238.289 305.379 242.977 C 305.379 247.763 306.844 251.498 309.774 254.183 C 312.704 256.87 316.853 258.211 322.225 258.211 C 323.397 258.211 326.034 258.017 330.135 257.625 C 334.237 257.236 337.262 257.039 339.217 257.039 C 350.35 257.039 359.04 260.287 365.291 266.78 C 371.539 273.276 374.666 282.234 374.666 293.66 C 374.666 301.376 372.835 308.162 369.173 314.021 C 365.511 319.88 360.871 324.3 355.257 327.278 C 349.641 330.258 343.806 331.746 337.752 331.746 C 327.205 331.746 319.025 328.45 313.216 321.858 C 307.404 315.266 301.959 305.184 296.883 291.609 C 296.1 289.364 294.441 287.434 291.903 285.823 C 289.362 284.212 286.725 283.406 283.993 283.406 C 278.522 283.406 273.959 285.141 270.297 288.606 C 266.635 292.074 264.804 296.64 264.804 302.302 C 264.804 306.697 266.342 312.263 269.418 319.001 C 272.494 325.739 277.035 332.258 283.041 338.557 C 289.047 344.856 296.687 350.106 305.966 354.304 C 315.242 358.502 325.741 360.603 337.46 360.603 C 348.981 360.603 359.506 358.772 369.027 355.11 C 378.548 351.448 386.774 346.371 393.71 339.876 C 400.643 333.383 405.892 325.985 409.457 317.684 C 413.02 309.385 414.804 300.79 414.804 291.903 C 414.804 284.484 413.486 277.575 410.849 271.177 Z"/>
</svg>