<?xml version="1.0" encoding="utf-8"?>
<svg id="Layer_1" style="enable-background:new 0 0 496.158 496.158;" x="0px" y="0px" width="500px" height="500px" viewBox="0 0 496.158 496.158" xmlns="http://www.w3.org/2000/svg">
  <path style="fill:#56B48C;" d="M248.082,0.003C111.07,0.003,0,111.061,0,248.085c0,137,111.07,248.07,248.082,248.07&#10;&#9;c137.006,0,248.076-111.07,248.076-248.07C496.158,111.061,385.088,0.003,248.082,0.003z"/>
  <path style="fill:#FFFFFF;" d="M 230.866 270.444 C 228.083 263.559 223.956 257.506 218.488 252.28 C 213.018 247.057 206.133 242.832 197.834 239.609 C 207.598 234.825 214.947 228.673 219.88 221.152 C 224.81 213.633 227.277 205.089 227.277 195.517 C 227.277 187.998 225.86 180.894 223.029 174.204 C 220.196 167.516 215.851 161.51 209.992 156.186 C 204.133 150.865 196.808 146.69 188.019 143.662 C 179.23 140.636 169.024 139.121 157.404 139.121 C 143.634 139.121 131.597 141.71 121.296 146.885 C 110.992 152.062 103.18 158.97 97.858 167.613 C 92.534 176.256 89.875 185.461 89.875 195.225 C 89.875 215.44 99.884 230.235 119.904 239.61 C 95.098 249.377 82.697 267.394 82.697 293.663 C 82.697 305.968 85.627 317.078 91.486 326.988 C 97.345 336.901 106.036 344.69 117.56 350.352 C 129.082 356.015 142.95 358.848 159.162 358.848 C 174.786 358.848 188.36 356.015 199.885 350.352 C 211.407 344.689 220.148 336.852 226.106 326.841 C 232.062 316.832 235.042 305.674 235.042 293.369 C 235.041 284.971 233.649 277.329 230.866 270.444 Z M 136.091 175.668 C 141.705 169.955 149.103 167.099 158.283 167.099 C 164.337 167.099 169.709 168.417 174.396 171.054 C 179.083 173.691 182.72 177.305 185.309 181.894 C 187.895 186.485 189.191 191.661 189.191 197.421 C 189.191 201.719 188.459 205.65 186.994 209.213 C 185.529 212.779 183.453 215.855 180.768 218.442 C 178.081 221.031 174.858 223.056 171.1 224.521 C 167.339 225.986 163.164 226.718 158.576 226.718 C 149.494 226.718 142.071 223.96 136.31 218.442 C 130.547 212.926 127.667 206.016 127.667 197.714 C 127.668 188.731 130.474 181.381 136.091 175.668 Z M 190.217 312.412 C 187.091 318.271 182.794 322.812 177.326 326.035 C 171.856 329.258 165.703 330.869 158.869 330.869 C 152.131 330.869 146.026 329.283 140.558 326.108 C 135.088 322.936 130.766 318.443 127.594 312.631 C 124.419 306.822 122.833 300.107 122.833 292.489 C 122.833 280.576 126.202 271.299 132.94 264.657 C 139.678 258.017 148.028 254.696 157.989 254.696 C 165.02 254.696 171.367 256.211 177.032 259.237 C 182.695 262.265 187.089 266.612 190.216 272.274 C 193.34 277.939 194.904 284.579 194.904 292.196 C 194.904 299.813 193.341 306.552 190.217 312.412 Z"/>
  <g/>
  <g/>
  <g/>
  <g/>
  <g/>
  <g/>
  <g/>
  <g/>
  <g/>
  <g/>
  <g/>
  <g/>
  <g/>
  <g/>
  <g/>
  <path style="fill:#FFFFFF;" d="M 419.46 280.362 C 414.919 278.311 408.888 277.286 401.369 277.286 L 395.07 277.286 L 395.07 163.907 C 395.07 146.915 387.647 138.419 372.804 138.419 C 368.213 138.419 364.283 139.957 361.012 143.033 C 357.739 146.109 353.564 151.067 348.488 157.901 L 270.851 261.758 C 268.702 264.591 266.896 266.984 265.431 268.936 C 263.966 270.891 262.549 272.916 261.183 275.015 C 259.814 277.116 258.789 279.117 258.107 281.021 C 257.422 282.925 257.082 284.807 257.082 286.661 C 257.082 293.889 259.4 299.602 264.04 303.8 C 268.677 308 275.635 310.099 284.914 310.099 L 358.449 310.099 L 358.449 337.345 C 358.449 344.669 360.134 350.213 363.503 353.971 C 366.872 357.729 371.29 359.611 376.76 359.611 C 382.326 359.611 386.769 357.78 390.09 354.118 C 393.409 350.456 395.07 344.867 395.07 337.346 L 395.07 310.1 L 404.006 310.1 C 411.426 310.1 416.993 308.807 420.705 306.218 C 424.415 303.632 426.271 299.505 426.271 293.84 C 426.271 286.906 424.001 282.413 419.46 280.362 Z M 358.449 277.286 L 295.461 277.286 L 358.449 192.179 L 358.449 277.286 Z"/>
</svg>