<?xml version="1.0" encoding="utf-8"?>
<svg id="Layer_1" style="enable-background:new 0 0 496.158 496.158;" x="0px" y="0px" width="500px" height="500px" viewBox="0 0 496.158 496.158" xmlns="http://www.w3.org/2000/svg">
  <path style="fill:#56B48C;" d="M248.082,0.003C111.07,0.003,0,111.061,0,248.085c0,137,111.07,248.07,248.082,248.07&#10;&#9;c137.006,0,248.076-111.07,248.076-248.07C496.158,111.061,385.088,0.003,248.082,0.003z"/>
  <path style="fill:#FFFFFF;" d="M 230.866 270.444 C 228.083 263.559 223.956 257.506 218.488 252.28 C 213.018 247.057 206.133 242.832 197.834 239.609 C 207.598 234.825 214.947 228.673 219.88 221.152 C 224.81 213.633 227.277 205.089 227.277 195.517 C 227.277 187.998 225.86 180.894 223.029 174.204 C 220.196 167.516 215.851 161.51 209.992 156.186 C 204.133 150.865 196.808 146.69 188.019 143.662 C 179.23 140.636 169.024 139.121 157.404 139.121 C 143.634 139.121 131.597 141.71 121.296 146.885 C 110.992 152.062 103.18 158.97 97.858 167.613 C 92.534 176.256 89.875 185.461 89.875 195.225 C 89.875 215.44 99.884 230.235 119.904 239.61 C 95.098 249.377 82.697 267.394 82.697 293.663 C 82.697 305.968 85.627 317.078 91.486 326.988 C 97.345 336.901 106.036 344.69 117.56 350.352 C 129.082 356.015 142.95 358.848 159.162 358.848 C 174.786 358.848 188.36 356.015 199.885 350.352 C 211.407 344.689 220.148 336.852 226.106 326.841 C 232.062 316.832 235.042 305.674 235.042 293.369 C 235.041 284.971 233.649 277.329 230.866 270.444 Z M 136.091 175.668 C 141.705 169.955 149.103 167.099 158.283 167.099 C 164.337 167.099 169.709 168.417 174.396 171.054 C 179.083 173.691 182.72 177.305 185.309 181.894 C 187.895 186.485 189.191 191.661 189.191 197.421 C 189.191 201.719 188.459 205.65 186.994 209.213 C 185.529 212.779 183.453 215.855 180.768 218.442 C 178.081 221.031 174.858 223.056 171.1 224.521 C 167.339 225.986 163.164 226.718 158.576 226.718 C 149.494 226.718 142.071 223.96 136.31 218.442 C 130.547 212.926 127.667 206.016 127.667 197.714 C 127.668 188.731 130.474 181.381 136.091 175.668 Z M 190.217 312.412 C 187.091 318.271 182.794 322.812 177.326 326.035 C 171.856 329.258 165.703 330.869 158.869 330.869 C 152.131 330.869 146.026 329.283 140.558 326.108 C 135.088 322.936 130.766 318.443 127.594 312.631 C 124.419 306.822 122.833 300.107 122.833 292.489 C 122.833 280.576 126.202 271.299 132.94 264.657 C 139.678 258.017 148.028 254.696 157.989 254.696 C 165.02 254.696 171.367 256.211 177.032 259.237 C 182.695 262.265 187.089 266.612 190.216 272.274 C 193.34 277.939 194.904 284.579 194.904 292.196 C 194.904 299.813 193.341 306.552 190.217 312.412 Z"/>
  <g/>
  <g/>
  <g/>
  <g/>
  <g/>
  <g/>
  <g/>
  <g/>
  <g/>
  <g/>
  <g/>
  <g/>
  <g/>
  <g/>
  <g/>
  <path style="fill:#FFFFFF;" d="M 408.097 257.081 C 404.581 248.585 399.747 241.238 393.595 235.035 C 387.443 228.835 380.288 223.975 372.135 220.46 C 363.98 216.944 355.216 215.187 345.841 215.187 C 334.122 215.187 321.328 218.899 307.462 226.32 L 315.812 178.859 L 385.392 178.859 C 392.618 178.859 398.086 177.298 401.798 174.171 C 405.508 171.047 407.364 166.945 407.364 161.866 C 407.364 150.246 399.747 144.434 384.512 144.434 L 307.168 144.434 C 298.768 144.434 292.714 146.338 289.004 150.147 C 285.292 153.956 282.753 160.06 281.387 168.458 L 269.083 238.624 C 268.007 244.776 267.472 248.098 267.472 248.585 C 267.472 252.98 269.326 256.912 273.038 260.377 C 276.748 263.845 280.996 265.577 285.782 265.577 C 290.177 265.577 295.766 263.014 302.554 257.887 C 309.34 252.76 314.54 249.171 318.155 247.12 C 321.767 245.069 327.773 244.044 336.173 244.044 C 343.007 244.044 349.21 245.681 354.777 248.951 C 360.343 252.224 364.786 257.18 368.107 263.819 C 371.426 270.461 373.087 278.467 373.087 287.842 C 373.087 296.535 371.549 304.299 368.473 311.133 C 365.397 317.97 361.025 323.341 355.363 327.246 C 349.698 331.153 343.106 333.105 335.588 333.105 C 327.385 333.105 319.962 330.688 313.322 325.854 C 306.68 321.02 301.406 314.259 297.502 305.566 C 293.497 296.095 287.395 291.357 279.191 291.357 C 274.405 291.357 270.425 293.067 267.253 296.484 C 264.078 299.903 262.492 303.515 262.492 307.324 C 262.492 313.575 264.763 320.874 269.304 329.223 C 273.845 337.572 281.558 344.97 292.449 351.415 C 303.337 357.86 317.521 361.083 335.003 361.083 C 350.627 361.083 364.421 357.664 376.385 350.829 C 388.346 343.995 397.502 334.766 403.851 323.143 C 410.198 311.523 413.372 298.632 413.372 284.471 C 413.37 274.71 411.612 265.577 408.097 257.081 Z"/>
</svg>