<?xml version="1.0" encoding="utf-8"?>
<svg id="Layer_1" style="enable-background:new 0 0 496.158 496.158;" x="0px" y="0px" width="500px" height="500px" viewBox="0 0 496.158 496.158" xmlns="http://www.w3.org/2000/svg">
  <path style="fill:#56B48C;" d="M248.082,0.003C111.07,0.003,0,111.061,0,248.085c0,137,111.07,248.07,248.082,248.07&#10;&#9;c137.006,0,248.076-111.07,248.076-248.07C496.158,111.061,385.088,0.003,248.082,0.003z"/>
  <path style="fill:#FFFFFF;" d="M 230.866 270.444 C 228.083 263.559 223.956 257.506 218.488 252.28 C 213.018 247.057 206.133 242.832 197.834 239.609 C 207.598 234.825 214.947 228.673 219.88 221.152 C 224.81 213.633 227.277 205.089 227.277 195.517 C 227.277 187.998 225.86 180.894 223.029 174.204 C 220.196 167.516 215.851 161.51 209.992 156.186 C 204.133 150.865 196.808 146.69 188.019 143.662 C 179.23 140.636 169.024 139.121 157.404 139.121 C 143.634 139.121 131.597 141.71 121.296 146.885 C 110.992 152.062 103.18 158.97 97.858 167.613 C 92.534 176.256 89.875 185.461 89.875 195.225 C 89.875 215.44 99.884 230.235 119.904 239.61 C 95.098 249.377 82.697 267.394 82.697 293.663 C 82.697 305.968 85.627 317.078 91.486 326.988 C 97.345 336.901 106.036 344.69 117.56 350.352 C 129.082 356.015 142.95 358.848 159.162 358.848 C 174.786 358.848 188.36 356.015 199.885 350.352 C 211.407 344.689 220.148 336.852 226.106 326.841 C 232.062 316.832 235.042 305.674 235.042 293.369 C 235.041 284.971 233.649 277.329 230.866 270.444 Z M 136.091 175.668 C 141.705 169.955 149.103 167.099 158.283 167.099 C 164.337 167.099 169.709 168.417 174.396 171.054 C 179.083 173.691 182.72 177.305 185.309 181.894 C 187.895 186.485 189.191 191.661 189.191 197.421 C 189.191 201.719 188.459 205.65 186.994 209.213 C 185.529 212.779 183.453 215.855 180.768 218.442 C 178.081 221.031 174.858 223.056 171.1 224.521 C 167.339 225.986 163.164 226.718 158.576 226.718 C 149.494 226.718 142.071 223.96 136.31 218.442 C 130.547 212.926 127.667 206.016 127.667 197.714 C 127.668 188.731 130.474 181.381 136.091 175.668 Z M 190.217 312.412 C 187.091 318.271 182.794 322.812 177.326 326.035 C 171.856 329.258 165.703 330.869 158.869 330.869 C 152.131 330.869 146.026 329.283 140.558 326.108 C 135.088 322.936 130.766 318.443 127.594 312.631 C 124.419 306.822 122.833 300.107 122.833 292.489 C 122.833 280.576 126.202 271.299 132.94 264.657 C 139.678 258.017 148.028 254.696 157.989 254.696 C 165.02 254.696 171.367 256.211 177.032 259.237 C 182.695 262.265 187.089 266.612 190.216 272.274 C 193.34 277.939 194.904 284.579 194.904 292.196 C 194.904 299.813 193.341 306.552 190.217 312.412 Z"/>
  <g/>
  <g/>
  <g/>
  <g/>
  <g/>
  <g/>
  <g/>
  <g/>
  <g/>
  <g/>
  <g/>
  <g/>
  <g/>
  <g/>
  <g/>
  <path style="fill:#FFFFFF;" d="M 407.911 258.389 C 404.688 249.699 400.122 242.155 394.215 235.757 C 388.305 229.362 381.421 224.43 373.561 220.962 C 365.699 217.497 357.129 215.762 347.853 215.762 C 338.185 215.762 329.444 217.666 321.632 221.475 C 313.818 225.284 306.592 231.143 299.952 239.053 C 301.22 212.491 305.42 194.034 312.55 183.682 C 316.066 178.605 320.387 174.577 325.514 171.597 C 330.641 168.619 335.791 167.129 340.968 167.129 C 347.413 167.129 353.076 168.912 357.96 172.476 C 362.842 176.042 366.406 180.752 368.653 186.612 C 370.312 191.203 372.901 194.792 376.417 197.379 C 379.933 199.968 383.741 201.261 387.843 201.261 C 392.531 201.261 396.387 199.627 399.415 196.354 C 402.441 193.083 403.956 189.446 403.956 185.441 C 403.956 178.801 401.539 171.868 396.705 164.64 C 391.871 157.414 384.693 151.36 375.172 146.476 C 365.651 141.594 354.639 139.152 342.14 139.152 C 329.151 139.152 317.578 141.594 307.423 146.476 C 297.265 151.36 288.623 158.586 281.495 168.156 C 274.365 177.728 268.897 189.788 265.089 204.338 C 261.28 218.89 259.376 235.393 259.376 253.85 C 259.376 276.507 262.525 295.671 268.824 311.345 C 275.123 327.019 284.228 338.861 296.143 346.867 C 308.056 354.876 322.217 358.879 338.623 358.879 C 352.88 358.879 365.649 355.73 376.929 349.431 C 388.209 343.132 396.997 334.368 403.296 323.137 C 409.595 311.908 412.744 299.407 412.744 285.637 C 412.745 276.164 411.134 267.082 407.911 258.389 Z M 363.966 317.935 C 357.521 325.992 349.365 330.02 339.503 330.02 C 329.15 330.02 320.556 325.625 313.722 316.836 C 306.885 308.047 303.468 297.061 303.468 283.877 C 303.468 275.674 305.153 268.522 308.522 262.417 C 311.891 256.315 316.334 251.65 321.852 248.428 C 327.368 245.205 333.154 243.594 339.21 243.594 C 345.557 243.594 351.368 245.279 356.642 248.648 C 361.916 252.017 366.065 256.901 369.093 263.296 C 372.119 269.693 373.634 277.336 373.634 286.221 C 373.634 299.308 370.411 309.878 363.966 317.935 Z"/>
</svg>