<?xml version="1.0" encoding="utf-8"?>
<svg id="Layer_1" style="enable-background:new 0 0 496.158 496.158;" x="0px" y="0px" width="500px" height="500px" viewBox="0 0 496.158 496.158" xmlns="http://www.w3.org/2000/svg">
  <path style="fill:#56B48C;" d="M248.082,0.003C111.07,0.003,0,111.061,0,248.085c0,137,111.07,248.07,248.082,248.07&#10;&#9;c137.006,0,248.076-111.07,248.076-248.07C496.158,111.061,385.088,0.003,248.082,0.003z"/>
  <path style="fill:#FFFFFF;" d="M 230.866 270.444 C 228.083 263.559 223.956 257.506 218.488 252.28 C 213.018 247.057 206.133 242.832 197.834 239.609 C 207.598 234.825 214.947 228.673 219.88 221.152 C 224.81 213.633 227.277 205.089 227.277 195.517 C 227.277 187.998 225.86 180.894 223.029 174.204 C 220.196 167.516 215.851 161.51 209.992 156.186 C 204.133 150.865 196.808 146.69 188.019 143.662 C 179.23 140.636 169.024 139.121 157.404 139.121 C 143.634 139.121 131.597 141.71 121.296 146.885 C 110.992 152.062 103.18 158.97 97.858 167.613 C 92.534 176.256 89.875 185.461 89.875 195.225 C 89.875 215.44 99.884 230.235 119.904 239.61 C 95.098 249.377 82.697 267.394 82.697 293.663 C 82.697 305.968 85.627 317.078 91.486 326.988 C 97.345 336.901 106.036 344.69 117.56 350.352 C 129.082 356.015 142.95 358.848 159.162 358.848 C 174.786 358.848 188.36 356.015 199.885 350.352 C 211.407 344.689 220.148 336.852 226.106 326.841 C 232.062 316.832 235.042 305.674 235.042 293.369 C 235.041 284.971 233.649 277.329 230.866 270.444 Z M 136.091 175.668 C 141.705 169.955 149.103 167.099 158.283 167.099 C 164.337 167.099 169.709 168.417 174.396 171.054 C 179.083 173.691 182.72 177.305 185.309 181.894 C 187.895 186.485 189.191 191.661 189.191 197.421 C 189.191 201.719 188.459 205.65 186.994 209.213 C 185.529 212.779 183.453 215.855 180.768 218.442 C 178.081 221.031 174.858 223.056 171.1 224.521 C 167.339 225.986 163.164 226.718 158.576 226.718 C 149.494 226.718 142.071 223.96 136.31 218.442 C 130.547 212.926 127.667 206.016 127.667 197.714 C 127.668 188.731 130.474 181.381 136.091 175.668 Z M 190.217 312.412 C 187.091 318.271 182.794 322.812 177.326 326.035 C 171.856 329.258 165.703 330.869 158.869 330.869 C 152.131 330.869 146.026 329.283 140.558 326.108 C 135.088 322.936 130.766 318.443 127.594 312.631 C 124.419 306.822 122.833 300.107 122.833 292.489 C 122.833 280.576 126.202 271.299 132.94 264.657 C 139.678 258.017 148.028 254.696 157.989 254.696 C 165.02 254.696 171.367 256.211 177.032 259.237 C 182.695 262.265 187.089 266.612 190.216 272.274 C 193.34 277.939 194.904 284.579 194.904 292.196 C 194.904 299.813 193.341 306.552 190.217 312.412 Z"/>
  <g/>
  <g/>
  <g/>
  <g/>
  <g/>
  <g/>
  <g/>
  <g/>
  <g/>
  <g/>
  <g/>
  <g/>
  <g/>
  <g/>
  <g/>
  <path style="fill:#FFFFFF;" d="M 413.673 267.474 C 410.89 260.589 406.763 254.536 401.295 249.31 C 395.825 244.087 388.94 239.862 380.641 236.639 C 390.405 231.855 397.754 225.703 402.687 218.182 C 407.617 210.663 410.084 202.119 410.084 192.547 C 410.084 185.028 408.667 177.924 405.836 171.234 C 403.003 164.546 398.658 158.54 392.799 153.216 C 386.94 147.895 379.615 143.72 370.826 140.692 C 362.037 137.666 351.831 136.151 340.211 136.151 C 326.441 136.151 314.404 138.74 304.103 143.915 C 293.799 149.092 285.987 156 280.665 164.643 C 275.341 173.286 272.682 182.491 272.682 192.255 C 272.682 212.47 282.691 227.265 302.711 236.64 C 277.905 246.407 265.504 264.424 265.504 290.693 C 265.504 302.998 268.434 314.108 274.293 324.018 C 280.152 333.931 288.843 341.72 300.367 347.382 C 311.889 353.045 325.757 355.878 341.969 355.878 C 357.593 355.878 371.167 353.045 382.692 347.382 C 394.214 341.719 402.955 333.882 408.913 323.871 C 414.869 313.862 417.849 302.704 417.849 290.399 C 417.848 282.001 416.456 274.359 413.673 267.474 Z M 318.898 172.698 C 324.512 166.985 331.91 164.129 341.09 164.129 C 347.144 164.129 352.516 165.447 357.203 168.084 C 361.89 170.721 365.527 174.335 368.116 178.924 C 370.702 183.515 371.998 188.691 371.998 194.451 C 371.998 198.749 371.266 202.68 369.801 206.243 C 368.336 209.809 366.26 212.885 363.575 215.472 C 360.888 218.061 357.665 220.086 353.907 221.551 C 350.146 223.016 345.971 223.748 341.383 223.748 C 332.301 223.748 324.878 220.99 319.117 215.472 C 313.354 209.956 310.474 203.046 310.474 194.744 C 310.475 185.761 313.281 178.411 318.898 172.698 Z M 373.024 309.442 C 369.898 315.301 365.601 319.842 360.133 323.065 C 354.663 326.288 348.51 327.899 341.676 327.899 C 334.938 327.899 328.833 326.313 323.365 323.138 C 317.895 319.966 313.573 315.473 310.401 309.661 C 307.226 303.852 305.64 297.137 305.64 289.519 C 305.64 277.606 309.009 268.329 315.747 261.687 C 322.485 255.047 330.835 251.726 340.796 251.726 C 347.827 251.726 354.174 253.241 359.839 256.267 C 365.502 259.295 369.896 263.642 373.023 269.304 C 376.147 274.969 377.711 281.609 377.711 289.226 C 377.711 296.843 376.148 303.582 373.024 309.442 Z"/>
</svg>