<?xml version="1.0" encoding="utf-8"?>
<svg id="Layer_1" style="enable-background:new 0 0 496.158 496.158;" x="0px" y="0px" width="500px" height="500px" viewBox="0 0 496.158 496.158" xmlns="http://www.w3.org/2000/svg">
  <path style="fill:#56B48C;" d="M248.082,0.003C111.07,0.003,0,111.061,0,248.085c0,137,111.07,248.07,248.082,248.07&#10;&#9;c137.006,0,248.076-111.07,248.076-248.07C496.158,111.061,385.088,0.003,248.082,0.003z"/>
  <path style="fill:#FFFFFF;" d="M 230.866 270.444 C 228.083 263.559 223.956 257.506 218.488 252.28 C 213.018 247.057 206.133 242.832 197.834 239.609 C 207.598 234.825 214.947 228.673 219.88 221.152 C 224.81 213.633 227.277 205.089 227.277 195.517 C 227.277 187.998 225.86 180.894 223.029 174.204 C 220.196 167.516 215.851 161.51 209.992 156.186 C 204.133 150.865 196.808 146.69 188.019 143.662 C 179.23 140.636 169.024 139.121 157.404 139.121 C 143.634 139.121 131.597 141.71 121.296 146.885 C 110.992 152.062 103.18 158.97 97.858 167.613 C 92.534 176.256 89.875 185.461 89.875 195.225 C 89.875 215.44 99.884 230.235 119.904 239.61 C 95.098 249.377 82.697 267.394 82.697 293.663 C 82.697 305.968 85.627 317.078 91.486 326.988 C 97.345 336.901 106.036 344.69 117.56 350.352 C 129.082 356.015 142.95 358.848 159.162 358.848 C 174.786 358.848 188.36 356.015 199.885 350.352 C 211.407 344.689 220.148 336.852 226.106 326.841 C 232.062 316.832 235.042 305.674 235.042 293.369 C 235.041 284.971 233.649 277.329 230.866 270.444 Z M 136.091 175.668 C 141.705 169.955 149.103 167.099 158.283 167.099 C 164.337 167.099 169.709 168.417 174.396 171.054 C 179.083 173.691 182.72 177.305 185.309 181.894 C 187.895 186.485 189.191 191.661 189.191 197.421 C 189.191 201.719 188.459 205.65 186.994 209.213 C 185.529 212.779 183.453 215.855 180.768 218.442 C 178.081 221.031 174.858 223.056 171.1 224.521 C 167.339 225.986 163.164 226.718 158.576 226.718 C 149.494 226.718 142.071 223.96 136.31 218.442 C 130.547 212.926 127.667 206.016 127.667 197.714 C 127.668 188.731 130.474 181.381 136.091 175.668 Z M 190.217 312.412 C 187.091 318.271 182.794 322.812 177.326 326.035 C 171.856 329.258 165.703 330.869 158.869 330.869 C 152.131 330.869 146.026 329.283 140.558 326.108 C 135.088 322.936 130.766 318.443 127.594 312.631 C 124.419 306.822 122.833 300.107 122.833 292.489 C 122.833 280.576 126.202 271.299 132.94 264.657 C 139.678 258.017 148.028 254.696 157.989 254.696 C 165.02 254.696 171.367 256.211 177.032 259.237 C 182.695 262.265 187.089 266.612 190.216 272.274 C 193.34 277.939 194.904 284.579 194.904 292.196 C 194.904 299.813 193.341 306.552 190.217 312.412 Z"/>
  <g/>
  <g/>
  <g/>
  <g/>
  <g/>
  <g/>
  <g/>
  <g/>
  <g/>
  <g/>
  <g/>
  <g/>
  <g/>
  <g/>
  <g/>
  <path style="fill:#FFFFFF;" d="M 419.489 199.294 C 415.875 186.014 410.7 175.003 403.962 166.262 C 397.224 157.523 388.922 150.858 379.06 146.267 C 369.196 141.678 357.966 139.382 345.369 139.382 C 334.431 139.382 324.444 141.238 315.413 144.948 C 306.379 148.66 298.591 153.836 292.049 160.475 C 285.505 167.117 280.477 174.954 276.961 183.986 C 273.445 193.02 271.688 202.567 271.688 212.624 C 271.688 221.999 273.25 230.96 276.376 239.504 C 279.5 248.05 283.968 255.521 289.779 261.916 C 295.588 268.313 302.472 273.294 310.433 276.857 C 318.391 280.423 326.96 282.204 336.141 282.204 C 345.809 282.204 354.62 280.277 362.581 276.418 C 370.539 272.562 377.742 266.823 384.187 259.206 C 382.819 285.672 378.621 304.129 371.589 314.577 C 368.073 319.754 363.825 323.758 358.845 326.589 C 353.865 329.422 348.591 330.837 343.025 330.837 C 336.774 330.837 331.16 329.056 326.179 325.49 C 321.199 321.927 317.633 317.214 315.486 311.354 C 313.728 306.57 311.139 302.981 307.722 300.587 C 304.303 298.195 300.446 296.998 296.15 296.998 C 291.462 296.998 287.604 298.609 284.578 301.832 C 281.55 305.055 280.037 308.717 280.037 312.818 C 280.037 319.46 282.477 326.368 287.361 333.546 C 292.243 340.724 299.373 346.73 308.748 351.564 C 318.123 356.398 329.157 358.815 341.853 358.815 C 354.744 358.815 366.266 356.446 376.423 351.711 C 386.578 346.976 395.294 339.75 402.57 330.031 C 409.843 320.315 415.387 308.303 419.196 293.996 C 423.005 279.691 424.909 263.161 424.909 244.411 C 424.909 227.615 423.101 212.576 419.489 199.294 Z M 375.617 235.768 C 372.149 241.824 367.656 246.438 362.14 249.611 C 356.621 252.786 350.835 254.372 344.782 254.372 C 334.918 254.372 326.764 250.516 320.319 242.8 C 313.874 235.087 310.651 224.735 310.651 211.745 C 310.651 198.66 313.874 188.138 320.319 180.178 C 326.764 172.22 334.625 168.24 343.903 168.24 C 349.273 168.24 354.23 169.412 358.771 171.756 C 363.312 174.1 367.216 177.322 370.49 181.424 C 373.761 185.526 376.299 190.385 378.107 195.999 C 379.913 201.616 380.817 207.743 380.817 214.383 C 380.817 222.585 379.082 229.714 375.617 235.768 Z"/>
</svg>