<?xml version="1.0" encoding="utf-8"?>
<svg id="Layer_1" style="enable-background:new 0 0 496.158 496.158;" x="0px" y="0px" width="500px" height="500px" viewBox="0 0 496.158 496.158" xmlns="http://www.w3.org/2000/svg">
  <path style="fill:#56B48C;" d="M248.082,0.003C111.07,0.003,0,111.061,0,248.085c0,137,111.07,248.07,248.082,248.07&#10;&#9;c137.006,0,248.076-111.07,248.076-248.07C496.158,111.061,385.088,0.003,248.082,0.003z"/>
  <path style="fill:#FFFFFF;" d="M 227.277 199.326 C 223.663 186.046 218.488 175.035 211.75 166.294 C 205.012 157.555 196.71 150.89 186.848 146.299 C 176.983 141.71 165.754 139.414 153.157 139.414 C 142.219 139.414 132.233 141.27 123.201 144.98 C 114.167 148.692 106.378 153.868 99.837 160.507 C 93.293 167.149 88.265 174.986 84.749 184.018 C 81.233 193.052 79.476 202.599 79.476 212.656 C 79.476 222.031 81.037 230.992 84.164 239.536 C 87.288 248.082 91.756 255.553 97.567 261.948 C 103.376 268.345 110.261 273.326 118.221 276.889 C 126.179 280.455 134.748 282.236 143.929 282.236 C 153.597 282.236 162.409 280.309 170.369 276.45 C 178.327 272.594 185.53 266.855 191.975 259.238 C 190.606 285.704 186.409 304.161 179.377 314.609 C 175.861 319.786 171.613 323.79 166.633 326.621 C 161.653 329.454 156.379 330.869 150.813 330.869 C 144.562 330.869 138.948 329.088 133.967 325.522 C 128.987 321.959 125.421 317.246 123.274 311.386 C 121.516 306.602 118.927 303.013 115.51 300.619 C 112.091 298.227 108.234 297.03 103.938 297.03 C 99.25 297.03 95.392 298.641 92.366 301.864 C 89.338 305.087 87.825 308.749 87.825 312.85 C 87.825 319.492 90.265 326.4 95.149 333.578 C 100.031 340.756 107.161 346.762 116.536 351.596 C 125.911 356.43 136.945 358.847 149.641 358.847 C 162.532 358.847 174.054 356.478 184.211 351.743 C 194.366 347.008 203.082 339.782 210.358 330.063 C 217.632 320.347 223.175 308.335 226.984 294.028 C 230.793 279.723 232.697 263.193 232.697 244.443 C 232.697 227.647 230.889 212.608 227.277 199.326 Z M 183.405 235.8 C 179.937 241.856 175.445 246.47 169.928 249.643 C 164.409 252.818 158.623 254.404 152.57 254.404 C 142.705 254.404 134.552 250.548 128.107 242.832 C 121.662 235.119 118.439 224.767 118.439 211.777 C 118.439 198.692 121.662 188.17 128.107 180.21 C 134.552 172.252 142.412 168.272 151.691 168.272 C 157.061 168.272 162.018 169.444 166.559 171.788 C 171.1 174.132 175.005 177.354 178.278 181.456 C 181.549 185.558 184.087 190.417 185.895 196.031 C 187.701 201.648 188.605 207.775 188.605 214.415 C 188.605 222.617 186.871 229.746 183.405 235.8 Z"/>
  <g/>
  <g/>
  <g/>
  <g/>
  <g/>
  <g/>
  <g/>
  <g/>
  <g/>
  <g/>
  <g/>
  <g/>
  <g/>
  <g/>
  <g/>
  <path style="fill:#FFFFFF;" d="M 410.66 325.976 C 406.654 322.852 400.846 321.288 393.228 321.288 L 316.763 321.288 C 319.202 317.578 321.597 314.403 323.941 311.767 C 329.409 305.127 339.492 295.8 354.19 283.788 C 368.886 271.776 379.36 262.964 385.611 257.348 C 391.859 251.734 397.989 243.97 403.995 234.057 C 410.001 224.146 413.004 213.135 413.004 201.025 C 413.004 193.312 411.563 185.864 408.683 178.686 C 405.801 171.508 401.773 165.186 396.598 159.716 C 391.42 154.248 385.414 149.952 378.58 146.825 C 368.033 142.137 355.289 139.794 340.348 139.794 C 327.945 139.794 317.13 141.625 307.902 145.287 C 298.674 148.949 291.056 153.76 285.05 159.716 C 279.044 165.674 274.526 172.314 271.5 179.638 C 268.472 186.962 266.959 193.993 266.959 200.732 C 266.959 206.298 268.57 210.693 271.793 213.916 C 275.016 217.139 279.066 218.75 283.951 218.75 C 289.517 218.75 293.74 216.992 296.622 213.477 C 299.502 209.961 302.09 204.933 304.386 198.389 C 306.68 191.847 308.316 187.842 309.293 186.377 C 316.617 175.148 326.674 169.531 339.469 169.531 C 345.523 169.531 351.115 170.9 356.241 173.633 C 361.368 176.368 365.42 180.202 368.399 185.132 C 371.377 190.065 372.867 195.656 372.867 201.904 C 372.867 207.667 371.475 213.55 368.692 219.555 C 365.909 225.56 361.855 231.42 356.534 237.133 C 351.211 242.846 344.545 248.536 336.539 254.198 C 332.046 257.226 324.575 263.55 314.127 273.168 C 303.676 282.788 291.957 294.335 278.971 307.812 C 275.844 311.133 272.965 315.699 270.328 321.508 C 267.691 327.32 266.373 331.982 266.373 335.497 C 266.373 340.967 268.424 345.728 272.525 349.779 C 276.627 353.833 282.339 355.858 289.664 355.858 L 397.477 355.858 C 403.922 355.858 408.731 354.199 411.906 350.878 C 415.079 347.559 416.667 343.506 416.667 338.72 C 416.666 333.351 414.663 329.103 410.66 325.976 Z"/>
</svg>