<?xml version="1.0" encoding="utf-8"?>
<svg id="Layer_1" style="enable-background:new 0 0 496.158 496.158;" x="0px" y="0px" width="500px" height="500px" viewBox="0 0 496.158 496.158" xmlns="http://www.w3.org/2000/svg">
  <path style="fill:#56B48C;" d="M248.082,0.003C111.07,0.003,0,111.061,0,248.085c0,137,111.07,248.07,248.082,248.07&#10;&#9;c137.006,0,248.076-111.07,248.076-248.07C496.158,111.061,385.088,0.003,248.082,0.003z"/>
  <path style="fill:#FFFFFF;" d="M 227.277 199.326 C 223.663 186.046 218.488 175.035 211.75 166.294 C 205.012 157.555 196.71 150.89 186.848 146.299 C 176.983 141.71 165.754 139.414 153.157 139.414 C 142.219 139.414 132.233 141.27 123.201 144.98 C 114.167 148.692 106.378 153.868 99.837 160.507 C 93.293 167.149 88.265 174.986 84.749 184.018 C 81.233 193.052 79.476 202.599 79.476 212.656 C 79.476 222.031 81.037 230.992 84.164 239.536 C 87.288 248.082 91.756 255.553 97.567 261.948 C 103.376 268.345 110.261 273.326 118.221 276.889 C 126.179 280.455 134.748 282.236 143.929 282.236 C 153.597 282.236 162.409 280.309 170.369 276.45 C 178.327 272.594 185.53 266.855 191.975 259.238 C 190.606 285.704 186.409 304.161 179.377 314.609 C 175.861 319.786 171.613 323.79 166.633 326.621 C 161.653 329.454 156.379 330.869 150.813 330.869 C 144.562 330.869 138.948 329.088 133.967 325.522 C 128.987 321.959 125.421 317.246 123.274 311.386 C 121.516 306.602 118.927 303.013 115.51 300.619 C 112.091 298.227 108.234 297.03 103.938 297.03 C 99.25 297.03 95.392 298.641 92.366 301.864 C 89.338 305.087 87.825 308.749 87.825 312.85 C 87.825 319.492 90.265 326.4 95.149 333.578 C 100.031 340.756 107.161 346.762 116.536 351.596 C 125.911 356.43 136.945 358.847 149.641 358.847 C 162.532 358.847 174.054 356.478 184.211 351.743 C 194.366 347.008 203.082 339.782 210.358 330.063 C 217.632 320.347 223.175 308.335 226.984 294.028 C 230.793 279.723 232.697 263.193 232.697 244.443 C 232.697 227.647 230.889 212.608 227.277 199.326 Z M 183.405 235.8 C 179.937 241.856 175.445 246.47 169.928 249.643 C 164.409 252.818 158.623 254.404 152.57 254.404 C 142.705 254.404 134.552 250.548 128.107 242.832 C 121.662 235.119 118.439 224.767 118.439 211.777 C 118.439 198.692 121.662 188.17 128.107 180.21 C 134.552 172.252 142.412 168.272 151.691 168.272 C 157.061 168.272 162.018 169.444 166.559 171.788 C 171.1 174.132 175.005 177.354 178.278 181.456 C 181.549 185.558 184.087 190.417 185.895 196.031 C 187.701 201.648 188.605 207.775 188.605 214.415 C 188.605 222.617 186.871 229.746 183.405 235.8 Z"/>
  <g/>
  <g/>
  <g/>
  <g/>
  <g/>
  <g/>
  <g/>
  <g/>
  <g/>
  <g/>
  <g/>
  <g/>
  <g/>
  <g/>
  <g/>
  <path style="fill:#FFFFFF;" d="M 408.332 275.17 C 405.695 268.775 401.764 262.939 396.54 257.665 C 391.314 252.392 384.894 247.704 377.277 243.602 C 385.187 236.962 391.266 230.151 395.514 223.167 C 399.762 216.186 401.886 207.812 401.886 198.045 C 401.886 190.625 400.421 183.69 397.491 177.244 C 394.561 170.798 390.215 165.136 384.454 160.252 C 378.69 155.37 371.904 151.635 364.093 149.046 C 356.279 146.46 347.636 145.164 338.165 145.164 C 327.325 145.164 317.511 146.702 308.722 149.778 C 299.933 152.854 292.583 156.933 286.676 162.009 C 280.767 167.088 276.276 172.435 273.199 178.049 C 270.123 183.666 268.585 189.012 268.585 194.089 C 268.585 199.362 270.22 203.588 273.492 206.76 C 276.763 209.935 280.351 211.521 284.259 211.521 C 287.577 211.521 290.507 210.935 293.048 209.763 C 295.586 208.591 297.344 206.98 298.321 204.929 C 299.98 201.12 301.811 197.069 303.814 192.771 C 305.815 188.475 307.938 184.959 310.186 182.224 C 312.431 179.491 315.483 177.294 319.341 175.632 C 323.197 173.973 328.105 173.142 334.063 173.142 C 342.852 173.142 349.833 175.852 355.01 181.272 C 360.185 186.692 362.774 193.163 362.774 200.681 C 362.774 210.546 359.526 218.113 353.033 223.386 C 346.538 228.659 338.799 231.296 329.815 231.296 L 323.809 231.296 C 316.873 231.296 311.651 232.738 308.135 235.617 C 304.619 238.499 302.862 242.282 302.862 246.97 C 302.862 251.756 304.327 255.491 307.257 258.176 C 310.187 260.863 314.336 262.204 319.708 262.204 C 320.88 262.204 323.517 262.01 327.618 261.618 C 331.72 261.229 334.745 261.032 336.7 261.032 C 347.833 261.032 356.523 264.28 362.774 270.773 C 369.022 277.269 372.149 286.227 372.149 297.653 C 372.149 305.369 370.318 312.155 366.656 318.014 C 362.994 323.873 358.354 328.293 352.74 331.271 C 347.124 334.251 341.289 335.739 335.235 335.739 C 324.688 335.739 316.508 332.443 310.699 325.851 C 304.887 319.259 299.442 309.177 294.366 295.602 C 293.583 293.357 291.924 291.427 289.386 289.816 C 286.845 288.205 284.208 287.399 281.476 287.399 C 276.005 287.399 271.442 289.134 267.78 292.599 C 264.118 296.067 262.287 300.633 262.287 306.295 C 262.287 310.69 263.825 316.256 266.901 322.994 C 269.977 329.732 274.518 336.251 280.524 342.55 C 286.53 348.849 294.17 354.099 303.449 358.297 C 312.725 362.495 323.224 364.596 334.943 364.596 C 346.464 364.596 356.989 362.765 366.51 359.103 C 376.031 355.441 384.257 350.364 391.193 343.869 C 398.126 337.376 403.375 329.978 406.94 321.677 C 410.503 313.378 412.287 304.783 412.287 295.896 C 412.287 288.477 410.969 281.568 408.332 275.17 Z"/>
</svg>