<?xml version="1.0" encoding="utf-8"?>
<svg id="Layer_1" style="enable-background:new 0 0 496.158 496.158;" x="0px" y="0px" width="500px" height="500px" viewBox="0 0 496.158 496.158" xmlns="http://www.w3.org/2000/svg">
  <path style="fill:#56B48C;" d="M248.082,0.003C111.07,0.003,0,111.061,0,248.085c0,137,111.07,248.07,248.082,248.07&#10;&#9;c137.006,0,248.076-111.07,248.076-248.07C496.158,111.061,385.088,0.003,248.082,0.003z"/>
  <path style="fill:#FFFFFF;" d="M 227.277 199.326 C 223.663 186.046 218.488 175.035 211.75 166.294 C 205.012 157.555 196.71 150.89 186.848 146.299 C 176.983 141.71 165.754 139.414 153.157 139.414 C 142.219 139.414 132.233 141.27 123.201 144.98 C 114.167 148.692 106.378 153.868 99.837 160.507 C 93.293 167.149 88.265 174.986 84.749 184.018 C 81.233 193.052 79.476 202.599 79.476 212.656 C 79.476 222.031 81.037 230.992 84.164 239.536 C 87.288 248.082 91.756 255.553 97.567 261.948 C 103.376 268.345 110.261 273.326 118.221 276.889 C 126.179 280.455 134.748 282.236 143.929 282.236 C 153.597 282.236 162.409 280.309 170.369 276.45 C 178.327 272.594 185.53 266.855 191.975 259.238 C 190.606 285.704 186.409 304.161 179.377 314.609 C 175.861 319.786 171.613 323.79 166.633 326.621 C 161.653 329.454 156.379 330.869 150.813 330.869 C 144.562 330.869 138.948 329.088 133.967 325.522 C 128.987 321.959 125.421 317.246 123.274 311.386 C 121.516 306.602 118.927 303.013 115.51 300.619 C 112.091 298.227 108.234 297.03 103.938 297.03 C 99.25 297.03 95.392 298.641 92.366 301.864 C 89.338 305.087 87.825 308.749 87.825 312.85 C 87.825 319.492 90.265 326.4 95.149 333.578 C 100.031 340.756 107.161 346.762 116.536 351.596 C 125.911 356.43 136.945 358.847 149.641 358.847 C 162.532 358.847 174.054 356.478 184.211 351.743 C 194.366 347.008 203.082 339.782 210.358 330.063 C 217.632 320.347 223.175 308.335 226.984 294.028 C 230.793 279.723 232.697 263.193 232.697 244.443 C 232.697 227.647 230.889 212.608 227.277 199.326 Z M 183.405 235.8 C 179.937 241.856 175.445 246.47 169.928 249.643 C 164.409 252.818 158.623 254.404 152.57 254.404 C 142.705 254.404 134.552 250.548 128.107 242.832 C 121.662 235.119 118.439 224.767 118.439 211.777 C 118.439 198.692 121.662 188.17 128.107 180.21 C 134.552 172.252 142.412 168.272 151.691 168.272 C 157.061 168.272 162.018 169.444 166.559 171.788 C 171.1 174.132 175.005 177.354 178.278 181.456 C 181.549 185.558 184.087 190.417 185.895 196.031 C 187.701 201.648 188.605 207.775 188.605 214.415 C 188.605 222.617 186.871 229.746 183.405 235.8 Z"/>
  <g/>
  <g/>
  <g/>
  <g/>
  <g/>
  <g/>
  <g/>
  <g/>
  <g/>
  <g/>
  <g/>
  <g/>
  <g/>
  <g/>
  <g/>
  <path style="fill:#FFFFFF;" d="M 403.219 264.846 C 399.703 256.35 394.869 249.003 388.717 242.8 C 382.565 236.6 375.41 231.74 367.257 228.225 C 359.102 224.709 350.338 222.952 340.963 222.952 C 329.244 222.952 316.45 226.664 302.584 234.085 L 310.934 186.624 L 380.514 186.624 C 387.74 186.624 393.208 185.063 396.92 181.936 C 400.63 178.812 402.486 174.71 402.486 169.631 C 402.486 158.011 394.869 152.199 379.634 152.199 L 302.29 152.199 C 293.89 152.199 287.836 154.103 284.126 157.912 C 280.414 161.721 277.875 167.825 276.509 176.223 L 264.205 246.389 C 263.129 252.541 262.594 255.863 262.594 256.35 C 262.594 260.745 264.448 264.677 268.16 268.142 C 271.87 271.61 276.118 273.342 280.904 273.342 C 285.299 273.342 290.888 270.779 297.676 265.652 C 304.462 260.525 309.662 256.936 313.277 254.885 C 316.889 252.834 322.895 251.809 331.295 251.809 C 338.129 251.809 344.332 253.446 349.899 256.716 C 355.465 259.989 359.908 264.945 363.229 271.584 C 366.548 278.226 368.209 286.232 368.209 295.607 C 368.209 304.3 366.671 312.064 363.595 318.898 C 360.519 325.735 356.147 331.106 350.485 335.011 C 344.82 338.918 338.228 340.87 330.71 340.87 C 322.507 340.87 315.084 338.453 308.444 333.619 C 301.802 328.785 296.528 322.024 292.624 313.331 C 288.619 303.86 282.517 299.122 274.313 299.122 C 269.527 299.122 265.547 300.832 262.375 304.249 C 259.2 307.668 257.614 311.28 257.614 315.089 C 257.614 321.34 259.885 328.639 264.426 336.988 C 268.967 345.337 276.68 352.735 287.571 359.18 C 298.459 365.625 312.643 368.848 330.125 368.848 C 345.749 368.848 359.543 365.429 371.507 358.594 C 383.468 351.76 392.624 342.531 398.973 330.908 C 405.32 319.288 408.494 306.397 408.494 292.236 C 408.492 282.475 406.734 273.342 403.219 264.846 Z"/>
</svg>