<?xml version="1.0" encoding="utf-8"?>
<svg id="Layer_1" style="enable-background:new 0 0 496.158 496.158;" x="0px" y="0px" width="500px" height="500px" viewBox="0 0 496.158 496.158" xmlns="http://www.w3.org/2000/svg">
  <path style="fill:#56B48C;" d="M248.082,0.003C111.07,0.003,0,111.061,0,248.085c0,137,111.07,248.07,248.082,248.07&#10;&#9;c137.006,0,248.076-111.07,248.076-248.07C496.158,111.061,385.088,0.003,248.082,0.003z"/>
  <path style="fill:#FFFFFF;" d="M 227.277 199.326 C 223.663 186.046 218.488 175.035 211.75 166.294 C 205.012 157.555 196.71 150.89 186.848 146.299 C 176.983 141.71 165.754 139.414 153.157 139.414 C 142.219 139.414 132.233 141.27 123.201 144.98 C 114.167 148.692 106.378 153.868 99.837 160.507 C 93.293 167.149 88.265 174.986 84.749 184.018 C 81.233 193.052 79.476 202.599 79.476 212.656 C 79.476 222.031 81.037 230.992 84.164 239.536 C 87.288 248.082 91.756 255.553 97.567 261.948 C 103.376 268.345 110.261 273.326 118.221 276.889 C 126.179 280.455 134.748 282.236 143.929 282.236 C 153.597 282.236 162.409 280.309 170.369 276.45 C 178.327 272.594 185.53 266.855 191.975 259.238 C 190.606 285.704 186.409 304.161 179.377 314.609 C 175.861 319.786 171.613 323.79 166.633 326.621 C 161.653 329.454 156.379 330.869 150.813 330.869 C 144.562 330.869 138.948 329.088 133.967 325.522 C 128.987 321.959 125.421 317.246 123.274 311.386 C 121.516 306.602 118.927 303.013 115.51 300.619 C 112.091 298.227 108.234 297.03 103.938 297.03 C 99.25 297.03 95.392 298.641 92.366 301.864 C 89.338 305.087 87.825 308.749 87.825 312.85 C 87.825 319.492 90.265 326.4 95.149 333.578 C 100.031 340.756 107.161 346.762 116.536 351.596 C 125.911 356.43 136.945 358.847 149.641 358.847 C 162.532 358.847 174.054 356.478 184.211 351.743 C 194.366 347.008 203.082 339.782 210.358 330.063 C 217.632 320.347 223.175 308.335 226.984 294.028 C 230.793 279.723 232.697 263.193 232.697 244.443 C 232.697 227.647 230.889 212.608 227.277 199.326 Z M 183.405 235.8 C 179.937 241.856 175.445 246.47 169.928 249.643 C 164.409 252.818 158.623 254.404 152.57 254.404 C 142.705 254.404 134.552 250.548 128.107 242.832 C 121.662 235.119 118.439 224.767 118.439 211.777 C 118.439 198.692 121.662 188.17 128.107 180.21 C 134.552 172.252 142.412 168.272 151.691 168.272 C 157.061 168.272 162.018 169.444 166.559 171.788 C 171.1 174.132 175.005 177.354 178.278 181.456 C 181.549 185.558 184.087 190.417 185.895 196.031 C 187.701 201.648 188.605 207.775 188.605 214.415 C 188.605 222.617 186.871 229.746 183.405 235.8 Z"/>
  <g/>
  <g/>
  <g/>
  <g/>
  <g/>
  <g/>
  <g/>
  <g/>
  <g/>
  <g/>
  <g/>
  <g/>
  <g/>
  <g/>
  <g/>
  <path style="fill:#FFFFFF;" d="M 410.548 258.609 C 407.325 249.92 402.759 242.376 396.852 235.978 C 390.942 229.583 384.058 224.65 376.198 221.183 C 368.336 217.718 359.766 215.982 350.49 215.982 C 340.822 215.982 332.081 217.887 324.269 221.696 C 316.455 225.505 309.229 231.364 302.589 239.274 C 303.857 212.712 308.057 194.255 315.187 183.903 C 318.703 178.826 323.024 174.798 328.151 171.818 C 333.278 168.84 338.428 167.35 343.605 167.35 C 350.05 167.35 355.713 169.133 360.597 172.697 C 365.479 176.263 369.043 180.973 371.29 186.833 C 372.949 191.424 375.538 195.012 379.054 197.6 C 382.57 200.189 386.378 201.482 390.48 201.482 C 395.168 201.482 399.024 199.848 402.052 196.575 C 405.078 193.304 406.593 189.667 406.593 185.662 C 406.593 179.022 404.176 172.089 399.342 164.861 C 394.508 157.635 387.33 151.581 377.809 146.697 C 368.288 141.815 357.276 139.373 344.777 139.373 C 331.788 139.373 320.215 141.815 310.06 146.697 C 299.902 151.581 291.26 158.807 284.132 168.377 C 277.002 177.949 271.534 190.008 267.726 204.559 C 263.917 219.111 262.013 235.614 262.013 254.071 C 262.013 276.728 265.162 295.892 271.461 311.565 C 277.76 327.24 286.865 339.081 298.78 347.088 C 310.693 355.096 324.854 359.099 341.26 359.099 C 355.517 359.099 368.286 355.951 379.566 349.651 C 390.846 343.353 399.634 334.589 405.933 323.357 C 412.232 312.129 415.381 299.628 415.381 285.857 C 415.382 276.385 413.771 267.302 410.548 258.609 Z M 366.603 318.156 C 360.158 326.213 352.002 330.241 342.14 330.241 C 331.787 330.241 323.193 325.846 316.359 317.057 C 309.522 308.268 306.105 297.281 306.105 284.098 C 306.105 275.895 307.79 268.742 311.159 262.638 C 314.528 256.536 318.971 251.87 324.489 248.649 C 330.005 245.426 335.791 243.814 341.847 243.814 C 348.194 243.814 354.005 245.5 359.279 248.869 C 364.553 252.238 368.702 257.122 371.73 263.517 C 374.756 269.914 376.271 277.557 376.271 286.442 C 376.271 299.529 373.048 310.099 366.603 318.156 Z"/>
</svg>