<?xml version="1.0" encoding="utf-8"?>
<svg id="Layer_1" style="enable-background:new 0 0 496.158 496.158;" x="0px" y="0px" width="500px" height="500px" viewBox="0 0 496.158 496.158" xmlns="http://www.w3.org/2000/svg">
  <path style="fill:#56B48C;" d="M248.082,0.003C111.07,0.003,0,111.061,0,248.085c0,137,111.07,248.07,248.082,248.07&#10;&#9;c137.006,0,248.076-111.07,248.076-248.07C496.158,111.061,385.088,0.003,248.082,0.003z"/>
  <path style="fill:#FFFFFF;" d="M 227.277 199.326 C 223.663 186.046 218.488 175.035 211.75 166.294 C 205.012 157.555 196.71 150.89 186.848 146.299 C 176.983 141.71 165.754 139.414 153.157 139.414 C 142.219 139.414 132.233 141.27 123.201 144.98 C 114.167 148.692 106.378 153.868 99.837 160.507 C 93.293 167.149 88.265 174.986 84.749 184.018 C 81.233 193.052 79.476 202.599 79.476 212.656 C 79.476 222.031 81.037 230.992 84.164 239.536 C 87.288 248.082 91.756 255.553 97.567 261.948 C 103.376 268.345 110.261 273.326 118.221 276.889 C 126.179 280.455 134.748 282.236 143.929 282.236 C 153.597 282.236 162.409 280.309 170.369 276.45 C 178.327 272.594 185.53 266.855 191.975 259.238 C 190.606 285.704 186.409 304.161 179.377 314.609 C 175.861 319.786 171.613 323.79 166.633 326.621 C 161.653 329.454 156.379 330.869 150.813 330.869 C 144.562 330.869 138.948 329.088 133.967 325.522 C 128.987 321.959 125.421 317.246 123.274 311.386 C 121.516 306.602 118.927 303.013 115.51 300.619 C 112.091 298.227 108.234 297.03 103.938 297.03 C 99.25 297.03 95.392 298.641 92.366 301.864 C 89.338 305.087 87.825 308.749 87.825 312.85 C 87.825 319.492 90.265 326.4 95.149 333.578 C 100.031 340.756 107.161 346.762 116.536 351.596 C 125.911 356.43 136.945 358.847 149.641 358.847 C 162.532 358.847 174.054 356.478 184.211 351.743 C 194.366 347.008 203.082 339.782 210.358 330.063 C 217.632 320.347 223.175 308.335 226.984 294.028 C 230.793 279.723 232.697 263.193 232.697 244.443 C 232.697 227.647 230.889 212.608 227.277 199.326 Z M 183.405 235.8 C 179.937 241.856 175.445 246.47 169.928 249.643 C 164.409 252.818 158.623 254.404 152.57 254.404 C 142.705 254.404 134.552 250.548 128.107 242.832 C 121.662 235.119 118.439 224.767 118.439 211.777 C 118.439 198.692 121.662 188.17 128.107 180.21 C 134.552 172.252 142.412 168.272 151.691 168.272 C 157.061 168.272 162.018 169.444 166.559 171.788 C 171.1 174.132 175.005 177.354 178.278 181.456 C 181.549 185.558 184.087 190.417 185.895 196.031 C 187.701 201.648 188.605 207.775 188.605 214.415 C 188.605 222.617 186.871 229.746 183.405 235.8 Z"/>
  <g/>
  <g/>
  <g/>
  <g/>
  <g/>
  <g/>
  <g/>
  <g/>
  <g/>
  <g/>
  <g/>
  <g/>
  <g/>
  <g/>
  <g/>
  <path style="fill:#FFFFFF;" d="M 406.74 144.04 C 402.54 141.11 395.754 139.645 386.379 139.645 L 288.82 139.645 C 281.104 139.645 275.098 140.623 270.802 142.575 C 266.504 144.53 264.357 148.874 264.357 155.612 C 264.357 161.961 266.382 166.624 270.436 169.601 C 274.487 172.581 280.617 174.069 288.82 174.069 L 367.189 174.069 C 354.884 189.695 344.264 205.394 335.329 221.164 C 326.393 236.936 318.946 252.317 312.99 267.307 C 307.032 282.299 302.736 295.164 300.099 305.906 C 297.462 316.65 296.144 325.146 296.144 331.394 C 296.144 339.501 297.95 345.628 301.564 349.778 C 305.176 353.927 309.961 356.004 315.919 356.004 C 322.168 356.004 327.173 354.074 330.934 350.218 C 334.692 346.362 337.599 339.451 339.65 329.49 C 340.529 325.194 341.554 318.993 342.726 310.886 C 343.898 302.782 344.971 296.19 345.949 291.111 C 346.924 286.034 348.586 279.637 350.929 271.922 C 356.495 254.443 362.622 239.648 369.313 227.537 C 376.001 215.429 382.497 205.297 388.795 197.141 C 395.094 188.988 400.708 181.54 405.641 174.802 C 410.571 168.064 413.038 162.644 413.038 158.542 C 413.039 151.804 410.938 146.97 406.74 144.04 Z"/>
</svg>