<?xml version="1.0" encoding="utf-8"?>
<svg id="Layer_1" style="enable-background:new 0 0 496.158 496.158;" x="0px" y="0px" width="500px" height="500px" viewBox="0 0 496.158 496.158" xmlns="http://www.w3.org/2000/svg">
  <path style="fill:#56B48C;" d="M248.082,0.003C111.07,0.003,0,111.061,0,248.085c0,137,111.07,248.07,248.082,248.07&#10;&#9;c137.006,0,248.076-111.07,248.076-248.07C496.158,111.061,385.088,0.003,248.082,0.003z"/>
  <path style="fill:#FFFFFF;" d="M 227.277 199.326 C 223.663 186.046 218.488 175.035 211.75 166.294 C 205.012 157.555 196.71 150.89 186.848 146.299 C 176.983 141.71 165.754 139.414 153.157 139.414 C 142.219 139.414 132.233 141.27 123.201 144.98 C 114.167 148.692 106.378 153.868 99.837 160.507 C 93.293 167.149 88.265 174.986 84.749 184.018 C 81.233 193.052 79.476 202.599 79.476 212.656 C 79.476 222.031 81.037 230.992 84.164 239.536 C 87.288 248.082 91.756 255.553 97.567 261.948 C 103.376 268.345 110.261 273.326 118.221 276.889 C 126.179 280.455 134.748 282.236 143.929 282.236 C 153.597 282.236 162.409 280.309 170.369 276.45 C 178.327 272.594 185.53 266.855 191.975 259.238 C 190.606 285.704 186.409 304.161 179.377 314.609 C 175.861 319.786 171.613 323.79 166.633 326.621 C 161.653 329.454 156.379 330.869 150.813 330.869 C 144.562 330.869 138.948 329.088 133.967 325.522 C 128.987 321.959 125.421 317.246 123.274 311.386 C 121.516 306.602 118.927 303.013 115.51 300.619 C 112.091 298.227 108.234 297.03 103.938 297.03 C 99.25 297.03 95.392 298.641 92.366 301.864 C 89.338 305.087 87.825 308.749 87.825 312.85 C 87.825 319.492 90.265 326.4 95.149 333.578 C 100.031 340.756 107.161 346.762 116.536 351.596 C 125.911 356.43 136.945 358.847 149.641 358.847 C 162.532 358.847 174.054 356.478 184.211 351.743 C 194.366 347.008 203.082 339.782 210.358 330.063 C 217.632 320.347 223.175 308.335 226.984 294.028 C 230.793 279.723 232.697 263.193 232.697 244.443 C 232.697 227.647 230.889 212.608 227.277 199.326 Z M 183.405 235.8 C 179.937 241.856 175.445 246.47 169.928 249.643 C 164.409 252.818 158.623 254.404 152.57 254.404 C 142.705 254.404 134.552 250.548 128.107 242.832 C 121.662 235.119 118.439 224.767 118.439 211.777 C 118.439 198.692 121.662 188.17 128.107 180.21 C 134.552 172.252 142.412 168.272 151.691 168.272 C 157.061 168.272 162.018 169.444 166.559 171.788 C 171.1 174.132 175.005 177.354 178.278 181.456 C 181.549 185.558 184.087 190.417 185.895 196.031 C 187.701 201.648 188.605 207.775 188.605 214.415 C 188.605 222.617 186.871 229.746 183.405 235.8 Z"/>
  <g/>
  <g/>
  <g/>
  <g/>
  <g/>
  <g/>
  <g/>
  <g/>
  <g/>
  <g/>
  <g/>
  <g/>
  <g/>
  <g/>
  <g/>
  <path style="fill:#FFFFFF;" d="M 416.338 272.107 C 413.555 265.222 409.428 259.169 403.96 253.943 C 398.49 248.72 391.605 244.495 383.306 241.272 C 393.07 236.488 400.419 230.336 405.352 222.815 C 410.282 215.296 412.749 206.752 412.749 197.18 C 412.749 189.661 411.332 182.557 408.501 175.867 C 405.668 169.179 401.323 163.173 395.464 157.849 C 389.605 152.528 382.28 148.353 373.491 145.325 C 364.702 142.299 354.496 140.784 342.876 140.784 C 329.106 140.784 317.069 143.373 306.768 148.548 C 296.464 153.725 288.652 160.633 283.33 169.276 C 278.006 177.919 275.347 187.124 275.347 196.888 C 275.347 217.103 285.356 231.898 305.376 241.273 C 280.57 251.04 268.169 269.057 268.169 295.326 C 268.169 307.631 271.099 318.741 276.958 328.651 C 282.817 338.564 291.508 346.353 303.032 352.015 C 314.554 357.678 328.422 360.511 344.634 360.511 C 360.258 360.511 373.832 357.678 385.357 352.015 C 396.879 346.352 405.62 338.515 411.578 328.504 C 417.534 318.495 420.514 307.337 420.514 295.032 C 420.513 286.634 419.121 278.992 416.338 272.107 Z M 321.563 177.331 C 327.177 171.618 334.575 168.762 343.755 168.762 C 349.809 168.762 355.181 170.08 359.868 172.717 C 364.555 175.354 368.192 178.968 370.781 183.557 C 373.367 188.148 374.663 193.324 374.663 199.084 C 374.663 203.382 373.931 207.313 372.466 210.876 C 371.001 214.442 368.925 217.518 366.24 220.105 C 363.553 222.694 360.33 224.719 356.572 226.184 C 352.811 227.649 348.636 228.381 344.048 228.381 C 334.966 228.381 327.543 225.623 321.782 220.105 C 316.019 214.589 313.139 207.679 313.139 199.377 C 313.14 190.394 315.946 183.044 321.563 177.331 Z M 375.689 314.075 C 372.563 319.934 368.266 324.475 362.798 327.698 C 357.328 330.921 351.175 332.532 344.341 332.532 C 337.603 332.532 331.498 330.946 326.03 327.771 C 320.56 324.599 316.238 320.106 313.066 314.294 C 309.891 308.485 308.305 301.77 308.305 294.152 C 308.305 282.239 311.674 272.962 318.412 266.32 C 325.15 259.68 333.5 256.359 343.461 256.359 C 350.492 256.359 356.839 257.874 362.504 260.9 C 368.167 263.928 372.561 268.275 375.688 273.937 C 378.812 279.602 380.376 286.242 380.376 293.859 C 380.376 301.476 378.813 308.215 375.689 314.075 Z"/>
</svg>