<?xml version="1.0" encoding="utf-8"?>
<svg id="Layer_1" style="enable-background:new 0 0 496.158 496.158;" x="0px" y="0px" width="500px" height="500px" viewBox="0 0 496.158 496.158" xmlns="http://www.w3.org/2000/svg">
  <path style="fill:#56B48C;" d="M248.082,0.003C111.07,0.003,0,111.061,0,248.085c0,137,111.07,248.07,248.082,248.07&#10;&#9;c137.006,0,248.076-111.07,248.076-248.07C496.158,111.061,385.088,0.003,248.082,0.003z"/>
  <path style="fill:#FFFFFF;" d="M 227.277 199.326 C 223.663 186.046 218.488 175.035 211.75 166.294 C 205.012 157.555 196.71 150.89 186.848 146.299 C 176.983 141.71 165.754 139.414 153.157 139.414 C 142.219 139.414 132.233 141.27 123.201 144.98 C 114.167 148.692 106.378 153.868 99.837 160.507 C 93.293 167.149 88.265 174.986 84.749 184.018 C 81.233 193.052 79.476 202.599 79.476 212.656 C 79.476 222.031 81.037 230.992 84.164 239.536 C 87.288 248.082 91.756 255.553 97.567 261.948 C 103.376 268.345 110.261 273.326 118.221 276.889 C 126.179 280.455 134.748 282.236 143.929 282.236 C 153.597 282.236 162.409 280.309 170.369 276.45 C 178.327 272.594 185.53 266.855 191.975 259.238 C 190.606 285.704 186.409 304.161 179.377 314.609 C 175.861 319.786 171.613 323.79 166.633 326.621 C 161.653 329.454 156.379 330.869 150.813 330.869 C 144.562 330.869 138.948 329.088 133.967 325.522 C 128.987 321.959 125.421 317.246 123.274 311.386 C 121.516 306.602 118.927 303.013 115.51 300.619 C 112.091 298.227 108.234 297.03 103.938 297.03 C 99.25 297.03 95.392 298.641 92.366 301.864 C 89.338 305.087 87.825 308.749 87.825 312.85 C 87.825 319.492 90.265 326.4 95.149 333.578 C 100.031 340.756 107.161 346.762 116.536 351.596 C 125.911 356.43 136.945 358.847 149.641 358.847 C 162.532 358.847 174.054 356.478 184.211 351.743 C 194.366 347.008 203.082 339.782 210.358 330.063 C 217.632 320.347 223.175 308.335 226.984 294.028 C 230.793 279.723 232.697 263.193 232.697 244.443 C 232.697 227.647 230.889 212.608 227.277 199.326 Z M 183.405 235.8 C 179.937 241.856 175.445 246.47 169.928 249.643 C 164.409 252.818 158.623 254.404 152.57 254.404 C 142.705 254.404 134.552 250.548 128.107 242.832 C 121.662 235.119 118.439 224.767 118.439 211.777 C 118.439 198.692 121.662 188.17 128.107 180.21 C 134.552 172.252 142.412 168.272 151.691 168.272 C 157.061 168.272 162.018 169.444 166.559 171.788 C 171.1 174.132 175.005 177.354 178.278 181.456 C 181.549 185.558 184.087 190.417 185.895 196.031 C 187.701 201.648 188.605 207.775 188.605 214.415 C 188.605 222.617 186.871 229.746 183.405 235.8 Z"/>
  <g/>
  <g/>
  <g/>
  <g/>
  <g/>
  <g/>
  <g/>
  <g/>
  <g/>
  <g/>
  <g/>
  <g/>
  <g/>
  <g/>
  <g/>
  <path style="fill:#FFFFFF;" d="M 420.547 198.449 C 416.933 185.169 411.758 174.158 405.02 165.417 C 398.282 156.678 389.98 150.013 380.118 145.422 C 370.254 140.833 359.024 138.537 346.427 138.537 C 335.489 138.537 325.502 140.393 316.471 144.103 C 307.437 147.815 299.649 152.991 293.107 159.63 C 286.563 166.272 281.535 174.109 278.019 183.141 C 274.503 192.175 272.746 201.722 272.746 211.779 C 272.746 221.154 274.308 230.115 277.434 238.659 C 280.558 247.205 285.026 254.676 290.837 261.071 C 296.646 267.468 303.53 272.449 311.491 276.012 C 319.449 279.578 328.018 281.359 337.199 281.359 C 346.867 281.359 355.678 279.432 363.639 275.573 C 371.597 271.717 378.8 265.978 385.245 258.361 C 383.877 284.827 379.679 303.284 372.647 313.732 C 369.131 318.909 364.883 322.913 359.903 325.744 C 354.923 328.577 349.649 329.992 344.083 329.992 C 337.832 329.992 332.218 328.211 327.237 324.645 C 322.257 321.082 318.691 316.369 316.544 310.509 C 314.786 305.725 312.197 302.136 308.78 299.742 C 305.361 297.35 301.504 296.153 297.208 296.153 C 292.52 296.153 288.662 297.764 285.636 300.987 C 282.608 304.21 281.095 307.872 281.095 311.973 C 281.095 318.615 283.535 325.523 288.419 332.701 C 293.301 339.879 300.431 345.885 309.806 350.719 C 319.181 355.553 330.215 357.97 342.911 357.97 C 355.802 357.97 367.324 355.601 377.481 350.866 C 387.636 346.131 396.352 338.905 403.628 329.186 C 410.901 319.47 416.445 307.458 420.254 293.151 C 424.063 278.846 425.967 262.316 425.967 243.566 C 425.967 226.77 424.159 211.731 420.547 198.449 Z M 376.675 234.923 C 373.207 240.979 368.714 245.593 363.198 248.766 C 357.679 251.941 351.893 253.527 345.84 253.527 C 335.976 253.527 327.822 249.671 321.377 241.955 C 314.932 234.242 311.709 223.89 311.709 210.9 C 311.709 197.815 314.932 187.293 321.377 179.333 C 327.822 171.375 335.683 167.395 344.961 167.395 C 350.331 167.395 355.288 168.567 359.829 170.911 C 364.37 173.255 368.274 176.477 371.548 180.579 C 374.819 184.681 377.357 189.54 379.165 195.154 C 380.971 200.771 381.875 206.898 381.875 213.538 C 381.875 221.74 380.14 228.869 376.675 234.923 Z"/>
</svg>