<?xml version="1.0" encoding="UTF-8" standalone="no"?>
<!DOCTYPE svg PUBLIC "-//W3C//DTD SVG 1.1//EN" "http://www.w3.org/Graphics/SVG/1.1/DTD/svg11.dtd">
<svg x="0px" y="0px" width="500px" height="500px" viewBox="0 0 100 100" version="1.1" xmlns="http://www.w3.org/2000/svg" xmlns:xlink="http://www.w3.org/1999/xlink" xml:space="preserve" style="fill-rule:evenodd;clip-rule:evenodd;stroke-linejoin:round;stroke-miterlimit:1.41421;">
    <g id="path56" transform="matrix(0.656503,0,0,-0.657426,87.7551,80.7275)">
        <path d="M0,0C-23.352,58.954 -74.649,54.743 -74.649,54.743C-74.649,54.743 -34.07,63.165 -9.57,44.789C1.792,36.266 8.177,25.463 11.799,16.299C14.658,22.765 16.629,29.71 17.568,36.978C17.083,37.893 16.599,38.802 16.078,39.813C-6.125,82.688 -85.751,70.821 -85.751,70.821C-85.751,70.821 -63.931,87.665 -26.031,80.009C-3.505,75.456 10.366,62.79 17.912,53.265C17.186,61.666 15.08,69.669 11.819,77.054C-43.066,121.419 -90.728,86.899 -90.728,86.899C-90.728,86.899 -71.97,106.806 -41.727,107.188C-27.434,107.368 -12.974,102.673 -1.692,97.672C-14.481,111.552 -32.417,120.604 -52.476,121.805C-68.446,116.712 -84.603,110.251 -84.603,110.251C-79.716,114.974 -72.894,118.649 -66.661,121.323C-103.675,116.595 -132.293,85 -132.293,46.703C-132.293,5.144 -98.6,-28.55 -57.04,-28.55C-40.695,-28.55 -25.58,-23.322 -13.24,-14.476C-13.426,-14.104 -13.59,-13.788 -13.781,-13.399C-31.391,22.203 -68.142,35.984 -68.142,35.984C-68.142,35.984 -48.617,37.133 -31.391,22.203C-23.313,15.198 -15.067,-0.886 -10.401,-12.334C-6.364,-9.141 -2.655,-5.552 0.649,-1.604C0.431,-1.06 0.225,-0.568 0,0" style="fill:rgb(255,101,0);fill-rule:nonzero;"/>
    </g>
</svg>
