<?xml version="1.0" encoding="utf-8"?>
<svg id="Layer_1" style="enable-background:new 0 0 504.123 504.123;" width="500px" height="500px" x="0px" y="0px" viewBox="0 0 504.123 504.123" xmlns="http://www.w3.org/2000/svg">
  <circle style="fill:#324A5E;" cx="252.062" cy="252.062" r="252.062"/>
  <g>
    <rect x="142.178" y="90.585" style="fill:#ACB3BA;" width="14.966" height="36.628"/>
    <rect x="176.443" y="90.585" style="fill:#ACB3BA;" width="14.966" height="36.628"/>
    <rect x="210.314" y="90.585" style="fill:#ACB3BA;" width="14.966" height="36.628"/>
    <rect x="244.578" y="90.585" style="fill:#ACB3BA;" width="14.966" height="36.628"/>
    <rect x="278.449" y="90.585" style="fill:#ACB3BA;" width="14.966" height="36.628"/>
    <rect x="312.714" y="90.585" style="fill:#ACB3BA;" width="14.966" height="36.628"/>
    <rect x="346.585" y="90.585" style="fill:#ACB3BA;" width="14.966" height="36.628"/>
    <rect x="142.178" y="376.911" style="fill:#ACB3BA;" width="14.966" height="36.628"/>
    <rect x="176.443" y="376.911" style="fill:#ACB3BA;" width="14.966" height="36.628"/>
    <rect x="210.314" y="376.911" style="fill:#ACB3BA;" width="14.966" height="36.628"/>
    <rect x="244.578" y="376.911" style="fill:#ACB3BA;" width="14.966" height="36.628"/>
    <rect x="278.449" y="376.911" style="fill:#ACB3BA;" width="14.966" height="36.628"/>
    <rect x="312.714" y="376.911" style="fill:#ACB3BA;" width="14.966" height="36.628"/>
    <rect x="346.585" y="376.911" style="fill:#ACB3BA;" width="14.966" height="36.628"/>
    <rect x="376.911" y="142.178" style="fill:#ACB3BA;" width="36.628" height="14.966"/>
    <rect x="376.911" y="176.443" style="fill:#ACB3BA;" width="36.628" height="14.966"/>
    <rect x="376.911" y="210.314" style="fill:#ACB3BA;" width="36.628" height="14.966"/>
    <rect x="376.911" y="244.578" style="fill:#ACB3BA;" width="36.628" height="14.966"/>
    <rect x="376.911" y="278.449" style="fill:#ACB3BA;" width="36.628" height="14.966"/>
    <rect x="376.911" y="312.714" style="fill:#ACB3BA;" width="36.628" height="14.966"/>
    <rect x="376.911" y="346.585" style="fill:#ACB3BA;" width="36.628" height="14.966"/>
    <rect x="90.585" y="142.178" style="fill:#ACB3BA;" width="36.628" height="14.966"/>
    <rect x="90.585" y="176.443" style="fill:#ACB3BA;" width="36.628" height="14.966"/>
    <rect x="90.585" y="210.314" style="fill:#ACB3BA;" width="36.628" height="14.966"/>
    <rect x="90.585" y="244.578" style="fill:#ACB3BA;" width="36.628" height="14.966"/>
    <rect x="90.585" y="278.449" style="fill:#ACB3BA;" width="36.628" height="14.966"/>
    <rect x="90.585" y="312.714" style="fill:#ACB3BA;" width="36.628" height="14.966"/>
    <rect x="90.585" y="346.585" style="fill:#ACB3BA;" width="36.628" height="14.966"/>
  </g>
  <path style="fill:#E6E9EE;" d="M367.065,380.849H137.058c-7.483,0-13.785-5.908-13.785-13.785V137.058&#10;&#9;c0-7.483,5.908-13.785,13.785-13.785h230.006c7.483,0,13.785,5.908,13.785,13.785v230.006&#10;&#9;C380.849,374.548,374.548,380.849,367.065,380.849z"/>
  <path style="fill:#ACB3BA;" d="M142.966,142.966v218.191h218.191V142.966H142.966z M353.28,353.28H150.843V150.843H353.28V353.28z"/>
  <circle style="fill:#FFD55C;" cx="252.062" cy="252.062" r="78.375"/>
  <g/>
  <g/>
  <g/>
  <g/>
  <g/>
  <g/>
  <g/>
  <g/>
  <g/>
  <g/>
  <g/>
  <g/>
  <g/>
  <g/>
  <g/>
</svg>