<?xml version="1.0" encoding="utf-8"?>
<svg id="Layer_1" width="300px" height="300px" viewBox="0 0 300 300" xmlns="http://www.w3.org/2000/svg" xmlns:bx="https://boxy-svg.com">
  <g>
    <path d="M 290 150.006 C 290 227.328 227.323 290 150 290 C 72.676 290 10 227.328 10 150.006 C 10 72.682 72.676 10 150 10 C 227.323 10 290 72.682 290 150.006 Z" style="fill: rgb(10, 169, 63);"/>
    <g id="icomoon-ignore" transform="matrix(0.376332, 0, 0, 0.390625, 54.274708, 30.284891)"/>
    <path d="M 167.713 92.925 L 236.277 214.701 L 99.148 214.701 L 167.713 92.925 Z M 167.713 79.715 C 164.186 79.715 160.661 81.835 157.985 86.073 L 88.147 210.11 C 82.796 218.587 87.347 225.523 98.261 225.523 L 237.164 225.523 C 248.078 225.523 252.63 218.587 247.278 210.11 L 247.278 210.11 L 177.44 86.073 C 174.766 81.835 171.239 79.715 167.713 79.715 L 167.713 79.715 Z" transform="matrix(0, 1, -1, 0, 320.332001, -15.094038)" bx:origin="0.525 0.593"/>
    <path d="M 104.774 81.654 L 231.723 153.811 L 103.863 225.968 L 104.774 81.654 Z" transform="matrix(0.999971, -0.007611, 0.007611, 0.999971, -1.165799, 1.281531)"/>
  </g>
</svg>