<?xml version="1.0" encoding="utf-8"?>
<svg id="Layer_1" width="200px" height="200px" viewBox="0 0 300 300" xmlns="http://www.w3.org/2000/svg">
  <g>
    <path d="M 151.125 14.989 C 76.337 14.989 15.71 75.61 15.71 150.4 C 15.71 225.182 76.337 285.809 151.125 285.809 C 225.912 285.809 286.54 225.182 286.54 150.4 C 286.54 75.61 225.912 14.989 151.125 14.989 Z" style="fill: rgb(35, 141, 177);"/>
    <path d="M255.87,150.402c0,57.851-46.894,104.741-104.745,104.741S46.38,208.253,46.38,150.402   c0-57.852,46.894-104.75,104.745-104.75S255.87,92.55,255.87,150.402z" style="fill: rgb(35, 141, 177);"/>
    <polygon points="198.497,159.55 173.681,159.55 173.681,223.303 128.569,223.303 128.569,159.55 103.753,159.55    128.569,116.313 128.569,116.111 128.674,116.111 150.832,77.497 173.271,116.111 173.677,116.111 173.677,116.837  " style="fill: rgb(35, 141, 177);"/>
  </g>
  <g id="icomoon-ignore" transform="matrix(1, 0, 0, 1, -8.910384, -47.806126)"/>
  <path d="M 150 60 C 199.705 60 240 102.98 240 156 C 240 192.148 221.267 223.625 193.592 240 L 106.408 240 C 78.733 223.625 60 192.148 60 156 C 60 102.98 100.295 60 150 60 Z M 200.962 210.359 C 214.573 195.839 222.069 176.535 222.069 156 L 206.25 156 L 206.25 144 L 221.197 144 C 219.966 135.561 217.439 127.473 213.716 120 L 195 120 L 195 108 L 206.3 108 C 204.641 105.795 202.863 103.67 200.962 101.641 C 192.836 92.974 183.113 86.635 172.5 82.928 L 172.5 96 L 161.25 96 L 161.25 80.056 C 157.563 79.443 153.805 79.126 150 79.126 C 146.195 79.126 142.438 79.443 138.75 80.056 L 138.75 96 L 127.5 96 L 127.5 82.928 C 116.888 86.635 107.164 92.974 99.038 101.641 C 97.137 103.67 95.359 105.795 93.7 108 L 105 108 L 105 120 L 86.284 120 C 82.561 127.473 80.034 135.561 78.803 144 L 93.75 144 L 93.75 156 L 77.932 156 C 77.932 176.535 85.427 195.839 99.038 210.359 C 100.921 212.367 102.894 214.245 104.938 216 L 138.75 216 L 145.179 120 L 154.821 120 L 161.25 216 L 195.062 216 C 197.107 214.245 199.079 212.366 200.962 210.359 Z"/>
</svg>