<?xml version="1.0" encoding="utf-8"?>
<svg id="Layer_1" width="300px" height="300px" viewBox="0 0 300 300" xmlns="http://www.w3.org/2000/svg" xmlns:bx="https://boxy-svg.com">
  <g>
    <path d="M 290 150.006 C 290 227.328 227.323 290 150 290 C 72.676 290 10 227.328 10 150.006 C 10 72.682 72.676 10 150 10 C 227.323 10 290 72.682 290 150.006 Z" style="fill: rgb(150, 150, 150); fill-opacity: 0.5;"/>
    <g id="icomoon-ignore" transform="matrix(0.376332, 0, 0, 0.390625, 54.274708, 30.284891)"/>
    <path d="M 151.536 70.313 L 225.874 205.529 L 77.196 205.529 L 151.536 70.313 Z M 151.536 55.645 C 147.712 55.645 143.89 57.999 140.988 62.705 L 65.269 200.43 C 59.468 209.842 64.402 217.544 76.235 217.544 L 226.836 217.544 C 238.669 217.544 243.605 209.842 237.801 200.43 L 237.801 200.43 L 162.082 62.705 C 159.183 57.999 155.359 55.645 151.536 55.645 L 151.536 55.645 Z" style="fill: rgb(140, 1, 26);" bx:origin="0.525 0.593"/>
    <path d="M 83.529 61.832 L 220.236 137.663 L 83.529 213.493 L 83.529 61.832 Z" style="fill: rgb(239, 8, 51);" transform="matrix(0, -1, 1, 0, 14.219985, 289.545047)"/>
    <path d="M 162.483 179.958 C 162.483 185.128 158.731 189.319 154.103 189.319 C 149.475 189.319 145.723 185.128 145.723 179.958 C 145.723 174.788 149.475 170.598 154.103 170.598 C 158.731 170.598 162.483 174.788 162.483 179.958 Z"/>
    <path d="M 154.119 157.851 C 150.069 157.851 146.785 153.192 146.785 147.443 L 146.785 116.222 C 146.785 110.474 150.069 105.815 154.119 105.815 C 158.169 105.815 161.452 110.474 161.452 116.222 L 161.452 147.443 C 161.452 153.192 158.169 157.851 154.119 157.851 Z"/>
  </g>
</svg>