<?xml version="1.0" encoding="utf-8"?>
<svg id="Layer_1" width="300px" height="300px" viewBox="0 0 300 300" xmlns="http://www.w3.org/2000/svg" xmlns:bx="https://boxy-svg.com">
  <g>
    <path d="M 290 150.006 C 290 227.328 227.323 290 150 290 C 72.676 290 10 227.328 10 150.006 C 10 72.682 72.676 10 150 10 C 227.323 10 290 72.682 290 150.006 Z" style="fill: rgb(150, 150, 150); fill-opacity: 0.5;"/>
    <g id="icomoon-ignore" transform="matrix(0.376332, 0, 0, 0.390625, 54.274708, 30.284891)"/>
    <path d="M 160.135 173.425 C 160.135 178.595 156.383 182.786 151.755 182.786 C 147.127 182.786 143.375 178.595 143.375 173.425 C 143.375 168.255 147.127 164.065 151.755 164.065 C 156.383 164.065 160.135 168.255 160.135 173.425 Z" style="fill: rgb(255, 0, 47);"/>
    <path d="M 152.185 152.612 C 148.135 152.612 144.851 147.953 144.851 142.204 L 144.851 110.983 C 144.851 105.235 148.135 100.576 152.185 100.576 C 156.235 100.576 159.518 105.235 159.518 110.983 L 159.518 142.204 C 159.518 147.953 156.235 152.612 152.185 152.612 Z" style="fill: rgb(255, 0, 47);"/>
    <path d="M 152.43 72.431 L 220.994 194.207 L 83.865 194.207 L 152.43 72.431 Z M 152.43 59.221 C 148.903 59.221 145.378 61.341 142.702 65.579 L 72.864 189.616 C 67.513 198.093 72.064 205.029 82.978 205.029 L 221.881 205.029 C 232.795 205.029 237.347 198.093 231.995 189.616 L 231.995 189.616 L 162.157 65.579 C 159.483 61.341 155.956 59.221 152.43 59.221 L 152.43 59.221 Z" style="fill: rgb(255, 0, 47);" bx:origin="0.525 0.593"/>
  </g>
</svg>