<?xml version="1.0" encoding="utf-8"?>
<svg id="Layer_1" width="300px" height="300px" viewBox="0 0 300 300" xmlns="http://www.w3.org/2000/svg">
  <g>
    <path d="M 290 150.006 C 290 227.328 227.323 290 150 290 C 72.676 290 10 227.328 10 150.006 C 10 72.682 72.676 10 150 10 C 227.323 10 290 72.682 290 150.006 Z" style="fill: rgb(255, 0, 68);"/>
    <g id="icomoon-ignore" transform="matrix(0.376332, 0, 0, 0.390625, 54.274708, 30.284891)"/>
    <path d="M 150.616 48.405 L 231.358 215.441 L 69.873 215.441 L 150.616 48.405 Z M 150.616 30.285 C 146.463 30.285 142.31 33.192 139.16 39.005 L 56.917 209.144 C 50.616 220.772 55.976 230.285 68.829 230.285 L 232.403 230.285 C 245.255 230.285 250.616 220.772 244.314 209.144 L 244.314 209.144 L 162.072 39.005 C 158.921 33.192 154.769 30.285 150.616 30.285 L 150.616 30.285 Z"/>
    <path d="M 162.658 192.785 C 162.658 199.689 157.267 205.285 150.616 205.285 C 143.965 205.285 138.573 199.689 138.573 192.785 C 138.573 185.881 143.965 180.285 150.616 180.285 C 157.267 180.285 162.658 185.881 162.658 192.785 Z"/>
    <path d="M 150.616 167.785 C 143.965 167.785 138.573 162.189 138.573 155.285 L 138.573 117.785 C 138.573 110.881 143.965 105.285 150.616 105.285 C 157.267 105.285 162.658 110.881 162.658 117.785 L 162.658 155.285 C 162.658 162.189 157.267 167.785 150.616 167.785 Z"/>
  </g>
</svg>