<?xml version="1.0" encoding="utf-8"?>
<svg id="Layer_1" width="200px" height="200px" viewBox="0 0 300 300" xmlns="http://www.w3.org/2000/svg">
  <g>
    <path d="M 151.125 14.989 C 76.337 14.989 15.71 75.61 15.71 150.4 C 15.71 225.182 76.337 285.809 151.125 285.809 C 225.912 285.809 286.54 225.182 286.54 150.4 C 286.54 75.61 225.912 14.989 151.125 14.989 Z" style="fill: rgb(35, 141, 177);"/>
    <path d="M255.87,150.402c0,57.851-46.894,104.741-104.745,104.741S46.38,208.253,46.38,150.402   c0-57.852,46.894-104.75,104.745-104.75S255.87,92.55,255.87,150.402z" style="fill: rgb(35, 141, 177);"/>
    <polygon points="198.497,159.55 173.681,159.55 173.681,223.303 128.569,223.303 128.569,159.55 103.753,159.55    128.569,116.313 128.569,116.111 128.674,116.111 150.832,77.497 173.271,116.111 173.677,116.111 173.677,116.837  " style="fill: rgb(35, 141, 177);"/>
  </g>
  <g id="icomoon-ignore" transform="matrix(1, 0, 0, 1, -8.910384, -47.806126)"/>
  <path d="M 150 50 C 205.228 50 250 97.756 250 156.667 C 250 196.831 229.186 231.805 198.436 250 L 101.564 250 C 70.814 231.805 50 196.831 50 156.667 C 50 97.756 94.772 50 150 50 Z M 206.624 217.066 C 221.748 200.932 230.077 179.483 230.077 156.667 L 212.5 156.667 L 212.5 143.333 L 229.108 143.333 C 227.74 133.957 224.932 124.97 220.796 116.667 L 200 116.667 L 200 103.333 L 212.556 103.333 C 210.712 100.883 208.737 98.522 206.624 96.268 C 197.596 86.638 186.792 79.594 175 75.476 L 175 90 L 162.5 90 L 162.5 72.284 C 158.403 71.603 154.228 71.251 150 71.251 C 145.772 71.251 141.598 71.603 137.5 72.284 L 137.5 90 L 125 90 L 125 75.476 C 113.209 79.594 102.404 86.638 93.376 96.268 C 91.263 98.522 89.288 100.883 87.444 103.333 L 100 103.333 L 100 116.667 L 79.204 116.667 C 75.068 124.97 72.26 133.957 70.892 143.333 L 87.5 143.333 L 87.5 156.667 L 69.924 156.667 C 69.924 179.483 78.252 200.932 93.376 217.066 C 95.468 219.297 97.66 221.383 99.931 223.333 L 137.5 223.333 L 144.643 116.667 L 155.357 116.667 L 162.5 223.333 L 200.069 223.333 C 202.341 221.383 204.532 219.296 206.624 217.066 Z"/>
</svg>